<?xml version="1.0" standalone="no"?>
<!DOCTYPE svg PUBLIC "-//W3C//DTD SVG 1.1//EN" "http://www.w3.org/Graphics/SVG/1.1/DTD/svg11.dtd" >
<svg xmlns="http://www.w3.org/2000/svg" xmlns:xlink="http://www.w3.org/1999/xlink" version="1.1">
<metadata></metadata>
<defs>
<font id="fira_sansregular" horiz-adv-x="1146" >
<font-face units-per-em="2048" ascent="1608" descent="-440" />
<missing-glyph horiz-adv-x="542" />
<glyph unicode="fi" horiz-adv-x="1198" />
<glyph unicode="fl" horiz-adv-x="1232" />
<glyph unicode="&#xd;" horiz-adv-x="542" />
<glyph unicode=" "  horiz-adv-x="542" />
<glyph unicode="&#x09;" horiz-adv-x="542" />
<glyph unicode="&#xa0;" horiz-adv-x="542" />
<glyph unicode="!" horiz-adv-x="493" d="M104 119q0 59 41 100t101 41q61 0 102 -41t41 -100t-41 -101.5t-102 -42.5q-59 0 -100.5 42t-41.5 102zM139 1411h209l-20 -940h-166z" />
<glyph unicode="&#x22;" horiz-adv-x="817" d="M123 1411h203l-31 -537h-141zM492 1411h203l-31 -537h-141z" />
<glyph unicode="#" horiz-adv-x="1060" d="M31 334v141h151l58 440h-134v144h152l41 311h160l-41 -311h315l41 311h160l-41 -311h137v-144h-156l-57 -440h137v-141h-157l-43 -334h-160l43 334h-315l-43 -334h-160l43 334h-131zM342 475h315l58 440h-316z" />
<glyph unicode="$" horiz-adv-x="1087" d="M51 154l111 120q147 -143 352 -143q129 0 212 63.5t83 180.5q0 68 -25.5 112.5t-89 79.5t-182.5 72q-211 66 -308.5 155t-97.5 240q0 143 100.5 239.5t264.5 115.5v299h164v-302q98 -10 177 -48t151 -105l-109 -119q-70 66 -144.5 94.5t-162.5 28.5q-109 0 -177.5 -50 t-68.5 -145q0 -59 24.5 -99t88 -73.5t186.5 -72.5q129 -39 215 -86t138.5 -127t52.5 -203q0 -156 -98.5 -262.5t-272.5 -134.5v-301h-164v294q-252 12 -420 177z" />
<glyph unicode="%" horiz-adv-x="1691" d="M92 1044q0 158 93.5 252.5t238.5 94.5q147 0 240.5 -94.5t93.5 -252.5t-93.5 -252t-240.5 -94q-145 0 -238.5 94.5t-93.5 251.5zM258 1044q0 -94 38 -156.5t128 -62.5q166 0 166 219q0 94 -37 157t-129 63q-90 0 -128 -61.5t-38 -158.5zM307 23l948 1433l131 -86 l-948 -1433zM934 322q0 158 93 252t241 94q147 0 239 -94.5t92 -251.5q0 -158 -92 -252.5t-239 -94.5t-240.5 94.5t-93.5 252.5zM1102 322q0 -94 38 -157t128 -63q166 0 166 220q0 94 -37 155.5t-129 61.5q-90 0 -128 -60.5t-38 -156.5z" />
<glyph unicode="&#x26;" horiz-adv-x="1562" d="M166 358q0 127 71.5 222.5t213.5 185.5q-102 98 -150.5 176t-48.5 176q0 139 97 228.5t269 89.5q111 0 196 -40t132 -112t47 -160q0 -121 -76.5 -208t-211.5 -166l360 -340q82 166 123 346l176 -51q-72 -238 -182 -404l229 -215l-135 -111l-199 193 q-88 -96 -198.5 -144.5t-253.5 -48.5q-135 0 -238.5 47.5t-162 134.5t-58.5 201zM358 365q0 -113 79 -176.5t208 -63.5q96 0 174 37t150 110l-410 392q-102 -68 -151.5 -138.5t-49.5 -160.5zM436 1120q0 -74 39 -132t123 -138q104 63 157.5 125.5t53.5 138.5q0 86 -51 134 t-137 48t-135.5 -49t-49.5 -127z" />
<glyph unicode="'" horiz-adv-x="448" d="M123 1411h203l-31 -537h-141z" />
<glyph unicode="(" horiz-adv-x="663" d="M82 717q0 227 50 400t123 297t208 317l119 -82q-107 -158 -169.5 -282t-98 -281.5t-35.5 -368.5q0 -209 35.5 -366.5t98 -283.5t169.5 -282l-119 -82q-135 193 -208 316.5t-123 296.5t-50 401z" />
<glyph unicode=")" horiz-adv-x="663" d="M82 -215q106 156 168.5 282t98.5 283.5t36 366.5q0 211 -36 368.5t-98.5 281.5t-168.5 282l119 82q135 -193 207.5 -317t123 -297t50.5 -400t-50.5 -400.5t-123 -297t-207.5 -316.5z" />
<glyph unicode="*" horiz-adv-x="899" d="M41 1149l55 168l291 -125l-31 321h185l-31 -323l291 129l57 -170l-313 -68l213 -237l-148 -109l-161 275l-160 -275l-148 107l211 239z" />
<glyph unicode="+" horiz-adv-x="1021" d="M127 600v156h297v307h172v-307h299v-156h-299v-305h-172v305h-297z" />
<glyph unicode="," horiz-adv-x="491" d="M78 -340l82 340q-27 20 -42.5 51t-15.5 68q0 59 41 100t101 41q61 0 102 -41t41 -100q0 -63 -37 -146l-137 -313h-135z" />
<glyph unicode="-" horiz-adv-x="825" d="M123 561v160h579v-160h-579z" />
<glyph unicode="." horiz-adv-x="491" d="M102 119q0 59 41 100t101 41q61 0 102 -41t41 -100t-41 -101.5t-102 -42.5q-59 0 -100.5 42t-41.5 102z" />
<glyph unicode="/" horiz-adv-x="1064" d="M215 -174l475 1827l160 -37l-473 -1829z" />
<glyph unicode="0" horiz-adv-x="1142" d="M113 684q0 344 115.5 525.5t342.5 181.5q228 0 343.5 -181.5t115.5 -525.5t-115.5 -526.5t-343.5 -182.5q-227 0 -342.5 182.5t-115.5 526.5zM309 684q0 -295 64.5 -427t197.5 -132q131 0 197 132t66 427q0 293 -66 425t-197 132q-133 0 -197.5 -131t-64.5 -426z" />
<glyph unicode="1" horiz-adv-x="886" d="M72 1108l424 262h166v-1370h-189v1169l-319 -194z" />
<glyph unicode="2" horiz-adv-x="1013" d="M51 1184q84 104 186.5 155.5t229.5 51.5q123 0 216 -49.5t144.5 -134.5t51.5 -191q0 -125 -56.5 -239.5t-173.5 -248t-354 -370.5h616l-22 -158h-809v150q274 285 389 416.5t164 230t49 211.5q0 106 -61.5 166.5t-163.5 60.5q-84 0 -147.5 -35t-131.5 -115z" />
<glyph unicode="3" horiz-adv-x="1021" d="M31 160l114 106q123 -137 291 -137q129 0 203 72.5t74 195.5q0 135 -70 190.5t-203 55.5h-102l22 145h70q106 0 177 63.5t71 178.5q0 96 -61.5 152.5t-165.5 56.5q-80 0 -146.5 -28.5t-136.5 -94.5l-98 113q174 162 391 162q127 0 218 -47.5t139 -127t48 -174.5 q0 -125 -72.5 -205.5t-193.5 -109.5q137 -12 223 -98t86 -234q0 -119 -57 -215t-163.5 -150.5t-246.5 -54.5q-125 0 -229 46.5t-182 138.5z" />
<glyph unicode="4" horiz-adv-x="1089" d="M82 338v135l412 918l157 -66l-370 -838h389l16 369h164v-369h178v-149h-178v-338h-182v338h-586z" />
<glyph unicode="5" horiz-adv-x="1026" d="M53 150l115 110q61 -68 131 -99.5t158 -31.5q131 0 205.5 82t74.5 231q0 150 -67.5 217.5t-182.5 67.5q-53 0 -98 -11t-96 -36h-148v690h742l-27 -147h-534v-404q104 53 219 53q176 0 282.5 -115.5t106.5 -318.5q0 -135 -59.5 -240.5t-167 -164t-248.5 -58.5 q-125 0 -223.5 44t-182.5 131z" />
<glyph unicode="6" horiz-adv-x="1091" d="M113 643q0 223 62.5 392t179 262.5t276.5 93.5q156 0 282 -84l-73 -125q-96 59 -211 59q-147 0 -233.5 -141.5t-94.5 -378.5q127 180 330 180q104 0 190 -49t137.5 -147.5t51.5 -239.5q0 -145 -58.5 -257t-158 -172.5t-220.5 -60.5q-240 0 -350 177.5t-110 490.5z M303 563q6 -225 70.5 -331.5t199.5 -106.5q119 0 182.5 90t63.5 244q0 293 -221 293q-90 0 -166 -50.5t-129 -138.5z" />
<glyph unicode="7" horiz-adv-x="909" d="M51 1217v153h797v-141l-512 -1249l-172 57l493 1180h-606z" />
<glyph unicode="8" horiz-adv-x="1128" d="M92 362q0 127 68.5 213.5t201.5 143.5q-109 55 -160.5 134t-51.5 185q0 111 58 191t153.5 121t203.5 41q106 0 201.5 -39t155 -118t59.5 -190q0 -102 -57.5 -175.5t-175.5 -133.5q288 -116 288 -368q0 -113 -60.5 -202t-169 -139.5t-245.5 -50.5q-139 0 -245.5 49.5 t-165 137.5t-58.5 200zM289 362q0 -113 73.5 -175t200.5 -62t202 65.5t75 174.5q0 74 -29 124t-92.5 87.5t-177.5 76.5l-52 19q-102 -49 -151 -124t-49 -186zM334 1036q0 -98 60.5 -149t193.5 -94l35 -13q92 53 133 112.5t41 145.5q0 96 -60.5 153.5t-171.5 57.5 q-106 0 -168.5 -55t-62.5 -158z" />
<glyph unicode="9" horiz-adv-x="1075" d="M92 938q0 139 59.5 241.5t159 157t219.5 54.5q218 0 330.5 -142.5t112.5 -390.5q0 -281 -76 -451.5t-231.5 -272t-421.5 -179.5l-43 141q274 78 420.5 211t156.5 355q-47 -74 -127 -119t-180 -45q-106 0 -192 54t-136.5 153.5t-50.5 232.5zM283 934q0 -143 61.5 -216 t165.5 -73q161 0 272 170q4 227 -56 326.5t-191 99.5q-121 0 -186.5 -80t-65.5 -227z" />
<glyph unicode=":" horiz-adv-x="491" d="M102 119q0 59 41 100t101 41q61 0 102 -41t41 -100t-41 -101.5t-102 -42.5q-59 0 -100.5 42t-41.5 102zM102 873q0 59 41 100t101 41q61 0 102 -41t41 -100t-41 -101.5t-102 -42.5q-59 0 -100.5 42t-41.5 102z" />
<glyph unicode=";" horiz-adv-x="491" d="M78 -340l82 340q-27 20 -42.5 51t-15.5 68q0 59 41 100t101 41q61 0 102 -41t41 -100q0 -63 -37 -146l-137 -313h-135zM102 873q0 59 41 100t101 41q61 0 102 -41t41 -100t-41 -101.5t-102 -42.5q-59 0 -100.5 42t-41.5 102z" />
<glyph unicode="&#x3c;" horiz-adv-x="1024" d="M102 586v192l752 350l68 -155l-670 -291l670 -295l-68 -151z" />
<glyph unicode="=" horiz-adv-x="1024" d="M127 401v158h770v-158h-770zM127 797v158h770v-158h-770z" />
<glyph unicode="&#x3e;" horiz-adv-x="1024" d="M102 387l670 295l-670 291l68 155l752 -350v-192l-752 -350z" />
<glyph unicode="?" horiz-adv-x="940" d="M61 1233q172 203 426 203q123 0 212 -44t134.5 -118t45.5 -158q0 -80 -28 -136t-67 -91t-104 -80q-59 -41 -93 -70.5t-56.5 -72.5t-22.5 -103v-92h-186v102q0 88 29.5 150.5t72.5 100.5t108 81q78 53 114 93t36 106q0 84 -55.5 130t-151.5 46q-164 0 -285 -147zM279 119 q0 59 40.5 100t100.5 41q61 0 102 -41t41 -100t-41 -101.5t-102 -42.5q-59 0 -100 42t-41 102z" />
<glyph unicode="@" horiz-adv-x="2088" d="M143 492q0 266 118 481t331 339t485 124q275 0 471.5 -109.5t297 -294t100.5 -403.5q0 -266 -102.5 -438.5t-301.5 -172.5q-115 0 -179.5 63.5t-82.5 147.5q-39 -90 -111.5 -148t-183.5 -58q-164 0 -259 122.5t-95 327.5q0 258 123 396.5t323 138.5q86 0 162 -18.5 t160 -63.5v-531q0 -127 34.5 -179t104.5 -52q217 0 217 461q0 199 -78 346t-229.5 228t-370.5 81q-225 0 -394 -101.5t-259 -280.5t-90 -406t87 -402.5t255 -273t401 -97.5q195 0 393 70l52 -145q-115 -41 -216.5 -60.5t-230.5 -19.5q-274 0 -485 113.5t-329 324.5t-118 490 zM815 473q0 -154 49 -233.5t144 -79.5q153 0 221 176v506q-68 31 -146 30q-268 0 -268 -399z" />
<glyph unicode="A" horiz-adv-x="1173" d="M12 0l453 1411h246l450 -1411h-205l-106 354h-535l-106 -354h-197zM362 512h441l-219 737z" />
<glyph unicode="B" horiz-adv-x="1245" d="M205 0v1411h334q268 0 410.5 -88t142.5 -268q0 -123 -77 -205t-188 -105q146 -24 236 -102t90 -242q0 -401 -559 -401h-389zM399 156h195q172 0 263 51t91 194q0 139 -88 201t-229 62h-232v-508zM399 813h213q123 0 202 59.5t79 167.5q0 123 -83 170t-251 47h-160v-444z " />
<glyph unicode="C" d="M113 707q0 231 77.5 396t211 249t296.5 84q127 0 214 -33t178 -107l-107 -125q-129 104 -272 105q-176 0 -284 -135t-108 -434q0 -291 106.5 -429.5t283.5 -138.5q90 0 155.5 31t143.5 88l98 -125q-63 -68 -166.5 -113t-237.5 -45q-172 0 -306 85t-208.5 250t-74.5 397z " />
<glyph unicode="D" horiz-adv-x="1318" d="M205 0v1411h295q319 0 512.5 -148.5t193.5 -549.5q0 -391 -193.5 -552t-469.5 -161h-338zM399 154h158q197 0 319.5 120.5t122.5 438.5q0 223 -63.5 343t-161.5 159.5t-231 39.5h-144v-1101z" />
<glyph unicode="E" horiz-adv-x="1095" d="M205 0v1411h764l-23 -156h-547v-460h475v-156h-475v-483h586v-156h-780z" />
<glyph unicode="F" horiz-adv-x="1005" d="M205 0v1411h749l-22 -156h-533v-481h461v-153h-461v-621h-194z" />
<glyph unicode="G" horiz-adv-x="1292" d="M113 707q0 229 84 394t223 250t301 85q137 0 234.5 -38t193.5 -118l-115 -119q-76 61 -145.5 88t-163.5 27q-109 0 -200 -58.5t-148.5 -186.5t-57.5 -324q0 -297 97.5 -434.5t288.5 -137.5q158 0 268 66v424h-250l-23 157h465v-682q-102 -61 -218 -93t-257 -32 q-268 0 -422.5 186.5t-154.5 545.5z" />
<glyph unicode="H" horiz-adv-x="1392" d="M205 0v1411h194v-590h594v590h195v-1411h-195v662h-594v-662h-194z" />
<glyph unicode="I" horiz-adv-x="606" d="M205 0v1411h196v-1411h-196z" />
<glyph unicode="J" horiz-adv-x="624" d="M10 -139q94 37 141.5 80t66 104t18.5 160v1206h194v-1214q0 -209 -91 -313.5t-278 -164.5z" />
<glyph unicode="K" horiz-adv-x="1206" d="M205 0v1411h194v-1411h-194zM410 754l536 657h221l-534 -645l573 -766h-239z" />
<glyph unicode="L" horiz-adv-x="1019" d="M205 0v1411h194v-1241h580l-23 -170h-751z" />
<glyph unicode="M" horiz-adv-x="1630" d="M127 0l117 1411h262l297 -1026l282 1026h265l116 -1411h-188l-49 637q-31 375 -35 575l-305 -1052h-182l-322 1054q0 -256 -27 -591l-47 -623h-184z" />
<glyph unicode="N" horiz-adv-x="1398" d="M205 0v1411h254l579 -1200q-6 53 -16 186t-10 244v770h182v-1411h-260l-574 1198q12 -141 19.5 -261t7.5 -290v-647h-182z" />
<glyph unicode="O" horiz-adv-x="1417" d="M113 702q0 227 74.5 393.5t209.5 253.5t312 87q178 0 312 -85t209 -249t75 -397q0 -229 -75 -393.5t-209 -250.5t-312 -86t-312.5 84t-209 248t-74.5 395zM319 702q0 -293 103.5 -430t286.5 -137q389 0 389 570q0 571 -389 571q-185 0 -287.5 -139.5t-102.5 -434.5z" />
<glyph unicode="P" horiz-adv-x="1189" d="M205 0v1411h370q263 0 406 -109.5t143 -326.5q0 -231 -149.5 -344t-396.5 -113h-179v-518h-194zM399 672h170q170 0 259.5 65.5t89.5 235.5q0 152 -89.5 219.5t-255.5 67.5h-174v-588z" />
<glyph unicode="Q" horiz-adv-x="1411" d="M113 702q0 227 74.5 393.5t209.5 253.5t312 87q178 0 312 -85t209 -249t75 -397q0 -248 -82 -394.5t-242 -230.5q113 0 205 -34t178 -93l-127 -164q-123 109 -233.5 150t-298.5 41q-176 0 -309.5 82.5t-208 245.5t-74.5 394zM319 702q0 -292 103.5 -429.5t286.5 -137.5 q389 0 389 570q0 571 -389 571q-184 0 -287 -139.5t-103 -434.5z" />
<glyph unicode="R" horiz-adv-x="1239" d="M205 0v1411h370q264 0 400.5 -100.5t136.5 -298.5q0 -147 -75.5 -239.5t-229.5 -139.5l381 -633h-232l-338 598h-219v-598h-194zM399 748h197q154 0 231.5 62t77.5 202q0 131 -78.5 189.5t-253.5 58.5h-174v-512z" />
<glyph unicode="S" horiz-adv-x="1116" d="M51 158l113 125q154 -147 364 -148q131 0 217 64.5t86 187.5q0 70 -26.5 116t-91 83t-187.5 73q-217 66 -317 158t-100 250q0 106 56 190t157.5 131.5t230.5 47.5q141 0 241.5 -40t194.5 -124l-110 -123q-76 68 -153 97.5t-165 29.5q-111 0 -182.5 -51t-71.5 -150 q0 -61 24.5 -103t91 -77t193.5 -74q133 -41 221.5 -88t142.5 -130t54 -210q0 -123 -60.5 -217t-174 -147.5t-269.5 -53.5q-293 0 -479 183z" />
<glyph unicode="T" horiz-adv-x="1058" d="M31 1245v166h1007l-20 -166h-391v-1245h-195v1245h-401z" />
<glyph unicode="U" horiz-adv-x="1355" d="M184 453v958h195v-944q0 -164 73.5 -246t223.5 -82q152 0 225.5 81t73.5 247v944h196v-958q0 -142 -58 -249.5t-170 -168t-267 -60.5q-236 0 -364 130.5t-128 347.5z" />
<glyph unicode="V" horiz-adv-x="1138" d="M12 1411h209l354 -1200l355 1200h196l-450 -1411h-209z" />
<glyph unicode="W" horiz-adv-x="1691" d="M51 1411h191l227 -1241l272 1241h207l279 -1241l235 1241h178l-286 -1411h-250l-260 1182l-262 -1182h-244z" />
<glyph unicode="X" horiz-adv-x="1105" d="M10 0l424 752l-387 659h221l285 -530l287 530h209l-383 -649l430 -762h-222l-325 625l-330 -625h-209z" />
<glyph unicode="Y" horiz-adv-x="1126" d="M10 1411h215l344 -698l344 698h203l-454 -868v-543h-197v541z" />
<glyph unicode="Z" horiz-adv-x="1069" d="M61 0v156l705 1091h-631v164h842v-158l-698 -1087h698l-23 -166h-893z" />
<glyph unicode="[" horiz-adv-x="659" d="M133 -238v1909h424v-158h-246v-1595h246v-156h-424z" />
<glyph unicode="\" horiz-adv-x="1064" d="M215 1616l160 37l475 -1827l-162 -39z" />
<glyph unicode="]" horiz-adv-x="659" d="M102 -82h246v1595h-246v158h424v-1909h-424v156z" />
<glyph unicode="^" horiz-adv-x="1105" d="M82 1079l387 641h168l387 -641h-201l-272 477l-270 -477h-199z" />
<glyph unicode="_" horiz-adv-x="1064" d="M35 -129h995v-162h-995v162z" />
<glyph unicode="`" horiz-adv-x="614" d="M61 1483l84 157l408 -233l-57 -100z" />
<glyph unicode="a" horiz-adv-x="1114" d="M92 301q0 172 124 264t351 92h166v80q0 115 -55 164t-170 49q-119 0 -291 -57l-47 137q201 74 373 74q190 0 284.5 -93t94.5 -266v-493q0 -66 22.5 -97.5t67.5 -48.5l-43 -131q-84 10 -135.5 47t-75.5 115q-109 -162 -322 -162q-160 0 -252 90.5t-92 235.5zM293 311 q0 -96 47 -145t139 -49q162 0 254 168v247h-141q-299 0 -299 -221z" />
<glyph unicode="b" horiz-adv-x="1216" d="M195 0v1513l188 23v-592q117 160 305 160q184 0 293 -148.5t109 -414.5q0 -168 -51.5 -296t-147.5 -199t-225 -71q-170 0 -287 144l-19 -119h-165zM383 270q43 -68 105.5 -106.5t132.5 -38.5q124 0 195 101.5t71 314.5q0 219 -65.5 316t-186.5 97q-143 0 -252 -168v-516z " />
<glyph unicode="c" horiz-adv-x="978" d="M117 530q0 172 57 301.5t162.5 201t251.5 71.5q96 0 176 -27.5t154 -89.5l-93 -123q-55 43 -108 63.5t-121 20.5q-131 0 -204 -104.5t-73 -308.5q0 -205 72 -302.5t205 -97.5q66 0 118 20.5t113 67.5l91 -129q-147 -119 -330 -119q-219 0 -345 147.5t-126 407.5z" />
<glyph unicode="d" horiz-adv-x="1224" d="M127 535q0 166 51 294.5t147.5 201.5t225.5 73q166 0 291 -133v565l188 -23v-1513h-166l-18 150q-53 -82 -133 -128.5t-178 -46.5q-193 0 -300.5 152t-107.5 408zM330 539q0 -209 63.5 -311.5t181.5 -102.5q87 0 148 40t119 120v528q-53 70 -113.5 105.5t-136.5 35.5 q-125 0 -193.5 -104.5t-68.5 -310.5z" />
<glyph unicode="e" horiz-adv-x="1126" d="M117 528q0 168 54 298t155.5 204t238.5 74q215 0 330 -141.5t115 -391.5q0 -47 -4 -96h-689q12 -178 90 -262t201 -84q78 0 143.5 22.5t137.5 71.5l82 -112q-172 -135 -377 -136q-225 0 -351 147.5t-126 405.5zM317 614h506v13q0 160 -63.5 243.5t-190.5 83.5 q-231 0 -252 -340z" />
<glyph unicode="f" horiz-adv-x="686" d="M20 934v145h193v148q0 139 89 224t249 85q74 0 132 -13.5t126 -41.5l-59 -138q-92 41 -189 41q-86 0 -123 -37.5t-37 -117.5v-150h263l-21 -145h-242v-934h-188v934h-193z" />
<glyph unicode="g" horiz-adv-x="1064" d="M51 -109h170q0 -66 24.5 -103.5t88 -57t180.5 -19.5q170 0 242.5 42t72.5 126q0 76 -57 115t-160 39h-170q-137 0 -207.5 58.5t-70.5 146.5q0 53 30.5 102t88.5 88q-94 49 -138.5 122t-44.5 177q0 109 54.5 195t149.5 134t212 48h38q102 0 175 9q86 11 142.5 30.5 t138.5 56.5l55 -170q-61 -20 -135 -26.5t-180 -6.5q190 -86 190 -272q0 -162 -110.5 -264.5t-301.5 -102.5q-74 0 -137 21q-25 -16 -39 -44t-14 -56q0 -88 141 -89h172q109 0 193 -38.5t130 -106.5t46 -154q0 -158 -129 -242.5t-377 -84.5q-174 0 -275.5 35.5t-144.5 107.5 t-43 184zM293 727q0 -111 59.5 -177.5t167.5 -66.5q111 0 169.5 64.5t58.5 181.5q0 240 -232 240q-106 0 -164.5 -66.5t-58.5 -175.5z" />
<glyph unicode="h" horiz-adv-x="1200" d="M195 0v1511l188 21v-602q127 174 319 174q148 0 231 -88t83 -242v-774h-189v748q0 115 -44 161.5t-128 46.5t-149.5 -49t-122.5 -139v-768h-188z" />
<glyph unicode="i" horiz-adv-x="577" d="M155 1468q0 55 37 92t95 37q59 0 96 -36.5t37 -92.5q0 -55 -37 -91t-96 -36q-57 0 -94.5 36t-37.5 91zM195 0v1079h188v-1079h-188z" />
<glyph unicode="j" horiz-adv-x="573" d="M-18 -297q80 37 122.5 73t64 100.5t21.5 176.5v1026h189v-1013q0 -150 -37 -240t-107.5 -146.5t-197.5 -113.5zM153 1468q0 55 37 92t95 37q59 0 96 -36.5t37 -92.5q0 -55 -37 -91t-96 -36q-57 0 -94.5 36t-37.5 91z" />
<glyph unicode="k" horiz-adv-x="1048" d="M195 0v1513l188 23v-1536h-188zM395 590l398 489h211l-398 -477l443 -602h-226z" />
<glyph unicode="l" horiz-adv-x="600" d="M184 213v1300l189 23v-1319q0 -45 15 -65.5t52 -20.5q39 0 70 12l49 -131q-76 -37 -160 -37q-104 0 -159.5 60.5t-55.5 177.5z" />
<glyph unicode="m" horiz-adv-x="1755" d="M195 0v1079h161l17 -157q121 182 311 182q100 0 171 -51.5t101 -143.5q63 94 140.5 144.5t181.5 50.5q133 0 213 -89t80 -241v-774h-189v748q0 208 -150 208h-1q-80 0 -135.5 -46t-118.5 -144v-766h-189v748q0 208 -150 208h-1q-82 0 -137.5 -47t-116.5 -143v-766h-188z " />
<glyph unicode="n" horiz-adv-x="1200" d="M195 0v1079h161l17 -159q57 86 142 135t187 49q148 0 231 -88t83 -242v-774h-189v748q0 115 -43 161.5t-127 46.5q-86 0 -151.5 -49t-122.5 -141v-766h-188z" />
<glyph unicode="o" horiz-adv-x="1196" d="M117 539q0 168 57 296t166 198.5t260 70.5q227 0 353 -151.5t126 -411.5q0 -168 -57 -296t-165.5 -199t-258.5 -71q-227 0 -354 152t-127 412zM319 539q0 -412 279 -412t279 414q0 411 -276 411h-1h-1q-280 0 -280 -413z" />
<glyph unicode="p" horiz-adv-x="1216" d="M195 -436v1515h161l15 -145q59 82 143 126t176 44q207 0 303.5 -147.5t96.5 -415.5q0 -254 -111 -410t-313 -156q-180 0 -283 123v-512zM383 260q41 -63 102.5 -97t135.5 -34q266 0 266 412q0 413 -243 413h-1q-80 0 -145.5 -47t-114.5 -121v-526z" />
<glyph unicode="q" horiz-adv-x="1214" d="M117 535q0 166 51 294.5t147.5 201.5t225.5 73q172 0 303 -146l14 121h162v-1515l-189 22v557q-53 -80 -131.5 -124t-175.5 -44q-193 0 -300 152t-107 408zM319 539q0 -209 63.5 -311.5t182.5 -102.5q86 0 147.5 40t118.5 120v528q-53 70 -113.5 105.5t-135.5 35.5 q-125 0 -194 -104.5t-69 -310.5z" />
<glyph unicode="r" horiz-adv-x="790" d="M195 0v1079h161l19 -219q43 121 116.5 182.5t172.5 61.5q57 0 106 -12l-35 -185q-49 12 -94 13q-100 0 -161.5 -74t-96.5 -230v-616h-188z" />
<glyph unicode="s" horiz-adv-x="956" d="M51 117l105 119q127 -109 299 -109q104 0 167.5 43t63.5 115q0 57 -22.5 93t-77 61.5t-162.5 54.5q-172 45 -249 121.5t-77 193.5q0 84 50.5 151.5t139.5 105.5t199 38q111 0 199 -31t168 -92l-82 -125q-72 51 -138.5 74.5t-139.5 23.5q-92 0 -145.5 -37.5t-53.5 -103.5 t50 -102.5t181 -71.5q180 -45 269.5 -123t89.5 -213q0 -160 -124 -244t-302 -84q-246 0 -408 142z" />
<glyph unicode="t" horiz-adv-x="739" d="M18 934v145h189v244l188 23v-267h256l-20 -145h-236v-643q0 -84 30 -122t99 -38q68 0 144 47l71 -129q-106 -74 -241 -74q-137 0 -214 79t-77 229v651h-189z" />
<glyph unicode="u" horiz-adv-x="1191" d="M184 305v774h189v-753q0 -111 39 -157t127 -46q158 0 270 186v770h188v-1079h-161l-15 168q-61 -100 -141 -146.5t-195 -46.5q-141 0 -221 86t-80 244z" />
<glyph unicode="v" horiz-adv-x="1007" d="M20 1079h205l283 -911l280 911h199l-366 -1079h-228z" />
<glyph unicode="w" horiz-adv-x="1468" d="M41 1079h188l195 -948l213 948h211l203 -948l196 948h180l-245 -1079h-256l-189 909l-194 -909h-250z" />
<glyph unicode="x" horiz-adv-x="993" d="M10 0l377 569l-334 510h221l226 -395l227 395h213l-332 -501l375 -578h-227l-264 457l-269 -457h-213z" />
<glyph unicode="y" horiz-adv-x="1007" d="M20 1079h201l289 -942l283 942h194l-360 -1085q-64 -189 -177.5 -298.5t-324.5 -131.5l-21 147q106 18 170 53t102 89.5t70 146.5h-63z" />
<glyph unicode="z" horiz-adv-x="894" d="M51 0v141l561 779h-514v159h729v-143l-563 -778h570l-23 -158h-760z" />
<glyph unicode="{" horiz-adv-x="659" d="M51 637v156q80 0 112 36.5t32 122.5v455q0 164 83.5 234.5t288.5 70.5v-145q-104 0 -149 -32t-45 -108v-489q0 -104 -37 -150.5t-117 -72.5q82 -29 118 -72t36 -147v-490q0 -76 45 -107.5t149 -31.5v-146q-205 0 -288.5 71t-83.5 235v454q0 86 -32 121t-112 35z" />
<glyph unicode="|" horiz-adv-x="825" d="M328 -209v1862h170v-1862h-170z" />
<glyph unicode="}" horiz-adv-x="659" d="M92 -133q104 0 149.5 31.5t45.5 107.5v490q0 104 35.5 147t117.5 72q-80 27 -116.5 73t-36.5 150v489q0 76 -45 108t-150 32v145q205 0 289 -70.5t84 -234.5v-455q0 -86 31.5 -122.5t111.5 -36.5v-156q-80 0 -111.5 -35t-31.5 -121v-454q0 -164 -84 -235t-289 -71v146z " />
<glyph unicode="~" horiz-adv-x="999" d="M72 588q102 199 280 198q62 0 107 -19t98 -56q37 -27 60.5 -38t48.5 -11q47 0 77.5 26.5t59.5 75.5l125 -66q-96 -186 -275 -186q-63 0 -108 20.5t-105 59.5q-33 25 -55.5 36t-44.5 11q-49 0 -81 -29.5t-62 -85.5z" />
<glyph unicode="&#xa1;" horiz-adv-x="493" d="M104 870q0 59 41 101.5t103 42.5q59 0 100 -42t41 -102q0 -59 -41 -100t-100 -41q-61 0 -102.5 41t-41.5 100zM145 -414l21 920h166l22 -920h-209z" />
<glyph unicode="&#xa2;" horiz-adv-x="978" d="M117 530q0 236 105.5 388.5t289.5 179.5v303h162v-303q133 -18 244 -111l-93 -123q-55 43 -108 63.5t-121 20.5q-131 0 -204 -104.5t-73 -308.5q0 -205 72 -302.5t205 -97.5q66 0 118 20.5t113 67.5l91 -129q-115 -92 -244 -112v-297h-164v297q-184 25 -288.5 169 t-104.5 379z" />
<glyph unicode="&#xa3;" horiz-adv-x="1075" d="M82 0v150q72 27 106.5 56.5t48 77.5t13.5 136v239h-135v123h135v228q0 170 102.5 275.5t284.5 105.5q113 0 203 -42t164 -128l-125 -95q-49 57 -103.5 84t-130.5 27q-100 0 -154.5 -58.5t-54.5 -166.5v-230h426v-123h-426v-241q0 -105 -26.5 -162t-98.5 -98h656l-23 -158 h-862z" />
<glyph unicode="&#xa4;" d="M59 293l160 160q-74 109 -74 245q0 133 72 244l-158 164l113 113l160 -164q100 70 237 69q137 0 246 -65l160 160l112 -113l-155 -158q76 -106 76 -250q0 -141 -76 -252l155 -153l-112 -113l-160 156q-109 -66 -246 -66q-131 0 -239 70l-158 -160zM324 700 q0 -133 65.5 -206.5t185.5 -73.5q121 0 185.5 73.5t64.5 206.5t-64.5 207t-185.5 74t-186 -73.5t-65 -207.5z" />
<glyph unicode="&#xa5;" horiz-adv-x="1097" d="M10 1370h209l336 -604l334 604h198l-391 -661h232v-127h-283v-185h283v-125h-283v-272h-192v272h-285v125h285v185h-285v127h233z" />
<glyph unicode="&#xa6;" horiz-adv-x="825" d="M328 -209v746h170v-746h-170zM328 907v746h170v-746h-170z" />
<glyph unicode="&#xa7;" horiz-adv-x="1091" d="M143 637q0 74 42 140.5t110 111.5q-51 37 -76.5 86t-25.5 117q0 135 109.5 214.5t272.5 79.5q199 0 351 -110l-72 -119q-68 43 -133.5 63.5t-147.5 20.5q-88 0 -141 -37t-53 -98q0 -49 19.5 -80t72.5 -59.5t158 -63.5q172 -57 245.5 -124.5t73.5 -184.5q0 -70 -42 -131.5 t-113 -108.5q110 -77 110 -200q0 -137 -110.5 -218t-288.5 -81q-199 0 -344 102l69 127q63 -43 130 -62.5t151 -19.5q90 0 147.5 35t57.5 98q0 49 -20.5 80t-73 57.5t-160.5 61.5q-170 55 -244 120.5t-74 182.5zM326 662q0 -74 40 -112t154 -75q109 -37 160 -59 q41 35 64.5 77t23.5 80q0 49 -18.5 81t-64.5 57.5t-138 58.5q-72 27 -137 55q-39 -39 -61.5 -82t-22.5 -81z" />
<glyph unicode="&#xa8;" horiz-adv-x="788" d="M61 1456q0 49 34 83t85 34q49 0 83 -34t34 -83t-34 -83t-83 -34q-51 0 -85 34t-34 83zM492 1456q0 49 33.5 83t82.5 34q51 0 85 -34t34 -83t-34 -83t-85 -34q-49 0 -82.5 34t-33.5 83z" />
<glyph unicode="&#xa9;" horiz-adv-x="1658" d="M188 889q0 176 86 323.5t233.5 233.5t323.5 86q175 0 321 -86t232 -233.5t86 -323.5q0 -174 -86 -321.5t-232 -233.5t-321 -86q-176 0 -323.5 86t-233.5 233.5t-86 321.5zM313 889q0 -145 68 -267t186.5 -194t263.5 -72t263 72t186 193.5t68 267.5q0 147 -68 270 t-185.5 194.5t-263.5 71.5q-145 0 -263.5 -71.5t-186.5 -194.5t-68 -270zM502 891q0 123 45 211t120.5 133t168.5 45q73 0 128.5 -20.5t110.5 -61.5l-76 -100q-68 59 -155 59q-84 0 -135.5 -65.5t-51.5 -200.5q0 -129 50.5 -194.5t136.5 -65.5q51 0 91 15.5t81 47.5l65 -98 q-106 -94 -243 -94q-152 0 -244 102.5t-92 286.5z" />
<glyph unicode="&#xaa;" horiz-adv-x="1024" d="M133 805q0 131 101.5 200.5t287.5 69.5h119v49q0 80 -41 113t-129 33q-100 0 -231 -43l-45 127q160 57 307 57q322 0 321 -276v-349q0 -47 16.5 -69.5t51.5 -34.5l-39 -125q-72 8 -116 36t-66 85q-43 -61 -109.5 -92t-148.5 -31q-129 0 -204 68.5t-75 181.5zM145 0v158 h770v-158h-770zM326 815q0 -59 34.5 -92t98.5 -33q114 0 182 109v164h-98q-217 0 -217 -148z" />
<glyph unicode="&#xab;" horiz-adv-x="1177" d="M113 522v129l358 445l113 -78l-277 -430l277 -430l-113 -78zM594 522v129l358 445l113 -78l-277 -430l277 -430l-113 -78z" />
<glyph unicode="&#xac;" horiz-adv-x="1024" d="M127 582v157h770v-450h-170v293h-600z" />
<glyph unicode="&#xad;" horiz-adv-x="825" d="M123 561v160h579v-160h-579z" />
<glyph unicode="&#xae;" horiz-adv-x="1312" d="M137 1010q0 143 68.5 264t187.5 191.5t260 70.5q146 0 265.5 -70.5t188.5 -191.5t69 -264t-69 -263t-188.5 -190t-265.5 -70q-141 0 -260 70t-187.5 189.5t-68.5 263.5zM250 1010q0 -117 52 -213.5t144.5 -152.5t206.5 -56q119 0 212 56t145.5 152.5t52.5 213.5 t-52.5 214t-145.5 154.5t-212 57.5q-115 0 -207 -57.5t-144 -155t-52 -213.5zM467 735v565h160q250 0 250 -172q0 -59 -37 -99t-97 -58l152 -236h-137l-125 217h-49v-217h-117zM584 1042h61q111 0 111 86q0 43 -28 62.5t-87 19.5h-57v-168z" />
<glyph unicode="&#xaf;" horiz-adv-x="681" d="M61 1366v141h560v-141h-560z" />
<glyph unicode="&#xb0;" horiz-adv-x="1071" d="M113 1108q0 100 47 175t123.5 114t165.5 39q88 0 164.5 -39t123.5 -115t47 -176t-47 -175t-123.5 -113t-164.5 -38q-89 0 -165.5 39t-123.5 114t-47 175zM270 1108q0 -96 52.5 -148.5t126.5 -52.5q75 0 126.5 51.5t51.5 147.5t-51.5 148.5t-126.5 52.5 q-76 0 -127.5 -51.5t-51.5 -147.5z" />
<glyph unicode="&#xb1;" horiz-adv-x="1024" d="M127 0v158h770v-158h-770zM129 647v156h297v307h172v-307h299v-156h-299v-305h-172v305h-297z" />
<glyph unicode="&#xb2;" horiz-adv-x="819" d="M113 1388q113 139 286 139q131 0 208 -69.5t77 -175.5q0 -70 -34 -134.5t-109.5 -146.5t-223.5 -215h388l-17 -127h-551v119q172 166 246 244.5t105.5 134t31.5 112.5q0 61 -37 96t-96 35q-53 0 -92 -20.5t-82 -69.5z" />
<glyph unicode="&#xb3;" horiz-adv-x="819" d="M106 763l93 86q78 -84 184 -84q76 0 120 39t44 107q0 74 -42 105.5t-122 31.5h-70l19 115h47q66 0 106.5 33.5t40.5 95.5q0 53 -36.5 84t-98.5 31q-51 0 -94 -18.5t-86 -57.5l-82 90q119 106 274 106q132 0 206.5 -61.5t74.5 -153.5q0 -78 -47 -129t-129 -71 q90 -8 147.5 -61.5t57.5 -147.5q0 -113 -87 -187.5t-235 -74.5q-178 0 -285 122z" />
<glyph unicode="&#xb4;" horiz-adv-x="614" d="M61 1407l408 233l84 -157l-434 -176z" />
<glyph unicode="&#xb5;" horiz-adv-x="1204" d="M195 -436v1515h188v-760q0 -182 162 -182q164 0 264 197v745h188v-710q1 -205 54 -369l-177 -25q-23 53 -31.5 93.5t-17.5 105.5v2q-49 -86 -121.5 -143.5t-160.5 -57.5q-63 0 -116.5 24t-80.5 79q18 -57 26.5 -118.5t8.5 -156.5v-217z" />
<glyph unicode="&#xb6;" horiz-adv-x="1503" d="M184 993q0 199 135.5 307.5t368.5 108.5l529 2v-1825l-170 -26v1700h-234v-1674l-170 -26v1018q-231 12 -345 123.5t-114 291.5z" />
<glyph unicode="&#xb7;" horiz-adv-x="491" d="M102 637q0 59 41 100t101 41q61 0 102 -41t41 -100t-41 -101t-102 -42q-59 0 -100.5 42t-41.5 101z" />
<glyph unicode="&#xb8;" horiz-adv-x="563" d="M61 -444l52 106q61 -33 129 -33q47 0 74.5 19.5t27.5 62.5t-43 64.5t-139 21.5l28 236h121v-148q99 -8 145 -56t46 -118q0 -98 -72 -151.5t-182 -53.5q-57 0 -106.5 13.5t-80.5 36.5z" />
<glyph unicode="&#xb9;" horiz-adv-x="819" d="M133 1343l287 170h141v-854h-158v692l-200 -117z" />
<glyph unicode="&#xba;" horiz-adv-x="1024" d="M115 983q0 195 106.5 311.5t292.5 116.5q188 0 291.5 -113.5t103.5 -314.5q0 -195 -105.5 -311.5t-291.5 -116.5q-188 0 -292.5 114.5t-104.5 313.5zM127 0v158h770v-158h-770zM309 983q0 -287 203 -287t203 287q0 147 -50.5 217t-150.5 70q-205 0 -205 -287z" />
<glyph unicode="&#xbb;" horiz-adv-x="1159" d="M113 158l276 430l-276 430l112 78l359 -445v-129l-359 -442zM576 158l276 430l-276 430l112 78l359 -445v-129l-359 -442z" />
<glyph unicode="&#xbc;" horiz-adv-x="1908" d="M133 1241l287 170h141v-854h-158v692l-200 -116zM477 -100l834 1636l120 -59l-831 -1637zM1176 197v110l262 561l135 -51l-231 -498h217l14 216h140v-216h108v-122h-108v-197h-156v197h-381z" />
<glyph unicode="&#xbd;" horiz-adv-x="1908" d="M133 1241l287 170h141v-854h-158v692l-200 -116zM477 -100l834 1636l120 -59l-831 -1637zM1203 729q113 139 286 139q131 0 208 -69.5t77 -175.5q0 -70 -34 -134.5t-109.5 -146.5t-223.5 -215h388l-17 -127h-551v119q172 166 246 244.5t105.5 134t31.5 112.5q0 61 -37 96 t-96 35q-53 0 -92 -20.5t-82 -69.5z" />
<glyph unicode="&#xbe;" horiz-adv-x="1908" d="M106 662l93 86q78 -84 184 -84q76 0 120 38.5t44 106.5q0 74 -42 105.5t-122 31.5h-70l19 115h47q66 0 106.5 33.5t40.5 95.5q0 53 -36.5 84t-98.5 31q-51 0 -94 -18.5t-86 -57.5l-82 90q119 106 274 106q132 0 206.5 -61t74.5 -154q0 -78 -47 -129t-129 -71 q90 -8 147.5 -61.5t57.5 -147.5q0 -113 -87 -187.5t-235 -74.5q-178 0 -285 123zM477 -100l834 1636l120 -59l-831 -1637zM1176 197v110l262 561l135 -51l-231 -498h217l14 216h140v-216h108v-122h-108v-197h-156v197h-381z" />
<glyph unicode="&#xbf;" horiz-adv-x="940" d="M61 -121q0 82 28 138.5t69 91t106 79.5q84 57 126 105.5t42 128.5v84h186v-94q0 -86 -28.5 -145.5t-70.5 -95.5t-107 -79q-78 -53 -116 -94t-38 -107q0 -84 55.5 -130t151.5 -46q164 0 285 148l129 -101q-172 -203 -426 -202q-123 0 -212 44t-134.5 117.5t-45.5 157.5z M377 870q0 59 41 101.5t102 42.5q59 0 100.5 -42t41.5 -102q0 -59 -41 -100t-101 -41q-61 0 -102 41t-41 100z" />
<glyph unicode="&#xc0;" horiz-adv-x="1173" d="M12 0l453 1411h246l450 -1411h-205l-106 354h-535l-106 -354h-197zM321 1708l80 158l412 -219l-49 -101zM362 512h441l-219 737z" />
<glyph unicode="&#xc1;" horiz-adv-x="1173" d="M12 0l453 1411h246l450 -1411h-205l-106 354h-535l-106 -354h-197zM346 1647l410 219l82 -158l-442 -162zM362 512h441l-219 737z" />
<glyph unicode="&#xc2;" horiz-adv-x="1173" d="M12 0l453 1411h246l450 -1411h-205l-106 354h-535l-106 -354h-197zM247 1647l279 225h125l276 -225l-79 -93l-261 166l-258 -166zM362 512h441l-219 737z" />
<glyph unicode="&#xc3;" horiz-adv-x="1173" d="M12 0l453 1411h246l450 -1411h-205l-106 354h-535l-106 -354h-197zM245 1663q39 82 95.5 131t130.5 49q41 0 70.5 -14t70.5 -41q29 -23 50.5 -33t43.5 -10q31 0 55.5 21.5t53.5 68.5l114 -57q-39 -86 -95 -131t-122 -45q-45 0 -78.5 15t-72.5 44q-29 20 -49.5 29.5 t-42.5 9.5q-33 0 -57.5 -22.5t-51.5 -71.5zM362 512h441l-219 737z" />
<glyph unicode="&#xc4;" horiz-adv-x="1173" d="M12 0l453 1411h246l450 -1411h-205l-106 354h-535l-106 -354h-197zM254 1714q0 49 34 83t85 34q49 0 83 -34t34 -83t-34 -83t-83 -34q-51 0 -85 34t-34 83zM362 512h441l-219 737zM685 1714q0 49 33.5 83t82.5 34q51 0 85 -34t34 -83t-34 -83t-85 -34q-49 0 -82.5 34 t-33.5 83z" />
<glyph unicode="&#xc5;" horiz-adv-x="1173" d="M12 0l453 1411h246l450 -1411h-205l-106 354h-535l-106 -354h-197zM354 1753q0 92 66 154.5t168 62.5t167.5 -62.5t65.5 -154.5t-65.5 -154.5t-167.5 -62.5t-168 62.5t-66 154.5zM362 512h441l-219 737zM479 1753q0 -53 29 -84t80 -31q49 0 78.5 31t29.5 84t-28.5 84 t-79.5 31t-80 -31t-29 -84z" />
<glyph unicode="&#xc6;" horiz-adv-x="1671" d="M-25 0l562 1411h940l-23 -156h-633l115 -462h522v-156h-483l121 -481h465v-156h-623l-82 354h-549l-133 -354h-199zM367 512h452l-172 743z" />
<glyph unicode="&#xc7;" d="M113 707q0 231 77.5 396t211 249t296.5 84q127 0 214 -33t178 -107l-107 -125q-129 104 -272 105q-176 0 -284 -135t-108 -434q0 -291 106.5 -429.5t283.5 -138.5q90 0 155.5 31t143.5 88l98 -125q-55 -57 -141 -100t-195 -53v-95q98 -8 144.5 -56t46.5 -118 q0 -98 -72 -151.5t-182 -53.5q-57 0 -106.5 13.5t-80.5 36.5l51 106q61 -33 129 -33q47 0 75 19.5t28 62.5t-43 64.5t-139 21.5l22 180q-158 14 -277.5 103.5t-186 248t-66.5 378.5z" />
<glyph unicode="&#xc8;" horiz-adv-x="1095" d="M205 0v1411h764l-23 -156h-547v-460h475v-156h-475v-483h586v-156h-780zM327 1708l80 158l412 -219l-49 -101z" />
<glyph unicode="&#xc9;" horiz-adv-x="1095" d="M205 0v1411h764l-23 -156h-547v-460h475v-156h-475v-483h586v-156h-780zM352 1647l410 219l82 -158l-442 -162z" />
<glyph unicode="&#xca;" horiz-adv-x="1095" d="M205 0v1411h764l-23 -156h-547v-460h475v-156h-475v-483h586v-156h-780zM254 1647l279 225h125l276 -225l-79 -93l-261 166l-258 -166z" />
<glyph unicode="&#xcb;" horiz-adv-x="1095" d="M205 0v1411h764l-23 -156h-547v-460h475v-156h-475v-483h586v-156h-780zM260 1714q0 49 34 83t85 34q49 0 83 -34t34 -83t-34 -83t-83 -34q-51 0 -85 34t-34 83zM691 1714q0 49 33.5 83t82.5 34q51 0 85 -34t34 -83t-34 -83t-85 -34q-49 0 -82.5 34t-33.5 83z" />
<glyph unicode="&#xcc;" horiz-adv-x="606" d="M36 1708l80 158l412 -219l-49 -101zM205 0v1411h196v-1411h-196z" />
<glyph unicode="&#xcd;" horiz-adv-x="606" d="M61 1647l410 219l82 -158l-442 -162zM205 0v1411h196v-1411h-196z" />
<glyph unicode="&#xce;" horiz-adv-x="606" d="M-37 1647l279 225h125l276 -225l-79 -93l-261 166l-258 -166zM205 0v1411h196v-1411h-196z" />
<glyph unicode="&#xcf;" horiz-adv-x="606" d="M-31 1714q0 49 34 83t85 34q49 0 83 -34t34 -83t-34 -83t-83 -34q-51 0 -85 34t-34 83zM205 0v1411h196v-1411h-196zM400 1714q0 49 33.5 83t82.5 34q51 0 85 -34t34 -83t-34 -83t-85 -34q-49 0 -82.5 34t-33.5 83z" />
<glyph unicode="&#xd0;" horiz-adv-x="1343" d="M41 651v144h188v616h295q320 0 513.5 -148.5t193.5 -549.5q0 -391 -193.5 -552t-470.5 -161h-338v651h-188zM424 154h158q196 0 319 120.5t123 438.5q0 223 -63.5 343t-162 159.5t-231.5 39.5h-143v-460h321v-144h-321v-497z" />
<glyph unicode="&#xd1;" horiz-adv-x="1398" d="M205 0v1411h254l579 -1200q-6 53 -16 186t-10 244v770h182v-1411h-260l-574 1198q12 -141 19.5 -261t7.5 -290v-647h-182zM380 1663q39 82 95.5 131t130.5 49q41 0 70.5 -14t70.5 -41q29 -23 50.5 -33t43.5 -10q31 0 55.5 21.5t53.5 68.5l114 -57q-39 -86 -95 -131 t-122 -45q-45 0 -78.5 15t-72.5 44q-29 20 -49.5 29.5t-42.5 9.5q-33 0 -57.5 -22.5t-51.5 -71.5z" />
<glyph unicode="&#xd2;" horiz-adv-x="1417" d="M113 702q0 227 74.5 393.5t209.5 253.5t312 87q178 0 312 -85t209 -249t75 -397q0 -229 -75 -393.5t-209 -250.5t-312 -86t-312.5 84t-209 248t-74.5 395zM319 702q0 -293 103.5 -430t286.5 -137q389 0 389 570q0 571 -389 571q-185 0 -287.5 -139.5t-102.5 -434.5z M450 1708l80 158l412 -219l-49 -101z" />
<glyph unicode="&#xd3;" horiz-adv-x="1417" d="M113 702q0 227 74.5 393.5t209.5 253.5t312 87q178 0 312 -85t209 -249t75 -397q0 -229 -75 -393.5t-209 -250.5t-312 -86t-312.5 84t-209 248t-74.5 395zM319 702q0 -293 103.5 -430t286.5 -137q389 0 389 570q0 571 -389 571q-185 0 -287.5 -139.5t-102.5 -434.5z M475 1647l410 219l82 -158l-442 -162z" />
<glyph unicode="&#xd4;" horiz-adv-x="1417" d="M113 702q0 227 74.5 393.5t209.5 253.5t312 87q178 0 312 -85t209 -249t75 -397q0 -229 -75 -393.5t-209 -250.5t-312 -86t-312.5 84t-209 248t-74.5 395zM319 702q0 -293 103.5 -430t286.5 -137q389 0 389 570q0 571 -389 571q-185 0 -287.5 -139.5t-102.5 -434.5z M376 1647l279 225h125l276 -225l-79 -93l-261 166l-258 -166z" />
<glyph unicode="&#xd5;" horiz-adv-x="1417" d="M113 702q0 227 74.5 393.5t209.5 253.5t312 87q178 0 312 -85t209 -249t75 -397q0 -229 -75 -393.5t-209 -250.5t-312 -86t-312.5 84t-209 248t-74.5 395zM319 702q0 -293 103.5 -430t286.5 -137q389 0 389 570q0 571 -389 571q-185 0 -287.5 -139.5t-102.5 -434.5z M374 1663q39 82 95.5 131t130.5 49q41 0 70.5 -14t70.5 -41q29 -23 50.5 -33t43.5 -10q31 0 55.5 21.5t53.5 68.5l114 -57q-39 -86 -95 -131t-122 -45q-45 0 -78.5 15t-72.5 44q-29 20 -49.5 29.5t-42.5 9.5q-33 0 -57.5 -22.5t-51.5 -71.5z" />
<glyph unicode="&#xd6;" horiz-adv-x="1417" d="M113 702q0 227 74.5 393.5t209.5 253.5t312 87q178 0 312 -85t209 -249t75 -397q0 -229 -75 -393.5t-209 -250.5t-312 -86t-312.5 84t-209 248t-74.5 395zM319 702q0 -293 103.5 -430t286.5 -137q389 0 389 570q0 571 -389 571q-185 0 -287.5 -139.5t-102.5 -434.5z M383 1714q0 49 34 83t85 34q49 0 83 -34t34 -83t-34 -83t-83 -34q-51 0 -85 34t-34 83zM814 1714q0 49 33.5 83t82.5 34q51 0 85 -34t34 -83t-34 -83t-85 -34q-49 0 -82.5 34t-33.5 83z" />
<glyph unicode="&#xd7;" horiz-adv-x="1024" d="M147 379l250 250l-250 250l115 116l250 -252l250 252l115 -116l-250 -250l250 -250l-115 -115l-250 250l-250 -250z" />
<glyph unicode="&#xd8;" horiz-adv-x="1417" d="M113 702q0 227 74.5 393.5t209.5 253.5t312 87q76 0 135 -15l76 256l161 -43l-86 -268q148 -80 229 -249t81 -412q0 -229 -75 -393.5t-209 -250.5t-312 -86q-74 0 -138 15l-71 -250l-162 43l82 262q-145 82 -226 249t-81 408zM319 702q0 -379 168 -503l324 1067 q-55 10 -102 10q-185 0 -287.5 -139.5t-102.5 -434.5zM606 145q51 -10 103 -10q389 1 389 570q0 203 -43 327.5t-129 184.5z" />
<glyph unicode="&#xd9;" horiz-adv-x="1355" d="M184 453v958h195v-944q0 -164 73.5 -246t223.5 -82q152 0 225.5 81t73.5 247v944h196v-958q0 -142 -58 -249.5t-170 -168t-267 -60.5q-236 0 -364 130.5t-128 347.5zM411 1708l80 158l412 -219l-49 -101z" />
<glyph unicode="&#xda;" horiz-adv-x="1355" d="M184 453v958h195v-944q0 -164 73.5 -246t223.5 -82q152 0 225.5 81t73.5 247v944h196v-958q0 -142 -58 -249.5t-170 -168t-267 -60.5q-236 0 -364 130.5t-128 347.5zM436 1647l410 219l82 -158l-442 -162z" />
<glyph unicode="&#xdb;" horiz-adv-x="1355" d="M184 453v958h195v-944q0 -164 73.5 -246t223.5 -82q152 0 225.5 81t73.5 247v944h196v-958q0 -142 -58 -249.5t-170 -168t-267 -60.5q-236 0 -364 130.5t-128 347.5zM337 1647l279 225h125l276 -225l-79 -93l-261 166l-258 -166z" />
<glyph unicode="&#xdc;" horiz-adv-x="1355" d="M184 453v958h195v-944q0 -164 73.5 -246t223.5 -82q152 0 225.5 81t73.5 247v944h196v-958q0 -142 -58 -249.5t-170 -168t-267 -60.5q-236 0 -364 130.5t-128 347.5zM344 1714q0 49 34 83t85 34q49 0 83 -34t34 -83t-34 -83t-83 -34q-51 0 -85 34t-34 83zM775 1714 q0 49 33.5 83t82.5 34q51 0 85 -34t34 -83t-34 -83t-85 -34q-49 0 -82.5 34t-33.5 83z" />
<glyph unicode="&#xdd;" horiz-adv-x="1126" d="M10 1411h215l344 -698l344 698h203l-454 -868v-543h-197v541zM327 1647l410 219l82 -158l-442 -162z" />
<glyph unicode="&#xde;" horiz-adv-x="1189" d="M205 0v1411h194v-242h176q263 0 406 -110.5t143 -333.5q0 -238 -149.5 -351.5t-396.5 -113.5h-179v-260h-194zM399 414h170q172 0 260.5 67.5t88.5 241.5q0 158 -89.5 226.5t-255.5 68.5h-174v-604z" />
<glyph unicode="&#xdf;" horiz-adv-x="1214" d="M195 0v1104q0 205 107.5 318.5t303.5 113.5q113 0 196 -39t128 -105.5t45 -148.5q0 -84 -35 -133t-100 -102q-49 -41 -70.5 -68t-21.5 -66q0 -47 34.5 -81.5t106.5 -83.5q78 -53 126 -96.5t83 -113t35 -167.5q0 -106 -50.5 -187.5t-134.5 -125.5t-180 -44q-121 0 -209 48 l55 131q53 -27 136 -27q86 0 138 53t52 154q0 92 -48 149.5t-142 124.5q-92 66 -136.5 118t-44.5 134q0 68 29 107t88 88q53 45 81 82t28 96q0 76 -54.5 116t-136.5 40q-221 0 -221 -285v-1104h-188z" />
<glyph unicode="&#xe0;" horiz-adv-x="1114" d="M92 301q0 172 124 264t351 92h166v80q0 115 -55 164t-170 49q-119 0 -291 -57l-47 137q201 74 373 74q190 0 284.5 -93t94.5 -266v-493q0 -66 22.5 -97.5t67.5 -48.5l-43 -131q-84 10 -135.5 47t-75.5 115q-109 -162 -322 -162q-160 0 -252 90.5t-92 235.5zM293 311 q0 -96 47 -145t139 -49q162 0 254 168v247h-141q-299 0 -299 -221zM309 1483l84 157l408 -233l-57 -100z" />
<glyph unicode="&#xe1;" horiz-adv-x="1114" d="M92 301q0 172 124 264t351 92h166v80q0 115 -55 164t-170 49q-119 0 -291 -57l-47 137q201 74 373 74q190 0 284.5 -93t94.5 -266v-493q0 -66 22.5 -97.5t67.5 -48.5l-43 -131q-84 10 -135.5 47t-75.5 115q-109 -162 -322 -162q-160 0 -252 90.5t-92 235.5zM268 1407 l408 233l84 -157l-434 -176zM293 311q0 -96 47 -145t139 -49q162 0 254 168v247h-141q-299 0 -299 -221z" />
<glyph unicode="&#xe2;" horiz-adv-x="1114" d="M92 301q0 172 124 264t351 92h166v80q0 115 -55 164t-170 49q-119 0 -291 -57l-47 137q201 74 373 74q190 0 284.5 -93t94.5 -266v-493q0 -66 22.5 -97.5t67.5 -48.5l-43 -131q-84 10 -135.5 47t-75.5 115q-109 -162 -322 -162q-160 0 -252 90.5t-92 235.5zM194 1391 l277 231h125l278 -231l-82 -93l-258 172l-260 -172zM293 311q0 -96 47 -145t139 -49q162 0 254 168v247h-141q-299 0 -299 -221z" />
<glyph unicode="&#xe3;" horiz-adv-x="1114" d="M92 301q0 172 124 264t351 92h166v80q0 115 -55 164t-170 49q-119 0 -291 -57l-47 137q201 74 373 74q190 0 284.5 -93t94.5 -266v-493q0 -66 22.5 -97.5t67.5 -48.5l-43 -131q-84 10 -135.5 47t-75.5 115q-109 -162 -322 -162q-160 0 -252 90.5t-92 235.5zM192 1405 q39 82 95.5 131t130.5 49q41 0 70.5 -14.5t70.5 -40.5q29 -23 50.5 -33t43.5 -10q31 0 55.5 21.5t53.5 68.5l114 -57q-39 -86 -95 -131.5t-122 -45.5q-45 0 -78.5 15.5t-72.5 44.5q-29 20 -49.5 29.5t-42.5 9.5q-33 0 -57.5 -22.5t-51.5 -71.5zM293 311q0 -96 47 -145 t139 -49q162 0 254 168v247h-141q-299 0 -299 -221z" />
<glyph unicode="&#xe4;" horiz-adv-x="1114" d="M92 301q0 172 124 264t351 92h166v80q0 115 -55 164t-170 49q-119 0 -291 -57l-47 137q201 74 373 74q190 0 284.5 -93t94.5 -266v-493q0 -66 22.5 -97.5t67.5 -48.5l-43 -131q-84 10 -135.5 47t-75.5 115q-109 -162 -322 -162q-160 0 -252 90.5t-92 235.5zM200 1456 q0 49 34 83t85 34q49 0 83 -34t34 -83t-34 -83t-83 -34q-51 0 -85 34t-34 83zM293 311q0 -96 47 -145t139 -49q162 0 254 168v247h-141q-299 0 -299 -221zM631 1456q0 49 33.5 83t82.5 34q51 0 85 -34t34 -83t-34 -83t-85 -34q-49 0 -82.5 34t-33.5 83z" />
<glyph unicode="&#xe5;" horiz-adv-x="1114" d="M92 301q0 172 124 264t351 92h166v80q0 115 -55 164t-170 49q-119 0 -291 -57l-47 137q201 74 373 74q190 0 284.5 -93t94.5 -266v-493q0 -66 22.5 -97.5t67.5 -48.5l-43 -131q-84 10 -135.5 47t-75.5 115q-109 -162 -322 -162q-160 0 -252 90.5t-92 235.5zM293 311 q0 -96 47 -145t139 -49q162 0 254 168v247h-141q-299 0 -299 -221zM301 1495q0 92 66 154.5t168 62.5t167.5 -62.5t65.5 -154.5t-65.5 -154.5t-167.5 -62.5t-168 62.5t-66 154.5zM426 1495q0 -53 29 -84t80 -31q49 0 78.5 31t29.5 84t-28.5 84t-79.5 31t-80 -31t-29 -84z " />
<glyph unicode="&#xe6;" horiz-adv-x="1748" d="M92 301q0 172 127 264t354 92h166v80q0 115 -55 164t-170 49q-119 0 -291 -57l-47 137q199 74 373 74q233 0 321 -172q117 172 326 172t322.5 -141.5t113.5 -391.5q0 -47 -4 -96h-688q12 -178 90 -262t201 -84q78 0 143.5 22.5t136.5 71.5l82 -112q-172 -135 -376 -136 q-129 0 -228.5 51.5t-161.5 147.5q-74 -106 -166 -152.5t-219 -46.5q-162 0 -256 90.5t-94 235.5zM299 311q0 -96 47 -145t139 -49q86 0 155 45t130 143q-31 98 -31 221v6h-141q-299 0 -299 -221zM940 614h506v13q0 160 -63.5 243.5t-190.5 83.5q-231 0 -252 -340z" />
<glyph unicode="&#xe7;" horiz-adv-x="978" d="M117 530q0 172 57 301.5t162.5 201t251.5 71.5q96 0 176 -27.5t154 -89.5l-93 -123q-55 43 -108 63.5t-121 20.5q-131 0 -204 -104.5t-73 -308.5q0 -205 72 -302.5t205 -97.5q66 0 118 20.5t113 67.5l91 -129q-129 -105 -287 -117v-92q98 -8 144 -56t46 -118 q0 -98 -71.5 -151.5t-182.5 -53.5q-57 0 -106 13.5t-80 36.5l51 106q61 -33 129 -33q47 0 75 19.5t28 62.5t-43 64.5t-140 21.5l23 185q-182 29 -284.5 172t-102.5 376z" />
<glyph unicode="&#xe8;" horiz-adv-x="1126" d="M117 528q0 168 54 298t155.5 204t238.5 74q215 0 330 -141.5t115 -391.5q0 -47 -4 -96h-689q12 -178 90 -262t201 -84q78 0 143.5 22.5t137.5 71.5l82 -112q-172 -135 -377 -136q-225 0 -351 147.5t-126 405.5zM317 614h506v13q0 160 -63.5 243.5t-190.5 83.5 q-231 0 -252 -340zM346 1483l84 157l408 -233l-57 -100z" />
<glyph unicode="&#xe9;" horiz-adv-x="1126" d="M117 528q0 168 54 298t155.5 204t238.5 74q215 0 330 -141.5t115 -391.5q0 -47 -4 -96h-689q12 -178 90 -262t201 -84q78 0 143.5 22.5t137.5 71.5l82 -112q-172 -135 -377 -136q-225 0 -351 147.5t-126 405.5zM305 1407l408 233l84 -157l-434 -176zM317 614h506v13 q0 160 -63.5 243.5t-190.5 83.5q-231 0 -252 -340z" />
<glyph unicode="&#xea;" horiz-adv-x="1126" d="M117 528q0 168 54 298t155.5 204t238.5 74q215 0 330 -141.5t115 -391.5q0 -47 -4 -96h-689q12 -178 90 -262t201 -84q78 0 143.5 22.5t137.5 71.5l82 -112q-172 -135 -377 -136q-225 0 -351 147.5t-126 405.5zM231 1391l277 231h125l278 -231l-82 -93l-258 172 l-260 -172zM317 614h506v13q0 160 -63.5 243.5t-190.5 83.5q-231 0 -252 -340z" />
<glyph unicode="&#xeb;" horiz-adv-x="1126" d="M117 528q0 168 54 298t155.5 204t238.5 74q215 0 330 -141.5t115 -391.5q0 -47 -4 -96h-689q12 -178 90 -262t201 -84q78 0 143.5 22.5t137.5 71.5l82 -112q-172 -135 -377 -136q-225 0 -351 147.5t-126 405.5zM237 1456q0 49 34 83t85 34q49 0 83 -34t34 -83t-34 -83 t-83 -34q-51 0 -85 34t-34 83zM317 614h506v13q0 160 -63.5 243.5t-190.5 83.5q-231 0 -252 -340zM668 1456q0 49 33.5 83t82.5 34q51 0 85 -34t34 -83t-34 -83t-85 -34q-49 0 -82.5 34t-33.5 83z" />
<glyph unicode="&#xec;" horiz-adv-x="577" d="M63 1483l84 157l408 -233l-57 -100zM195 0v1079h188v-1079h-188z" />
<glyph unicode="&#xed;" horiz-adv-x="577" d="M22 1407l408 233l84 -157l-434 -176zM195 0v1079h188v-1079h-188z" />
<glyph unicode="&#xee;" horiz-adv-x="577" d="M-52 1391l277 231h125l278 -231l-82 -93l-258 172l-260 -172zM195 0v1079h188v-1079h-188z" />
<glyph unicode="&#xef;" horiz-adv-x="577" d="M-45 1456q0 49 34 83t85 34q49 0 83 -34t34 -83t-34 -83t-83 -34q-51 0 -85 34t-34 83zM195 0v1079h188v-1079h-188zM386 1456q0 49 33.5 83t82.5 34q51 0 85 -34t34 -83t-34 -83t-85 -34q-49 0 -82.5 34t-33.5 83z" />
<glyph unicode="&#xf0;" horiz-adv-x="1167" d="M117 481q0 127 46 240t139 182.5t226 69.5q186 0 301 -137q-25 129 -84 229t-159 178l-148 -139l-129 65l152 152q-111 47 -232 72l41 143q174 -35 305 -98l144 151l110 -96l-129 -133q185 -139 262.5 -335t77.5 -482q0 -170 -59 -298t-165.5 -199t-246.5 -71 q-127 0 -230 59.5t-162.5 174.5t-59.5 272zM309 489q0 -176 70 -270t188 -94q129 0 206 108.5t77 311.5q0 43 -4 121q-53 80 -124 119.5t-165 39.5q-248 0 -248 -336z" />
<glyph unicode="&#xf1;" horiz-adv-x="1200" d="M195 0v1079h161l17 -159q57 86 142 135t187 49q148 0 231 -88t83 -242v-774h-189v748q0 115 -43 161.5t-127 46.5q-86 0 -151.5 -49t-122.5 -141v-766h-188zM268 1405q39 82 95.5 131t130.5 49q41 0 70.5 -14.5t70.5 -40.5q29 -23 50.5 -33t43.5 -10q31 0 55.5 21.5 t53.5 68.5l114 -57q-39 -86 -95 -131.5t-122 -45.5q-45 0 -78.5 15.5t-72.5 44.5q-29 20 -49.5 29.5t-42.5 9.5q-33 0 -57.5 -22.5t-51.5 -71.5z" />
<glyph unicode="&#xf2;" horiz-adv-x="1196" d="M117 539q0 168 57 296t166 198.5t260 70.5q227 0 353 -151.5t126 -411.5q0 -168 -57 -296t-165.5 -199t-258.5 -71q-227 0 -354 152t-127 412zM319 539q0 -412 279 -412t279 414q0 412 -277 411q-281 1 -281 -413zM372 1483l84 157l408 -233l-57 -100z" />
<glyph unicode="&#xf3;" horiz-adv-x="1196" d="M117 539q0 168 57 296t166 198.5t260 70.5q227 0 353 -151.5t126 -411.5q0 -168 -57 -296t-165.5 -199t-258.5 -71q-227 0 -354 152t-127 412zM319 539q0 -412 279 -412t279 414q0 412 -277 411q-281 1 -281 -413zM331 1407l408 233l84 -157l-434 -176z" />
<glyph unicode="&#xf4;" horiz-adv-x="1196" d="M117 539q0 168 57 296t166 198.5t260 70.5q227 0 353 -151.5t126 -411.5q0 -168 -57 -296t-165.5 -199t-258.5 -71q-227 0 -354 152t-127 412zM258 1391l277 231h125l278 -231l-82 -93l-258 172l-260 -172zM319 539q0 -412 279 -412t279 414q0 412 -277 411 q-281 1 -281 -413z" />
<glyph unicode="&#xf5;" horiz-adv-x="1196" d="M117 539q0 168 57 296t166 198.5t260 70.5q227 0 353 -151.5t126 -411.5q0 -168 -57 -296t-165.5 -199t-258.5 -71q-227 0 -354 152t-127 412zM256 1405q39 82 95.5 131t130.5 49q41 0 70.5 -14.5t70.5 -40.5q29 -23 50.5 -33t43.5 -10q31 0 55.5 21.5t53.5 68.5l114 -57 q-39 -86 -95 -131.5t-122 -45.5q-45 0 -78.5 15.5t-72.5 44.5q-29 20 -49.5 29.5t-42.5 9.5q-33 0 -57.5 -22.5t-51.5 -71.5zM319 539q0 -412 279 -412t279 414q0 412 -277 411q-281 1 -281 -413z" />
<glyph unicode="&#xf6;" horiz-adv-x="1196" d="M117 539q0 168 57 296t166 198.5t260 70.5q227 0 353 -151.5t126 -411.5q0 -168 -57 -296t-165.5 -199t-258.5 -71q-227 0 -354 152t-127 412zM264 1456q0 49 34 83t85 34q49 0 83 -34t34 -83t-34 -83t-83 -34q-51 0 -85 34t-34 83zM319 539q0 -412 279 -412t279 414 q0 412 -277 411q-281 1 -281 -413zM695 1456q0 49 33.5 83t82.5 34q51 0 85 -34t34 -83t-34 -83t-85 -34q-49 0 -82.5 34t-33.5 83z" />
<glyph unicode="&#xf7;" horiz-adv-x="1024" d="M127 602v158h770v-158h-770zM370 215q0 59 41 100t101 41q61 0 102 -41t41 -100t-41 -101.5t-102 -42.5q-59 0 -100.5 42t-41.5 102zM370 1151q0 59 41 100t101 41q61 0 102 -41t41 -100t-41 -101.5t-102 -42.5q-59 0 -100.5 42t-41.5 102z" />
<glyph unicode="&#xf8;" horiz-adv-x="1196" d="M117 539q0 168 57 296t166 198.5t260 70.5q49 0 105 -10l79 249l154 -45l-86 -258q111 -67 169 -195t58 -304q0 -168 -57 -296t-165.5 -199t-258.5 -71q-49 0 -104 11l-80 -252l-154 45l86 260q-111 68 -170 197t-59 303zM319 539q0 -139 25 -226.5t76 -130.5l254 764 q-35 6 -74 6q-281 1 -281 -413zM526 133q33 -6 72 -6q279 0 279 414q0 264 -99 356z" />
<glyph unicode="&#xf9;" horiz-adv-x="1191" d="M184 305v774h189v-753q0 -111 39 -157t127 -46q158 0 270 186v770h188v-1079h-161l-15 168q-61 -100 -141 -146.5t-195 -46.5q-141 0 -221 86t-80 244zM366 1483l84 157l408 -233l-57 -100z" />
<glyph unicode="&#xfa;" horiz-adv-x="1191" d="M184 305v774h189v-753q0 -111 39 -157t127 -46q158 0 270 186v770h188v-1079h-161l-15 168q-61 -100 -141 -146.5t-195 -46.5q-141 0 -221 86t-80 244zM325 1407l408 233l84 -157l-434 -176z" />
<glyph unicode="&#xfb;" horiz-adv-x="1191" d="M184 305v774h189v-753q0 -111 39 -157t127 -46q158 0 270 186v770h188v-1079h-161l-15 168q-61 -100 -141 -146.5t-195 -46.5q-141 0 -221 86t-80 244zM251 1391l277 231h125l278 -231l-82 -93l-258 172l-260 -172z" />
<glyph unicode="&#xfc;" horiz-adv-x="1191" d="M184 305v774h189v-753q0 -111 39 -157t127 -46q158 0 270 186v770h188v-1079h-161l-15 168q-61 -100 -141 -146.5t-195 -46.5q-141 0 -221 86t-80 244zM258 1456q0 49 34 83t85 34q49 0 83 -34t34 -83t-34 -83t-83 -34q-51 0 -85 34t-34 83zM689 1456q0 49 33.5 83 t82.5 34q51 0 85 -34t34 -83t-34 -83t-85 -34q-49 0 -82.5 34t-33.5 83z" />
<glyph unicode="&#xfd;" horiz-adv-x="1007" d="M20 1079h201l289 -942l283 942h194l-360 -1085q-64 -189 -177.5 -298.5t-324.5 -131.5l-21 147q106 18 170 53t102 89.5t70 146.5h-63zM237 1407l408 233l84 -157l-434 -176z" />
<glyph unicode="&#xfe;" horiz-adv-x="1216" d="M195 -436v1949l188 23v-588q57 76 137 116t170 40q207 0 303.5 -147.5t96.5 -415.5q0 -254 -111 -410t-313 -156q-180 0 -283 123v-504zM383 260q41 -63 102.5 -97t135.5 -34q266 0 266 412q0 414 -244 413q-80 0 -145.5 -47t-114.5 -121v-526z" />
<glyph unicode="&#xff;" horiz-adv-x="1007" d="M20 1079h201l289 -942l283 942h194l-360 -1085q-64 -189 -177.5 -298.5t-324.5 -131.5l-21 147q106 18 170 53t102 89.5t70 146.5h-63zM170 1456q0 49 34 83t85 34q49 0 83 -34t34 -83t-34 -83t-83 -34q-51 0 -85 34t-34 83zM601 1456q0 49 33.5 83t82.5 34q51 0 85 -34 t34 -83t-34 -83t-85 -34q-49 0 -82.5 34t-33.5 83z" />
<glyph unicode="&#x100;" horiz-adv-x="1173" d="M12 0l453 1411h246l450 -1411h-205l-106 354h-535l-106 -354h-197zM307 1612v141h560v-141h-560zM362 512h441l-219 737z" />
<glyph unicode="&#x101;" horiz-adv-x="1114" d="M92 301q0 172 124 264t351 92h166v80q0 115 -55 164t-170 49q-119 0 -291 -57l-47 137q201 74 373 74q190 0 284.5 -93t94.5 -266v-493q0 -66 22.5 -97.5t67.5 -48.5l-43 -131q-84 10 -135.5 47t-75.5 115q-109 -162 -322 -162q-160 0 -252 90.5t-92 235.5zM254 1366v141 h560v-141h-560zM293 311q0 -96 47 -145t139 -49q162 0 254 168v247h-141q-299 0 -299 -221z" />
<glyph unicode="&#x102;" horiz-adv-x="1173" d="M12 0l453 1411h246l450 -1411h-205l-106 354h-535l-106 -354h-197zM276 1804l125 27q47 -135 183 -135q70 0 118 35.5t70 99.5l125 -27q-12 -113 -100 -182.5t-213 -69.5q-123 0 -209 70t-99 182zM362 512h441l-219 737z" />
<glyph unicode="&#x103;" horiz-adv-x="1114" d="M92 301q0 172 124 264t351 92h166v80q0 115 -55 164t-170 49q-119 0 -291 -57l-47 137q201 74 373 74q190 0 284.5 -93t94.5 -266v-493q0 -66 22.5 -97.5t67.5 -48.5l-43 -131q-84 10 -135.5 47t-75.5 115q-109 -162 -322 -162q-160 0 -252 90.5t-92 235.5zM223 1589 l125 27q43 -156 183 -156q145 0 188 156l125 -27q-12 -127 -99 -199.5t-214 -72.5q-125 0 -210 72.5t-98 199.5zM293 311q0 -96 47 -145t139 -49q162 0 254 168v247h-141q-299 0 -299 -221z" />
<glyph unicode="&#x104;" horiz-adv-x="1173" d="M12 0l453 1411h246l450 -1411h-82q-145 -63 -198.5 -117.5t-53.5 -115.5q0 -98 115 -99q55 0 125 15l-18 -144q-72 -14 -129 -14q-117 0 -186.5 58.5t-69.5 148.5q0 98 69.5 171.5t212.5 129.5l-96 321h-535l-106 -354h-197zM362 512h441l-219 737z" />
<glyph unicode="&#x105;" horiz-adv-x="1114" d="M92 301q0 172 124 264t351 92h166v80q0 115 -55 164t-170 49q-119 0 -291 -57l-47 137q201 74 373 74q190 0 284.5 -93t94.5 -266v-493q0 -66 22.5 -97.5t67.5 -48.5l-43 -131q-146 -63 -199 -117.5t-53 -115.5q0 -98 114 -98q55 0 125 14l-18 -143q-72 -14 -129 -15 q-117 0 -186.5 58.5t-69.5 148.5q0 100 72.5 175t222.5 130q-63 39 -90 125q-109 -162 -322 -162q-160 0 -252 90.5t-92 235.5zM293 311q0 -96 47 -145t139 -49q162 0 254 168v247h-141q-299 0 -299 -221z" />
<glyph unicode="&#x106;" d="M113 707q0 231 77.5 396t211 249t296.5 84q127 0 214 -33t178 -107l-107 -125q-129 104 -272 105q-176 0 -284 -135t-108 -434q0 -291 106.5 -429.5t283.5 -138.5q90 0 155.5 31t143.5 88l98 -125q-63 -68 -166.5 -113t-237.5 -45q-172 0 -306 85t-208.5 250t-74.5 397z M469 1647l410 219l82 -158l-442 -162z" />
<glyph unicode="&#x107;" horiz-adv-x="978" d="M117 530q0 172 57 301.5t162.5 201t251.5 71.5q96 0 176 -27.5t154 -89.5l-93 -123q-55 43 -108 63.5t-121 20.5q-131 0 -204 -104.5t-73 -308.5q0 -205 72 -302.5t205 -97.5q66 0 118 20.5t113 67.5l91 -129q-147 -119 -330 -119q-219 0 -345 147.5t-126 407.5z M325 1407l408 233l84 -157l-434 -176z" />
<glyph unicode="&#x108;" d="M113 707q0 231 77.5 396t211 249t296.5 84q127 0 214 -33t178 -107l-107 -125q-129 104 -272 105q-176 0 -284 -135t-108 -434q0 -291 106.5 -429.5t283.5 -138.5q90 0 155.5 31t143.5 88l98 -125q-63 -68 -166.5 -113t-237.5 -45q-172 0 -306 85t-208.5 250t-74.5 397z M370 1647l279 225h125l276 -225l-79 -93l-261 166l-258 -166z" />
<glyph unicode="&#x109;" horiz-adv-x="978" d="M117 530q0 172 57 301.5t162.5 201t251.5 71.5q96 0 176 -27.5t154 -89.5l-93 -123q-55 43 -108 63.5t-121 20.5q-131 0 -204 -104.5t-73 -308.5q0 -205 72 -302.5t205 -97.5q66 0 118 20.5t113 67.5l91 -129q-147 -119 -330 -119q-219 0 -345 147.5t-126 407.5z M251 1391l277 231h125l278 -231l-82 -93l-258 172l-260 -172z" />
<glyph unicode="&#x10a;" d="M113 707q0 231 77.5 396t211 249t296.5 84q127 0 214 -33t178 -107l-107 -125q-129 104 -272 105q-176 0 -284 -135t-108 -434q0 -291 106.5 -429.5t283.5 -138.5q90 0 155.5 31t143.5 88l98 -125q-63 -68 -166.5 -113t-237.5 -45q-172 0 -306 85t-208.5 250t-74.5 397z M577 1726q0 55 37 92t95 37q59 0 96 -36.5t37 -92.5q0 -55 -37 -91t-96 -36q-57 0 -94.5 36t-37.5 91z" />
<glyph unicode="&#x10b;" horiz-adv-x="978" d="M117 530q0 172 57 301.5t162.5 201t251.5 71.5q96 0 176 -27.5t154 -89.5l-93 -123q-55 43 -108 63.5t-121 20.5q-131 0 -204 -104.5t-73 -308.5q0 -205 72 -302.5t205 -97.5q66 0 118 20.5t113 67.5l91 -129q-147 -119 -330 -119q-219 0 -345 147.5t-126 407.5z M458 1468q0 55 37 92t95 37q59 0 96 -36.5t37 -92.5q0 -55 -37 -91t-96 -36q-57 0 -94.5 36t-37.5 91z" />
<glyph unicode="&#x10c;" d="M113 707q0 231 77.5 396t211 249t296.5 84q127 0 214 -33t178 -107l-107 -125q-129 104 -272 105q-176 0 -284 -135t-108 -434q0 -291 106.5 -429.5t283.5 -138.5q90 0 155.5 31t143.5 88l98 -125q-63 -68 -166.5 -113t-237.5 -45q-172 0 -306 85t-208.5 250t-74.5 397z M370 1769l82 93l258 -166l261 166l79 -93l-276 -225h-125z" />
<glyph unicode="&#x10d;" horiz-adv-x="978" d="M117 530q0 172 57 301.5t162.5 201t251.5 71.5q96 0 176 -27.5t154 -89.5l-93 -123q-55 43 -108 63.5t-121 20.5q-131 0 -204 -104.5t-73 -308.5q0 -205 72 -302.5t205 -97.5q66 0 118 20.5t113 67.5l91 -129q-147 -119 -330 -119q-219 0 -345 147.5t-126 407.5z M251 1516l82 92l258 -172l261 172l79 -92l-276 -232h-125z" />
<glyph unicode="&#x10e;" horiz-adv-x="1318" d="M205 0v1411h295q319 0 512.5 -148.5t193.5 -549.5q0 -391 -193.5 -552t-469.5 -161h-338zM280 1769l82 93l258 -166l261 166l79 -93l-276 -225h-125zM399 154h158q197 0 319.5 120.5t122.5 438.5q0 223 -63.5 343t-161.5 159.5t-231 39.5h-144v-1101z" />
<glyph unicode="&#x10f;" horiz-adv-x="1345" d="M127 535q0 166 51 294.5t147.5 201.5t225.5 73q166 0 291 -133v565l188 -23v-1513h-166l-18 150q-53 -82 -133 -128.5t-178 -46.5q-193 0 -300.5 152t-107.5 408zM330 539q0 -209 63.5 -311.5t181.5 -102.5q87 0 148 40t119 120v528q-53 70 -113.5 105.5t-136.5 35.5 q-125 0 -193.5 -104.5t-68.5 -310.5zM1137 1153l33 381l170 -21l-94 -377z" />
<glyph unicode="&#x110;" horiz-adv-x="1343" d="M41 651v144h188v616h295q320 0 513.5 -148.5t193.5 -549.5q0 -391 -193.5 -552t-470.5 -161h-338v651h-188zM424 154h158q196 0 319 120.5t123 438.5q0 223 -63.5 343t-162 159.5t-231.5 39.5h-143v-460h321v-144h-321v-497z" />
<glyph unicode="&#x111;" horiz-adv-x="1243" d="M127 535q0 166 51 294.5t147.5 201.5t225.5 73q166 0 291 -133v270h-314l-20 143h334v152l188 -23v-129h162v-143h-162v-1241h-166l-18 150q-53 -82 -133 -128.5t-178 -46.5q-193 0 -300.5 152t-107.5 408zM330 539q0 -209 63.5 -311.5t181.5 -102.5q87 0 148 40t119 120 v528q-53 70 -113.5 105.5t-136.5 35.5q-125 0 -193.5 -104.5t-68.5 -310.5z" />
<glyph unicode="&#x112;" horiz-adv-x="1095" d="M205 0v1411h764l-23 -156h-547v-460h475v-156h-475v-483h586v-156h-780zM313 1612v141h560v-141h-560z" />
<glyph unicode="&#x113;" horiz-adv-x="1126" d="M117 528q0 168 54 298t155.5 204t238.5 74q215 0 330 -141.5t115 -391.5q0 -47 -4 -96h-689q12 -178 90 -262t201 -84q78 0 143.5 22.5t137.5 71.5l82 -112q-172 -135 -377 -136q-225 0 -351 147.5t-126 405.5zM290 1366v141h560v-141h-560zM317 614h506v13 q0 160 -63.5 243.5t-190.5 83.5q-231 0 -252 -340z" />
<glyph unicode="&#x114;" horiz-adv-x="1095" d="M205 0v1411h764l-23 -156h-547v-460h475v-156h-475v-483h586v-156h-780zM282 1804l125 27q47 -135 183 -135q70 0 118 35.5t70 99.5l125 -27q-12 -113 -100 -182.5t-213 -69.5q-123 0 -209 70t-99 182z" />
<glyph unicode="&#x115;" horiz-adv-x="1126" d="M117 528q0 168 54 298t155.5 204t238.5 74q215 0 330 -141.5t115 -391.5q0 -47 -4 -96h-689q12 -178 90 -262t201 -84q78 0 143.5 22.5t137.5 71.5l82 -112q-172 -135 -377 -136q-225 0 -351 147.5t-126 405.5zM260 1589l125 27q43 -156 183 -156q145 0 188 156l125 -27 q-12 -127 -99 -199.5t-214 -72.5q-125 0 -210 72.5t-98 199.5zM317 614h506v13q0 160 -63.5 243.5t-190.5 83.5q-231 0 -252 -340z" />
<glyph unicode="&#x116;" horiz-adv-x="1095" d="M205 0v1411h764l-23 -156h-547v-460h475v-156h-475v-483h586v-156h-780zM460 1726q0 55 37 92t95 37q59 0 96 -36.5t37 -92.5q0 -55 -37 -91t-96 -36q-57 0 -94.5 36t-37.5 91z" />
<glyph unicode="&#x117;" horiz-adv-x="1126" d="M117 528q0 168 54 298t155.5 204t238.5 74q215 0 330 -141.5t115 -391.5q0 -47 -4 -96h-689q12 -178 90 -262t201 -84q78 0 143.5 22.5t137.5 71.5l82 -112q-172 -135 -377 -136q-225 0 -351 147.5t-126 405.5zM317 614h506v13q0 160 -63.5 243.5t-190.5 83.5 q-231 0 -252 -340zM438 1468q0 55 37 92t95 37q59 0 96 -36.5t37 -92.5q0 -55 -37 -91t-96 -36q-57 0 -94.5 36t-37.5 91z" />
<glyph unicode="&#x118;" horiz-adv-x="1095" d="M205 0v1411h764l-23 -156h-547v-460h475v-156h-475v-483h586v-156h-82q-145 -63 -198.5 -117.5t-53.5 -115.5q0 -98 115 -99q55 0 125 15l-19 -144q-72 -14 -129 -14q-117 0 -186.5 58.5t-69.5 148.5q0 84 51.5 149.5t155.5 118.5h-489z" />
<glyph unicode="&#x119;" horiz-adv-x="1126" d="M117 528q0 168 54 298t155.5 204t238.5 74q215 0 330 -141.5t115 -391.5q0 -47 -4 -96h-689q12 -178 90 -262t201 -84q78 0 143.5 22.5t137.5 71.5l82 -112q-90 -72 -191 -107q-135 -59 -185 -112.5t-50 -112.5q0 -98 114 -98q55 0 125 14l-18 -144q-72 -14 -129 -14 q-117 0 -186.5 58.5t-69.5 148.5q0 147 170 233q-205 14 -319.5 160t-114.5 391zM317 614h506v13q0 160 -63.5 243.5t-190.5 83.5q-231 0 -252 -340z" />
<glyph unicode="&#x11a;" horiz-adv-x="1095" d="M205 0v1411h764l-23 -156h-547v-460h475v-156h-475v-483h586v-156h-780zM254 1769l82 93l258 -166l261 166l79 -93l-276 -225h-125z" />
<glyph unicode="&#x11b;" horiz-adv-x="1126" d="M117 528q0 168 54 298t155.5 204t238.5 74q215 0 330 -141.5t115 -391.5q0 -47 -4 -96h-689q12 -178 90 -262t201 -84q78 0 143.5 22.5t137.5 71.5l82 -112q-172 -135 -377 -136q-225 0 -351 147.5t-126 405.5zM231 1516l82 92l258 -172l261 172l79 -92l-276 -232h-125z M317 614h506v13q0 160 -63.5 243.5t-190.5 83.5q-231 0 -252 -340z" />
<glyph unicode="&#x11c;" horiz-adv-x="1292" d="M113 707q0 229 84 394t223 250t301 85q137 0 234.5 -38t193.5 -118l-115 -119q-76 61 -145.5 88t-163.5 27q-109 0 -200 -58.5t-148.5 -186.5t-57.5 -324q0 -297 97.5 -434.5t288.5 -137.5q158 0 268 66v424h-250l-23 157h465v-682q-102 -61 -218 -93t-257 -32 q-268 0 -422.5 186.5t-154.5 545.5zM387 1647l279 225h125l276 -225l-79 -93l-261 166l-258 -166z" />
<glyph unicode="&#x11d;" horiz-adv-x="1064" d="M51 -109h170q0 -66 24.5 -103.5t88 -57t180.5 -19.5q170 0 242.5 42t72.5 126q0 76 -57 115t-160 39h-170q-137 0 -207.5 58.5t-70.5 146.5q0 53 30.5 102t88.5 88q-94 49 -138.5 122t-44.5 177q0 109 54.5 195t149.5 134t212 48q127 -2 213 9t142.5 30.5t138.5 56.5 l55 -170q-61 -20 -135 -26.5t-180 -6.5q190 -86 190 -272q0 -162 -110.5 -264.5t-301.5 -102.5q-74 0 -137 21q-25 -16 -39 -44t-14 -56q0 -88 141 -89h172q109 0 193 -38.5t130 -106.5t46 -154q0 -158 -129 -242.5t-377 -84.5q-174 0 -275.5 35.5t-144.5 107.5t-43 184z M186 1391l277 231h125l278 -231l-82 -93l-258 172l-260 -172zM293 727q0 -111 59.5 -177.5t167.5 -66.5q111 0 169.5 64.5t58.5 181.5q0 240 -232 240q-106 0 -164.5 -66.5t-58.5 -175.5z" />
<glyph unicode="&#x11e;" horiz-adv-x="1292" d="M113 707q0 229 84 394t223 250t301 85q137 0 234.5 -38t193.5 -118l-115 -119q-76 61 -145.5 88t-163.5 27q-109 0 -200 -58.5t-148.5 -186.5t-57.5 -324q0 -297 97.5 -434.5t288.5 -137.5q158 0 268 66v424h-250l-23 157h465v-682q-102 -61 -218 -93t-257 -32 q-268 0 -422.5 186.5t-154.5 545.5zM415 1804l125 27q47 -135 183 -135q70 0 118 35.5t70 99.5l125 -27q-12 -113 -100 -182.5t-213 -69.5q-123 0 -209 70t-99 182z" />
<glyph unicode="&#x11f;" horiz-adv-x="1064" d="M51 -109h170q0 -66 24.5 -103.5t88 -57t180.5 -19.5q170 0 242.5 42t72.5 126q0 76 -57 115t-160 39h-170q-137 0 -207.5 58.5t-70.5 146.5q0 53 30.5 102t88.5 88q-94 49 -138.5 122t-44.5 177q0 109 54.5 195t149.5 134t212 48q127 -2 213 9t142.5 30.5t138.5 56.5 l55 -170q-61 -20 -135 -26.5t-180 -6.5q190 -86 190 -272q0 -162 -110.5 -264.5t-301.5 -102.5q-74 0 -137 21q-25 -16 -39 -44t-14 -56q0 -88 141 -89h172q109 0 193 -38.5t130 -106.5t46 -154q0 -158 -129 -242.5t-377 -84.5q-174 0 -275.5 35.5t-144.5 107.5t-43 184z M215 1589l125 27q43 -156 183 -156q145 0 188 156l125 -27q-12 -127 -99 -199.5t-214 -72.5q-125 0 -210 72.5t-98 199.5zM293 727q0 -111 59.5 -177.5t167.5 -66.5q111 0 169.5 64.5t58.5 181.5q0 240 -232 240q-106 0 -164.5 -66.5t-58.5 -175.5z" />
<glyph unicode="&#x120;" horiz-adv-x="1292" d="M113 707q0 229 84 394t223 250t301 85q137 0 234.5 -38t193.5 -118l-115 -119q-76 61 -145.5 88t-163.5 27q-109 0 -200 -58.5t-148.5 -186.5t-57.5 -324q0 -297 97.5 -434.5t288.5 -137.5q158 0 268 66v424h-250l-23 157h465v-682q-102 -61 -218 -93t-257 -32 q-268 0 -422.5 186.5t-154.5 545.5zM593 1726q0 55 37 92t95 37q59 0 96 -36.5t37 -92.5q0 -55 -37 -91t-96 -36q-57 0 -94.5 36t-37.5 91z" />
<glyph unicode="&#x121;" horiz-adv-x="1064" d="M51 -109h170q0 -66 24.5 -103.5t88 -57t180.5 -19.5q170 0 242.5 42t72.5 126q0 76 -57 115t-160 39h-170q-137 0 -207.5 58.5t-70.5 146.5q0 53 30.5 102t88.5 88q-94 49 -138.5 122t-44.5 177q0 109 54.5 195t149.5 134t212 48q127 -2 213 9t142.5 30.5t138.5 56.5 l55 -170q-61 -20 -135 -26.5t-180 -6.5q190 -86 190 -272q0 -162 -110.5 -264.5t-301.5 -102.5q-74 0 -137 21q-25 -16 -39 -44t-14 -56q0 -88 141 -89h172q109 0 193 -38.5t130 -106.5t46 -154q0 -158 -129 -242.5t-377 -84.5q-174 0 -275.5 35.5t-144.5 107.5t-43 184z M293 727q0 -111 59.5 -177.5t167.5 -66.5q111 0 169.5 64.5t58.5 181.5q0 240 -232 240q-106 0 -164.5 -66.5t-58.5 -175.5zM393 1468q0 55 37 92t95 37q59 0 96 -36.5t37 -92.5q0 -55 -37 -91t-96 -36q-57 0 -94.5 36t-37.5 91z" />
<glyph unicode="&#x122;" horiz-adv-x="1292" d="M113 707q0 229 84 394t223 250t301 85q137 0 234.5 -38t193.5 -118l-115 -119q-76 61 -145.5 88t-163.5 27q-109 0 -200 -58.5t-148.5 -186.5t-57.5 -324q0 -297 97.5 -434.5t288.5 -137.5q158 0 268 66v424h-250l-23 157h465v-682q-102 -61 -218 -93t-257 -32 q-268 0 -422.5 186.5t-154.5 545.5zM579 -606l60 237q-49 43 -49 97q0 49 34.5 81.5t83.5 32.5q50 0 83.5 -32.5t33.5 -81.5q0 -27 -11 -60t-42 -98l-84 -176h-109z" />
<glyph unicode="&#x123;" horiz-adv-x="1064" d="M51 -109h170q0 -66 24.5 -103.5t88 -57t180.5 -19.5q170 0 242.5 42t72.5 126q0 76 -57 115t-160 39h-170q-137 0 -207.5 58.5t-70.5 146.5q0 53 30.5 102t88.5 88q-94 49 -138.5 122t-44.5 177q0 109 54.5 195t149.5 134t212 48q127 -2 213 9t142.5 30.5t138.5 56.5 l55 -170q-61 -20 -135 -26.5t-180 -6.5q190 -86 190 -272q0 -162 -110.5 -264.5t-301.5 -102.5q-74 0 -137 21q-25 -16 -39 -44t-14 -56q0 -88 141 -89h172q109 0 193 -38.5t130 -106.5t46 -154q0 -158 -129 -242.5t-377 -84.5q-174 0 -275.5 35.5t-144.5 107.5t-43 184z M293 727q0 -111 59.5 -177.5t167.5 -66.5q111 0 169.5 64.5t58.5 181.5q0 240 -232 240q-106 0 -164.5 -66.5t-58.5 -175.5zM404 1351q0 27 11 60t42 98l84 176h109l-60 -237q49 -43 49 -97q0 -49 -34.5 -81.5t-83.5 -32.5q-50 0 -83.5 32.5t-33.5 81.5z" />
<glyph unicode="&#x124;" horiz-adv-x="1392" d="M205 0v1411h194v-590h594v590h195v-1411h-195v662h-594v-662h-194zM356 1647l279 225h125l276 -225l-79 -93l-261 166l-258 -166z" />
<glyph unicode="&#x125;" horiz-adv-x="1200" d="M195 0v1511l188 21v-602q127 174 319 174q148 0 231 -88t83 -242v-774h-189v748q0 115 -44 161.5t-128 46.5t-149.5 -49t-122.5 -139v-768h-188zM258 1749l279 225h125l276 -225l-79 -93l-261 166l-258 -166z" />
<glyph unicode="&#x126;" horiz-adv-x="1409" d="M72 1040v142h141v229h195v-229h593v229h195v-229h141v-142h-141v-1040h-195v662h-593v-662h-195v1040h-141zM408 821h593v219h-593v-219z" />
<glyph unicode="&#x127;" horiz-adv-x="1212" d="M51 1241v143h156v127l188 21v-148h320l-21 -143h-299v-311q127 174 320 174q147 0 230 -88t83 -242v-774h-188v748q0 115 -44 161.5t-128 46.5t-149.5 -49t-123.5 -139v-768h-188v1241h-156z" />
<glyph unicode="&#x128;" horiz-adv-x="606" d="M-39 1663q39 82 95.5 131t130.5 49q41 0 70.5 -14t70.5 -41q29 -23 50.5 -33t43.5 -10q31 0 55.5 21.5t53.5 68.5l114 -57q-39 -86 -95 -131t-122 -45q-45 0 -78.5 15t-72.5 44q-29 20 -49.5 29.5t-42.5 9.5q-33 0 -57.5 -22.5t-51.5 -71.5zM205 0v1411h196v-1411h-196z " />
<glyph unicode="&#x129;" horiz-adv-x="577" d="M-54 1405q39 82 95.5 131t130.5 49q41 0 70.5 -14.5t70.5 -40.5q29 -23 50.5 -33t43.5 -10q31 0 55.5 21.5t53.5 68.5l114 -57q-39 -86 -95 -131.5t-122 -45.5q-45 0 -78.5 15.5t-72.5 44.5q-29 20 -49.5 29.5t-42.5 9.5q-33 0 -57.5 -22.5t-51.5 -71.5zM195 0v1079h188 v-1079h-188z" />
<glyph unicode="&#x12a;" horiz-adv-x="606" d="M22 1612v141h560v-141h-560zM205 0v1411h196v-1411h-196z" />
<glyph unicode="&#x12b;" horiz-adv-x="577" d="M8 1366v141h560v-141h-560zM195 0v1079h188v-1079h-188z" />
<glyph unicode="&#x12c;" horiz-adv-x="606" d="M-9 1804l125 27q47 -135 183 -135q70 0 118 35.5t70 99.5l125 -27q-12 -113 -100 -182.5t-213 -69.5q-123 0 -209 70t-99 182zM205 0v1411h196v-1411h-196z" />
<glyph unicode="&#x12d;" horiz-adv-x="577" d="M-23 1589l125 27q43 -156 183 -156q145 0 188 156l125 -27q-12 -127 -99 -199.5t-214 -72.5q-125 0 -210 72.5t-98 199.5zM195 0v1079h188v-1079h-188z" />
<glyph unicode="&#x12e;" horiz-adv-x="606" d="M-14 -268q0 86 53 153.5t166 120.5v1405h196v-1411q-145 -63 -198 -117.5t-53 -115.5q0 -98 114 -99q55 0 125 15l-18 -144q-72 -14 -129 -14q-117 0 -186.5 58.5t-69.5 148.5z" />
<glyph unicode="&#x12f;" horiz-adv-x="577" d="M-33 -268q0 88 56.5 156.5t171.5 121.5v1069h188v-1079q-145 -63 -198.5 -117.5t-53.5 -115.5q0 -98 115 -99q55 0 125 15l-19 -144q-72 -14 -129 -14q-117 0 -186.5 58.5t-69.5 148.5zM156 1468q0 55 36.5 92t94.5 37q59 0 96 -36.5t37 -92.5q0 -55 -37 -91t-96 -36 q-57 0 -94 36t-37 91z" />
<glyph unicode="&#x130;" horiz-adv-x="606" d="M170 1726q0 55 37 92t95 37q59 0 96 -36.5t37 -92.5q0 -55 -37 -91t-96 -36q-57 0 -94.5 36t-37.5 91zM205 0v1411h196v-1411h-196z" />
<glyph unicode="&#x131;" horiz-adv-x="577" d="M195 0v1079h188v-1079h-188z" />
<glyph unicode="&#x132;" horiz-adv-x="1230" d="M205 0v1411h196v-1411h-196zM616 -139q94 37 141.5 80t66 104t18.5 160v1206h194v-1214q0 -209 -91 -313.5t-278 -164.5z" />
<glyph unicode="&#x133;" horiz-adv-x="1150" d="M156 1468q0 55 36.5 92t94.5 37q59 0 96 -36.5t37 -92.5q0 -55 -37 -91t-96 -36q-57 0 -94 36t-37 91zM195 0v1079h188v-1079h-188zM559 -297q80 37 123 73t64.5 100.5t21.5 176.5v1026h188v-1013q0 -150 -36.5 -240t-107.5 -146.5t-198 -113.5z" />
<glyph unicode="&#x134;" horiz-adv-x="624" d="M-7 1647l279 225h125l276 -225l-79 -93l-261 166l-258 -166zM10 -139q94 37 141.5 80t66 104t18.5 160v1206h194v-1214q0 -209 -91 -313.5t-278 -164.5z" />
<glyph unicode="&#x135;" horiz-adv-x="573" d="M-54 1391l277 231h125l278 -231l-82 -93l-258 172l-260 -172zM-18 -297q80 37 122.5 73t64 100.5t21.5 176.5v1026h189v-1013q0 -150 -37 -240t-107.5 -146.5t-197.5 -113.5z" />
<glyph unicode="&#x136;" horiz-adv-x="1206" d="M205 0v1411h194v-1411h-194zM410 754l536 657h221l-534 -645l573 -766h-239zM522 -606l60 237q-49 43 -49 97q0 49 34.5 81.5t83.5 32.5q50 0 83.5 -32.5t33.5 -81.5q0 -27 -11 -60t-42 -98l-84 -176h-109z" />
<glyph unicode="&#x137;" horiz-adv-x="1048" d="M195 0v1513l188 23v-1536h-188zM395 590l398 489h211l-398 -477l443 -602h-226zM399 -606l60 237q-49 43 -49 97q0 49 34.5 81.5t83.5 32.5q50 0 83.5 -32.5t33.5 -81.5q0 -27 -11 -60t-42 -98l-84 -176h-109z" />
<glyph unicode="&#x138;" horiz-adv-x="1042" d="M195 0v1079h188v-1079h-188zM389 569l397 510h211l-397 -497l442 -582h-225z" />
<glyph unicode="&#x139;" horiz-adv-x="1019" d="M61 1647l410 219l82 -158l-442 -162zM205 0v1411h194v-1241h580l-23 -170h-751z" />
<glyph unicode="&#x13a;" horiz-adv-x="600" d="M36 1749l410 219l82 -158l-442 -162zM184 213v1300l189 23v-1319q0 -45 15 -65.5t52 -20.5q39 0 70 12l49 -131q-76 -37 -160 -37q-104 0 -159.5 60.5t-55.5 177.5z" />
<glyph unicode="&#x13b;" horiz-adv-x="1019" d="M205 0v1411h194v-1241h580l-23 -170h-751zM458 -606l60 237q-49 43 -49 97q0 49 34.5 81.5t83.5 32.5q50 0 83.5 -32.5t33.5 -81.5q0 -27 -11 -60t-42 -98l-84 -176h-109z" />
<glyph unicode="&#x13c;" horiz-adv-x="600" d="M178 -606l60 237q-49 43 -49 97q0 49 34.5 81.5t83.5 32.5q50 0 83.5 -32.5t33.5 -81.5q0 -27 -11 -60t-42 -98l-84 -176h-109zM184 213v1300l189 23v-1319q0 -45 15 -65.5t52 -20.5q39 0 70 12l49 -131q-76 -37 -160 -37q-104 0 -159.5 60.5t-55.5 177.5z" />
<glyph unicode="&#x13d;" horiz-adv-x="1019" d="M205 0v1411h194v-1241h580l-23 -170h-751zM516 1051l33 381l170 -21l-94 -377z" />
<glyph unicode="&#x13e;" horiz-adv-x="600" d="M184 213v1300l189 23v-1319q0 -45 15 -65.5t52 -20.5q39 0 70 12l49 -131q-76 -37 -160 -37q-104 0 -159.5 60.5t-55.5 177.5zM489 1153l33 381l170 -21l-94 -377z" />
<glyph unicode="&#x13f;" horiz-adv-x="1019" d="M205 0v1411h194v-1241h580l-23 -170h-751zM667 792q0 55 37 92t95 37q59 0 96 -36.5t37 -92.5q0 -55 -37 -91t-96 -36q-57 0 -94.5 36t-37.5 91z" />
<glyph unicode="&#x140;" horiz-adv-x="690" d="M184 213v1300l189 23v-1319q0 -45 15 -65.5t52 -20.5q39 0 70 12l49 -131q-76 -37 -160 -37q-104 0 -159.5 60.5t-55.5 177.5zM477 772q0 55 37 92t95 37q59 0 96 -36.5t37 -92.5q0 -55 -37 -91t-96 -36q-57 0 -94.5 36t-37.5 91z" />
<glyph unicode="&#x141;" horiz-adv-x="1052" d="M45 578l193 118v715h194v-594l328 203l78 -123l-406 -252v-475h580l-23 -170h-751v526l-115 -71z" />
<glyph unicode="&#x142;" horiz-adv-x="618" d="M29 698l170 105v710l188 23v-618l143 88l64 -136l-207 -127v-526q0 -43 15.5 -64.5t52.5 -21.5q38 0 69 12l49 -131q-78 -37 -159 -37q-104 0 -159.5 60.5t-55.5 177.5v416l-107 -66z" />
<glyph unicode="&#x143;" horiz-adv-x="1398" d="M205 0v1411h254l579 -1200q-6 53 -16 186t-10 244v770h182v-1411h-260l-574 1198q12 -141 19.5 -261t7.5 -290v-647h-182zM481 1647l410 219l82 -158l-442 -162z" />
<glyph unicode="&#x144;" horiz-adv-x="1200" d="M195 0v1079h161l17 -159q57 86 142 135t187 49q148 0 231 -88t83 -242v-774h-189v748q0 115 -43 161.5t-127 46.5q-86 0 -151.5 -49t-122.5 -141v-766h-188zM344 1407l408 233l84 -157l-434 -176z" />
<glyph unicode="&#x145;" horiz-adv-x="1398" d="M205 0v1411h254l579 -1200q-6 53 -16 186t-10 244v770h182v-1411h-260l-574 1198q12 -141 19.5 -261t7.5 -290v-647h-182zM579 -606l60 237q-49 43 -49 97q0 49 34.5 81.5t83.5 32.5q50 0 83.5 -32.5t33.5 -81.5q0 -27 -11 -60t-42 -98l-84 -176h-109z" />
<glyph unicode="&#x146;" horiz-adv-x="1200" d="M195 0v1079h161l17 -159q57 86 142 135t187 49q148 0 231 -88t83 -242v-774h-189v748q0 115 -43 161.5t-127 46.5q-86 0 -151.5 -49t-122.5 -141v-766h-188zM477 -606l60 237q-49 43 -49 97q0 49 34.5 81.5t83.5 32.5q50 0 83.5 -32.5t33.5 -81.5q0 -27 -11 -60t-42 -98 l-84 -176h-109z" />
<glyph unicode="&#x147;" horiz-adv-x="1398" d="M205 0v1411h254l579 -1200q-6 53 -16 186t-10 244v770h182v-1411h-260l-574 1198q12 -141 19.5 -261t7.5 -290v-647h-182zM383 1769l82 93l258 -166l261 166l79 -93l-276 -225h-125z" />
<glyph unicode="&#x148;" horiz-adv-x="1200" d="M195 0v1079h161l17 -159q57 86 142 135t187 49q148 0 231 -88t83 -242v-774h-189v748q0 115 -43 161.5t-127 46.5q-86 0 -151.5 -49t-122.5 -141v-766h-188zM270 1516l82 92l258 -172l261 172l79 -92l-276 -232h-125z" />
<glyph unicode="&#x149;" horiz-adv-x="1374" d="M194 1087l60 238q-49 43 -49 96q0 49 34.5 82t83.5 33q50 0 83.5 -33t33.5 -82q0 -27 -11 -59.5t-42 -97.5l-84 -177h-109zM369 0v1079h161l17 -159q57 86 142 135t187 49q148 0 231 -88t83 -242v-774h-189v748q0 115 -43 161.5t-127 46.5q-86 0 -151.5 -49t-122.5 -141 v-766h-188z" />
<glyph unicode="&#x14a;" horiz-adv-x="1398" d="M205 0v1411h258l567 -1200h8q-6 53 -16 186t-10 244v770h182v-1345q0 -150 -37 -240t-107.5 -146.5t-197.5 -113.5l-51 127q80 39 125 71.5t71.5 88t30.5 147.5h-98l-561 1194h-9q12 -145 19.5 -261t7.5 -286v-647h-182z" />
<glyph unicode="&#x14b;" horiz-adv-x="1200" d="M195 0v1079h161l17 -159q57 86 142 135t187 49q148 0 231 -88t83 -242v-708q0 -150 -37 -240t-107.5 -146.5t-197.5 -113.5l-56 137q80 37 123 73t64.5 100.5t21.5 176.5v695q0 115 -44 161.5t-128 46.5t-149.5 -49t-122.5 -141v-766h-188z" />
<glyph unicode="&#x14c;" horiz-adv-x="1417" d="M113 702q0 227 74.5 393.5t209.5 253.5t312 87q178 0 312 -85t209 -249t75 -397q0 -229 -75 -393.5t-209 -250.5t-312 -86t-312.5 84t-209 248t-74.5 395zM319 702q0 -293 103.5 -430t286.5 -137q389 0 389 570q0 571 -389 571q-185 0 -287.5 -139.5t-102.5 -434.5z M436 1612v141h560v-141h-560z" />
<glyph unicode="&#x14d;" horiz-adv-x="1196" d="M117 539q0 168 57 296t166 198.5t260 70.5q227 0 353 -151.5t126 -411.5q0 -168 -57 -296t-165.5 -199t-258.5 -71q-227 0 -354 152t-127 412zM317 1366v141h560v-141h-560zM319 539q0 -412 279 -412t279 414q0 412 -277 411q-281 1 -281 -413z" />
<glyph unicode="&#x14e;" horiz-adv-x="1417" d="M113 702q0 227 74.5 393.5t209.5 253.5t312 87q178 0 312 -85t209 -249t75 -397q0 -229 -75 -393.5t-209 -250.5t-312 -86t-312.5 84t-209 248t-74.5 395zM319 702q0 -293 103.5 -430t286.5 -137q389 0 389 570q0 571 -389 571q-185 0 -287.5 -139.5t-102.5 -434.5z M405 1804l125 27q47 -135 183 -135q70 0 118 35.5t70 99.5l125 -27q-12 -113 -100 -182.5t-213 -69.5q-123 0 -209 70t-99 182z" />
<glyph unicode="&#x14f;" horiz-adv-x="1196" d="M117 539q0 168 57 296t166 198.5t260 70.5q227 0 353 -151.5t126 -411.5q0 -168 -57 -296t-165.5 -199t-258.5 -71q-227 0 -354 152t-127 412zM286 1589l125 27q43 -156 183 -156q145 0 188 156l125 -27q-12 -127 -99 -199.5t-214 -72.5q-125 0 -210 72.5t-98 199.5z M319 539q0 -412 279 -412t279 414q0 412 -277 411q-281 1 -281 -413z" />
<glyph unicode="&#x150;" horiz-adv-x="1417" d="M113 702q0 227 74.5 393.5t209.5 253.5t312 87q178 0 312 -85t209 -249t75 -397q0 -229 -75 -393.5t-209 -250.5t-312 -86t-312.5 84t-209 248t-74.5 395zM319 702q0 -293 103.5 -430t286.5 -137q389 0 389 570q0 571 -389 571q-185 0 -287.5 -139.5t-102.5 -434.5z M485 1618l156 344l160 -84l-197 -311zM776 1608l176 354l160 -84l-217 -322z" />
<glyph unicode="&#x151;" horiz-adv-x="1196" d="M117 539q0 168 57 296t166 198.5t260 70.5q227 0 353 -151.5t126 -411.5q0 -168 -57 -296t-165.5 -199t-258.5 -71q-227 0 -354 152t-127 412zM319 539q0 -412 279 -412t279 414q0 412 -277 411q-281 1 -281 -413zM383 1360l156 344l160 -84l-197 -311zM674 1350l176 354 l160 -84l-217 -322z" />
<glyph unicode="&#x152;" horiz-adv-x="1859" d="M113 702q0 227 73.5 393.5t202.5 253.5t293 87q82 0 158 -25h870l-22 -156h-611q78 -78 125 -195.5t58 -264.5h356v-156h-354q-10 -152 -60.5 -275.5t-138.5 -207.5h663v-156h-895q-72 -25 -149 -25q-164 0 -293 84t-202.5 248t-73.5 395zM319 702q0 -290 100.5 -428.5 t268.5 -138.5q172 0 270.5 137.5t98.5 432.5q0 293 -97.5 432t-271.5 139q-170 0 -269.5 -140.5t-99.5 -433.5z" />
<glyph unicode="&#x153;" horiz-adv-x="1886" d="M117 539q0 168 57 296t166 198.5t260 70.5q258 0 379 -215q119 215 346 215q215 0 329.5 -141.5t114.5 -391.5q0 -47 -4 -96h-688q12 -178 90 -262t201 -84q78 0 143.5 22.5t137.5 71.5l82 -112q-172 -135 -377 -136q-256 0 -379 224q-127 -223 -377 -224 q-227 0 -354 152t-127 412zM319 539q0 -412 279 -412t279 414q0 412 -277 411q-281 0 -281 -413zM1077 614h506v13q0 160 -63.5 243.5t-190.5 83.5q-231 0 -252 -340z" />
<glyph unicode="&#x154;" horiz-adv-x="1239" d="M205 0v1411h370q264 0 400.5 -100.5t136.5 -298.5q0 -147 -75.5 -239.5t-229.5 -139.5l381 -633h-232l-338 598h-219v-598h-194zM370 1647l410 219l82 -158l-442 -162zM399 748h197q154 0 231.5 62t77.5 202q0 131 -78.5 189.5t-253.5 58.5h-174v-512z" />
<glyph unicode="&#x155;" horiz-adv-x="790" d="M195 0v1079h161l19 -219q43 121 116.5 182.5t172.5 61.5q57 0 106 -12l-35 -185q-49 12 -94 13q-100 0 -161.5 -74t-96.5 -230v-616h-188zM221 1407l408 233l84 -157l-434 -176z" />
<glyph unicode="&#x156;" horiz-adv-x="1239" d="M205 0v1411h370q264 0 400.5 -100.5t136.5 -298.5q0 -147 -75.5 -239.5t-229.5 -139.5l381 -633h-232l-338 598h-219v-598h-194zM399 748h197q154 0 231.5 62t77.5 202q0 131 -78.5 189.5t-253.5 58.5h-174v-512zM510 -606l60 237q-49 43 -49 97q0 49 34.5 81.5 t83.5 32.5q50 0 83.5 -32.5t33.5 -81.5q0 -27 -11 -60t-42 -98l-84 -176h-109z" />
<glyph unicode="&#x157;" horiz-adv-x="790" d="M165 -606l60 237q-49 43 -49 97q0 49 34.5 81.5t83.5 32.5q50 0 83.5 -32.5t33.5 -81.5q0 -27 -11 -60t-42 -98l-84 -176h-109zM195 0v1079h161l19 -219q43 121 116.5 182.5t172.5 61.5q57 0 106 -12l-35 -185q-49 12 -94 13q-100 0 -161.5 -74t-96.5 -230v-616h-188z " />
<glyph unicode="&#x158;" horiz-adv-x="1239" d="M205 0v1411h370q264 0 400.5 -100.5t136.5 -298.5q0 -147 -75.5 -239.5t-229.5 -139.5l381 -633h-232l-338 598h-219v-598h-194zM272 1769l82 93l258 -166l261 166l79 -93l-276 -225h-125zM399 748h197q154 0 231.5 62t77.5 202q0 131 -78.5 189.5t-253.5 58.5h-174v-512 z" />
<glyph unicode="&#x159;" horiz-adv-x="790" d="M147 1516l82 92l258 -172l261 172l79 -92l-276 -232h-125zM195 0v1079h161l19 -219q43 121 116.5 182.5t172.5 61.5q57 0 106 -12l-35 -185q-49 12 -94 13q-100 0 -161.5 -74t-96.5 -230v-616h-188z" />
<glyph unicode="&#x15a;" horiz-adv-x="1116" d="M51 158l113 125q154 -147 364 -148q131 0 217 64.5t86 187.5q0 70 -26.5 116t-91 83t-187.5 73q-217 66 -317 158t-100 250q0 106 56 190t157.5 131.5t230.5 47.5q141 0 241.5 -40t194.5 -124l-110 -123q-76 68 -153 97.5t-165 29.5q-111 0 -182.5 -51t-71.5 -150 q0 -61 24.5 -103t91 -77t193.5 -74q133 -41 221.5 -88t142.5 -130t54 -210q0 -123 -60.5 -217t-174 -147.5t-269.5 -53.5q-293 0 -479 183zM323 1647l410 219l82 -158l-442 -162z" />
<glyph unicode="&#x15b;" horiz-adv-x="956" d="M51 117l105 119q127 -109 299 -109q104 0 167.5 43t63.5 115q0 57 -22.5 93t-77 61.5t-162.5 54.5q-172 45 -249 121.5t-77 193.5q0 84 50.5 151.5t139.5 105.5t199 38q111 0 199 -31t168 -92l-82 -125q-72 51 -138.5 74.5t-139.5 23.5q-92 0 -145.5 -37.5t-53.5 -103.5 t50 -102.5t181 -71.5q180 -45 269.5 -123t89.5 -213q0 -160 -124 -244t-302 -84q-246 0 -408 142zM235 1407l408 233l84 -157l-434 -176z" />
<glyph unicode="&#x15c;" horiz-adv-x="1116" d="M51 158l113 125q154 -147 364 -148q131 0 217 64.5t86 187.5q0 70 -26.5 116t-91 83t-187.5 73q-217 66 -317 158t-100 250q0 106 56 190t157.5 131.5t230.5 47.5q141 0 241.5 -40t194.5 -124l-110 -123q-76 68 -153 97.5t-165 29.5q-111 0 -182.5 -51t-71.5 -150 q0 -61 24.5 -103t91 -77t193.5 -74q133 -41 221.5 -88t142.5 -130t54 -210q0 -123 -60.5 -217t-174 -147.5t-269.5 -53.5q-293 0 -479 183zM225 1647l279 225h125l276 -225l-79 -93l-261 166l-258 -166z" />
<glyph unicode="&#x15d;" horiz-adv-x="956" d="M51 117l105 119q127 -109 299 -109q104 0 167.5 43t63.5 115q0 57 -22.5 93t-77 61.5t-162.5 54.5q-172 45 -249 121.5t-77 193.5q0 84 50.5 151.5t139.5 105.5t199 38q111 0 199 -31t168 -92l-82 -125q-72 51 -138.5 74.5t-139.5 23.5q-92 0 -145.5 -37.5t-53.5 -103.5 t50 -102.5t181 -71.5q180 -45 269.5 -123t89.5 -213q0 -160 -124 -244t-302 -84q-246 0 -408 142zM161 1391l277 231h125l278 -231l-82 -93l-258 172l-260 -172z" />
<glyph unicode="&#x15e;" horiz-adv-x="1116" d="M51 158l113 125q154 -147 364 -148q131 0 217 64.5t86 187.5q0 70 -26.5 116t-91 83t-187.5 73q-217 66 -317 158t-100 250q0 106 56 190t157.5 131.5t230.5 47.5q141 0 241.5 -40t194.5 -124l-110 -123q-76 68 -153 97.5t-165 29.5q-111 0 -182.5 -51t-71.5 -150 q0 -61 24.5 -103t91 -77t193.5 -74q133 -41 221.5 -88t142.5 -130t54 -210q0 -172 -112.5 -283.5t-313.5 -129.5v-95q98 -8 144.5 -56t46.5 -118q0 -98 -72 -151.5t-182 -53.5q-57 0 -106.5 13.5t-80.5 36.5l52 106q61 -33 129 -33q47 0 74.5 19.5t27.5 62.5t-43 64.5 t-139 21.5l22 180q-262 14 -430 181z" />
<glyph unicode="&#x15f;" horiz-adv-x="956" d="M51 117l105 119q127 -109 299 -109q104 0 167.5 43t63.5 115q0 57 -22.5 93t-77 61.5t-162.5 54.5q-172 45 -249 121.5t-77 193.5q0 84 50.5 151.5t139.5 105.5t199 38q111 0 199 -31t168 -92l-82 -125q-72 51 -138.5 74.5t-139.5 23.5q-92 0 -145.5 -37.5t-53.5 -103.5 t50 -102.5t181 -71.5q180 -45 269.5 -123t89.5 -213q0 -143 -100.5 -225t-254.5 -98v-95q98 -8 144.5 -56t46.5 -118q0 -98 -71.5 -151.5t-182.5 -53.5q-57 0 -106.5 13.5t-79.5 36.5l51 106q61 -33 129 -33q47 0 74.5 19.5t27.5 62.5t-43 64.5t-139 21.5l22 180 q-209 14 -352 140z" />
<glyph unicode="&#x160;" horiz-adv-x="1116" d="M51 158l113 125q154 -147 364 -148q131 0 217 64.5t86 187.5q0 70 -26.5 116t-91 83t-187.5 73q-217 66 -317 158t-100 250q0 106 56 190t157.5 131.5t230.5 47.5q141 0 241.5 -40t194.5 -124l-110 -123q-76 68 -153 97.5t-165 29.5q-111 0 -182.5 -51t-71.5 -150 q0 -61 24.5 -103t91 -77t193.5 -74q133 -41 221.5 -88t142.5 -130t54 -210q0 -123 -60.5 -217t-174 -147.5t-269.5 -53.5q-293 0 -479 183zM225 1769l82 93l258 -166l261 166l79 -93l-276 -225h-125z" />
<glyph unicode="&#x161;" horiz-adv-x="956" d="M51 117l105 119q127 -109 299 -109q104 0 167.5 43t63.5 115q0 57 -22.5 93t-77 61.5t-162.5 54.5q-172 45 -249 121.5t-77 193.5q0 84 50.5 151.5t139.5 105.5t199 38q111 0 199 -31t168 -92l-82 -125q-72 51 -138.5 74.5t-139.5 23.5q-92 0 -145.5 -37.5t-53.5 -103.5 t50 -102.5t181 -71.5q180 -45 269.5 -123t89.5 -213q0 -160 -124 -244t-302 -84q-246 0 -408 142zM161 1516l82 92l258 -172l261 172l79 -92l-276 -232h-125z" />
<glyph unicode="&#x162;" horiz-adv-x="1058" d="M31 1245v166h1007l-20 -166h-391v-1360q98 -8 147 -57t49 -117q0 -98 -74.5 -151.5t-187.5 -53.5t-178 50l51 106q33 -16 59.5 -24.5t61.5 -8.5q49 0 80 19.5t31 62.5t-43 64.5t-140 21.5l25 203h-76v1245h-401z" />
<glyph unicode="&#x163;" horiz-adv-x="739" d="M18 934v145h189v244l188 23v-267h256l-20 -145h-236v-643q0 -84 30 -122t99 -38q68 0 144 47l71 -129q-96 -66 -211 -74v-90q99 -8 145 -56t46 -118q0 -98 -72 -151.5t-182 -53.5q-57 0 -106.5 13.5t-79.5 36.5l51 106q61 -33 129 -33q47 0 74.5 19.5t27.5 62.5t-43 64.5 t-139 21.5l22 191q-92 23 -143 98.5t-51 196.5v651h-189z" />
<glyph unicode="&#x164;" horiz-adv-x="1058" d="M31 1245v166h1007l-20 -166h-391v-1245h-195v1245h-401zM190 1769l82 93l258 -166l261 166l79 -93l-276 -225h-125z" />
<glyph unicode="&#x165;" horiz-adv-x="739" d="M18 934v145h189v244l188 23v-267h256l-20 -145h-236v-643q0 -84 30 -122t99 -38q68 0 144 47l71 -129q-106 -74 -241 -74q-137 0 -214 79t-77 229v651h-189zM500 1166l33 381l170 -21l-94 -377z" />
<glyph unicode="&#x166;" horiz-adv-x="1062" d="M31 1241v166h1007l-20 -166h-391v-448h256v-144h-256v-653h-195v653h-252v144h252v448h-401z" />
<glyph unicode="&#x167;" horiz-adv-x="739" d="M18 934v145h189v244l188 23v-267h256l-20 -145h-236v-203h236l-21 -145h-215v-295q0 -84 30 -122t99 -38q68 0 144 47l71 -129q-106 -74 -241 -74q-137 0 -214 79t-77 229v303h-166v145h166v203h-189z" />
<glyph unicode="&#x168;" horiz-adv-x="1355" d="M184 453v958h195v-944q0 -164 73.5 -246t223.5 -82q152 0 225.5 81t73.5 247v944h196v-958q0 -142 -58 -249.5t-170 -168t-267 -60.5q-236 0 -364 130.5t-128 347.5zM335 1663q39 82 95.5 131t130.5 49q41 0 70.5 -14t70.5 -41q29 -23 50.5 -33t43.5 -10q31 0 55.5 21.5 t53.5 68.5l114 -57q-39 -86 -95 -131t-122 -45q-45 0 -78.5 15t-72.5 44q-29 20 -49.5 29.5t-42.5 9.5q-33 0 -57.5 -22.5t-51.5 -71.5z" />
<glyph unicode="&#x169;" horiz-adv-x="1191" d="M184 305v774h189v-753q0 -111 39 -157t127 -46q158 0 270 186v770h188v-1079h-161l-15 168q-61 -100 -141 -146.5t-195 -46.5q-141 0 -221 86t-80 244zM249 1405q39 82 95.5 131t130.5 49q41 0 70.5 -14.5t70.5 -40.5q29 -23 50.5 -33t43.5 -10q31 0 55.5 21.5t53.5 68.5 l114 -57q-39 -86 -95 -131.5t-122 -45.5q-45 0 -78.5 15.5t-72.5 44.5q-29 20 -49.5 29.5t-42.5 9.5q-33 0 -57.5 -22.5t-51.5 -71.5z" />
<glyph unicode="&#x16a;" horiz-adv-x="1355" d="M184 453v958h195v-944q0 -164 73.5 -246t223.5 -82q152 0 225.5 81t73.5 247v944h196v-958q0 -142 -58 -249.5t-170 -168t-267 -60.5q-236 0 -364 130.5t-128 347.5zM397 1612v141h560v-141h-560z" />
<glyph unicode="&#x16b;" horiz-adv-x="1191" d="M184 305v774h189v-753q0 -111 39 -157t127 -46q158 0 270 186v770h188v-1079h-161l-15 168q-61 -100 -141 -146.5t-195 -46.5q-141 0 -221 86t-80 244zM311 1366v141h560v-141h-560z" />
<glyph unicode="&#x16c;" horiz-adv-x="1355" d="M184 453v958h195v-944q0 -164 73.5 -246t223.5 -82q152 0 225.5 81t73.5 247v944h196v-958q0 -142 -58 -249.5t-170 -168t-267 -60.5q-236 0 -364 130.5t-128 347.5zM366 1804l125 27q47 -135 183 -135q70 0 118 35.5t70 99.5l125 -27q-12 -113 -100 -182.5t-213 -69.5 q-123 0 -209 70t-99 182z" />
<glyph unicode="&#x16d;" horiz-adv-x="1191" d="M184 305v774h189v-753q0 -111 39 -157t127 -46q158 0 270 186v770h188v-1079h-161l-15 168q-61 -100 -141 -146.5t-195 -46.5q-141 0 -221 86t-80 244zM280 1589l125 27q43 -156 183 -156q145 0 188 156l125 -27q-12 -127 -99 -199.5t-214 -72.5q-125 0 -210 72.5 t-98 199.5z" />
<glyph unicode="&#x16e;" horiz-adv-x="1355" d="M184 453v958h195v-944q0 -164 73.5 -246t223.5 -82q152 0 225.5 81t73.5 247v944h196v-958q0 -142 -58 -249.5t-170 -168t-267 -60.5q-236 0 -364 130.5t-128 347.5zM444 1753q0 92 66 154.5t168 62.5t167.5 -62.5t65.5 -154.5t-65.5 -154.5t-167.5 -62.5t-168 62.5 t-66 154.5zM569 1753q0 -53 29 -84t80 -31q49 0 78.5 31t29.5 84t-28.5 84t-79.5 31t-80 -31t-29 -84z" />
<glyph unicode="&#x16f;" horiz-adv-x="1191" d="M184 305v774h189v-753q0 -111 39 -157t127 -46q158 0 270 186v770h188v-1079h-161l-15 168q-61 -100 -141 -146.5t-195 -46.5q-141 0 -221 86t-80 244zM358 1495q0 92 66 154.5t168 62.5t167.5 -62.5t65.5 -154.5t-65.5 -154.5t-167.5 -62.5t-168 62.5t-66 154.5z M483 1495q0 -53 29 -84t80 -31q49 0 78.5 31t29.5 84t-28.5 84t-79.5 31t-80 -31t-29 -84z" />
<glyph unicode="&#x170;" horiz-adv-x="1355" d="M184 453v958h195v-944q0 -164 73.5 -246t223.5 -82q152 0 225.5 81t73.5 247v944h196v-958q0 -142 -58 -249.5t-170 -168t-267 -60.5q-236 0 -364 130.5t-128 347.5zM446 1618l156 344l160 -84l-197 -311zM737 1608l176 354l160 -84l-217 -322z" />
<glyph unicode="&#x171;" horiz-adv-x="1191" d="M184 305v774h189v-753q0 -111 39 -157t127 -46q158 0 270 186v770h188v-1079h-161l-15 168q-61 -100 -141 -146.5t-195 -46.5q-141 0 -221 86t-80 244zM376 1360l156 344l160 -84l-197 -311zM667 1350l176 354l160 -84l-217 -322z" />
<glyph unicode="&#x172;" horiz-adv-x="1355" d="M184 453v958h195v-944q0 -164 73.5 -246t223.5 -82q152 0 225.5 81t73.5 247v944h196v-958q0 -168 -81.5 -288t-233.5 -165q-145 -63 -198.5 -117.5t-53.5 -115.5q0 -98 115 -99q55 0 125 15l-19 -144q-72 -14 -129 -14q-117 0 -186.5 58.5t-69.5 148.5q0 158 195 245 q-217 10 -334 139.5t-117 336.5z" />
<glyph unicode="&#x173;" horiz-adv-x="1191" d="M184 305v774h189v-753q0 -111 39 -157t127 -46q158 0 270 186v770h188v-1079q-145 -63 -198.5 -117.5t-53.5 -115.5q0 -98 115 -99q55 0 125 15l-18 -144q-72 -14 -129 -14q-117 0 -186.5 58.5t-69.5 148.5q0 92 61.5 163.5t190.5 124.5l-13 148q-61 -100 -141 -146.5 t-195 -46.5q-141 0 -221 86t-80 244z" />
<glyph unicode="&#x174;" horiz-adv-x="1691" d="M51 1411h191l227 -1241l272 1241h207l279 -1241l235 1241h178l-286 -1411h-250l-260 1182l-262 -1182h-244zM505 1647l279 225h125l276 -225l-79 -93l-261 166l-258 -166z" />
<glyph unicode="&#x175;" horiz-adv-x="1468" d="M41 1079h188l195 -948l213 948h211l203 -948l196 948h180l-245 -1079h-256l-189 909l-194 -909h-250zM395 1391l277 231h125l278 -231l-82 -93l-258 172l-260 -172z" />
<glyph unicode="&#x176;" horiz-adv-x="1126" d="M10 1411h215l344 -698l344 698h203l-454 -868v-543h-197v541zM229 1647l279 225h125l276 -225l-79 -93l-261 166l-258 -166z" />
<glyph unicode="&#x177;" horiz-adv-x="1007" d="M20 1079h201l289 -942l283 942h194l-360 -1085q-64 -189 -177.5 -298.5t-324.5 -131.5l-21 147q106 18 170 53t102 89.5t70 146.5h-63zM163 1391l277 231h125l278 -231l-82 -93l-258 172l-260 -172z" />
<glyph unicode="&#x178;" horiz-adv-x="1126" d="M10 1411h215l344 -698l344 698h203l-454 -868v-543h-197v541zM235 1714q0 49 34 83t85 34q49 0 83 -34t34 -83t-34 -83t-83 -34q-51 0 -85 34t-34 83zM666 1714q0 49 33.5 83t82.5 34q51 0 85 -34t34 -83t-34 -83t-85 -34q-49 0 -82.5 34t-33.5 83z" />
<glyph unicode="&#x179;" horiz-adv-x="1069" d="M61 0v156l705 1091h-631v164h842v-158l-698 -1087h698l-23 -166h-893zM315 1647l410 219l82 -158l-442 -162z" />
<glyph unicode="&#x17a;" horiz-adv-x="894" d="M51 0v141l561 779h-514v159h729v-143l-563 -778h570l-23 -158h-760zM182 1407l408 233l84 -157l-434 -176z" />
<glyph unicode="&#x17b;" horiz-adv-x="1069" d="M61 0v156l705 1091h-631v164h842v-158l-698 -1087h698l-23 -166h-893zM423 1726q0 55 37 92t95 37q59 0 96 -36.5t37 -92.5q0 -55 -37 -91t-96 -36q-57 0 -94.5 36t-37.5 91z" />
<glyph unicode="&#x17c;" horiz-adv-x="894" d="M51 0v141l561 779h-514v159h729v-143l-563 -778h570l-23 -158h-760zM315 1468q0 55 37 92t95 37q59 0 96 -36.5t37 -92.5q0 -55 -37 -91t-96 -36q-57 0 -94.5 36t-37.5 91z" />
<glyph unicode="&#x17d;" horiz-adv-x="1069" d="M61 0v156l705 1091h-631v164h842v-158l-698 -1087h698l-23 -166h-893zM217 1769l82 93l258 -166l261 166l79 -93l-276 -225h-125z" />
<glyph unicode="&#x17e;" horiz-adv-x="894" d="M51 0v141l561 779h-514v159h729v-143l-563 -778h570l-23 -158h-760zM108 1516l82 92l258 -172l261 172l79 -92l-276 -232h-125z" />
<glyph unicode="&#x192;" horiz-adv-x="663" d="M-18 -297q80 37 122.5 73t64 100.5t21.5 176.5v881h-172v145h172v148q0 139 89.5 224t248.5 85q74 0 132.5 -13.5t125.5 -41.5l-59 -138q-92 41 -188 41q-86 0 -123 -37.5t-37 -117.5v-150h262l-20 -145h-242v-868q0 -150 -37 -240t-107.5 -146.5t-197.5 -113.5z" />
<glyph unicode="&#x1fc;" horiz-adv-x="1671" d="M-25 0l562 1411h940l-23 -156h-633l115 -462h522v-156h-483l121 -481h465v-156h-623l-82 354h-549l-133 -354h-199zM367 512h452l-172 743zM729 1647l410 219l82 -158l-442 -162z" />
<glyph unicode="&#x1fd;" horiz-adv-x="1748" d="M92 301q0 172 127 264t354 92h166v80q0 115 -55 164t-170 49q-119 0 -291 -57l-47 137q199 74 373 74q233 0 321 -172q117 172 326 172t322.5 -141.5t113.5 -391.5q0 -47 -4 -96h-688q12 -178 90 -262t201 -84q78 0 143.5 22.5t136.5 71.5l82 -112q-172 -135 -376 -136 q-129 0 -228.5 51.5t-161.5 147.5q-74 -106 -166 -152.5t-219 -46.5q-162 0 -256 90.5t-94 235.5zM299 311q0 -96 47 -145t139 -49q86 0 155 45t130 143q-31 98 -31 221v6h-141q-299 0 -299 -221zM598 1407l408 233l84 -157l-434 -176zM940 614h506v13q0 160 -63.5 243.5 t-190.5 83.5q-231 0 -252 -340z" />
<glyph unicode="&#x1fe;" horiz-adv-x="1417" d="M113 702q0 227 74.5 393.5t209.5 253.5t312 87q76 0 135 -15l76 256l161 -43l-86 -268q148 -80 229 -249t81 -412q0 -229 -75 -393.5t-209 -250.5t-312 -86q-74 0 -138 15l-71 -250l-162 43l82 262q-145 82 -226 249t-81 408zM319 702q0 -379 168 -503l324 1067 q-55 10 -102 10q-185 0 -287.5 -139.5t-102.5 -434.5zM456 1678l410 219l82 -158l-442 -162zM606 145q51 -10 103 -10q389 1 389 570q0 203 -43 327.5t-129 184.5z" />
<glyph unicode="&#x1ff;" horiz-adv-x="1196" d="M117 539q0 168 57 296t166 198.5t260 70.5q49 0 105 -10l79 249l154 -45l-86 -258q111 -67 169 -195t58 -304q0 -168 -57 -296t-165.5 -199t-258.5 -71q-49 0 -104 11l-80 -252l-154 45l86 260q-111 68 -170 197t-59 303zM319 539q0 -139 25 -226.5t76 -130.5l254 764 q-35 6 -74 6q-281 1 -281 -413zM331 1407l408 233l84 -157l-434 -176zM526 133q33 -6 72 -6q279 0 279 414q0 264 -99 356z" />
<glyph unicode="&#x218;" horiz-adv-x="1116" d="M51 158l113 125q154 -147 364 -148q131 0 217 64.5t86 187.5q0 70 -26.5 116t-91 83t-187.5 73q-217 66 -317 158t-100 250q0 106 56 190t157.5 131.5t230.5 47.5q141 0 241.5 -40t194.5 -124l-110 -123q-76 68 -153 97.5t-165 29.5q-111 0 -182.5 -51t-71.5 -150 q0 -61 24.5 -103t91 -77t193.5 -74q133 -41 221.5 -88t142.5 -130t54 -210q0 -123 -60.5 -217t-174 -147.5t-269.5 -53.5q-293 0 -479 183zM423 -606l60 237q-49 43 -49 97q0 49 34.5 81.5t83.5 32.5q50 0 83.5 -32.5t33.5 -81.5q0 -27 -11 -60t-42 -98l-84 -176h-109z" />
<glyph unicode="&#x219;" horiz-adv-x="956" d="M51 117l105 119q127 -109 299 -109q104 0 167.5 43t63.5 115q0 57 -22.5 93t-77 61.5t-162.5 54.5q-172 45 -249 121.5t-77 193.5q0 84 50.5 151.5t139.5 105.5t199 38q111 0 199 -31t168 -92l-82 -125q-72 51 -138.5 74.5t-139.5 23.5q-92 0 -145.5 -37.5t-53.5 -103.5 t50 -102.5t181 -71.5q180 -45 269.5 -123t89.5 -213q0 -160 -124 -244t-302 -84q-246 0 -408 142zM358 -606l60 237q-49 43 -49 97q0 49 34.5 81.5t83.5 32.5q50 0 83.5 -32.5t33.5 -81.5q0 -27 -11 -60t-42 -98l-84 -176h-109z" />
<glyph unicode="&#x21a;" horiz-adv-x="1058" d="M31 1245v166h1007l-20 -166h-391v-1245h-195v1245h-401zM407 -606l60 237q-49 43 -49 97q0 49 34.5 81.5t83.5 32.5q50 0 83.5 -32.5t33.5 -81.5q0 -27 -11 -60t-42 -98l-84 -176h-109z" />
<glyph unicode="&#x21b;" horiz-adv-x="739" d="M18 934v145h189v244l188 23v-267h256l-20 -145h-236v-643q0 -84 30 -122t99 -38q68 0 144 47l71 -129q-106 -74 -241 -74q-137 0 -214 79t-77 229v651h-189zM356 -606l60 237q-49 43 -49 97q0 49 34.5 81.5t83.5 32.5q50 0 83.5 -32.5t33.5 -81.5q0 -27 -11 -60t-42 -98 l-84 -176h-109z" />
<glyph unicode="&#x237;" horiz-adv-x="573" d="M-18 -297q80 37 122.5 73t64 100.5t21.5 176.5v1026h189v-1013q0 -150 -37 -240t-107.5 -146.5t-197.5 -113.5z" />
<glyph unicode="&#x2bc;" horiz-adv-x="368" d="M61 1087l60 238q-49 43 -49 96q0 49 34.5 82t83.5 33q50 0 83.5 -33t33.5 -82q0 -27 -11 -59.5t-42 -97.5l-84 -177h-109z" />
<glyph unicode="&#x2c6;" horiz-adv-x="802" d="M61 1391l277 231h125l278 -231l-82 -93l-258 172l-260 -172z" />
<glyph unicode="&#x2c7;" horiz-adv-x="802" d="M61 1516l82 92l258 -172l261 172l79 -92l-276 -232h-125z" />
<glyph unicode="&#x2d8;" horiz-adv-x="743" d="M61 1589l125 27q43 -156 183 -156q145 0 188 156l125 -27q-12 -127 -99 -199.5t-214 -72.5q-125 0 -210 72.5t-98 199.5z" />
<glyph unicode="&#x2d9;" horiz-adv-x="387" d="M61 1468q0 55 37 92t95 37q59 0 96 -36.5t37 -92.5q0 -55 -37 -91t-96 -36q-57 0 -94.5 36t-37.5 91z" />
<glyph unicode="&#x2da;" horiz-adv-x="589" d="M61 1495q0 92 66 154.5t168 62.5t167.5 -62.5t65.5 -154.5t-65.5 -154.5t-167.5 -62.5t-168 62.5t-66 154.5zM186 1495q0 -53 29 -84t80 -31q49 0 78.5 31t29.5 84t-28.5 84t-79.5 31t-80 -31t-29 -84z" />
<glyph unicode="&#x2db;" horiz-adv-x="583" d="M-10 -268q0 113 94 194.5t293 141.5l29 -68q-146 -63 -199 -117.5t-53 -115.5q0 -98 114 -99q55 0 125 15l-18 -144q-72 -14 -129 -14q-117 0 -186.5 58.5t-69.5 148.5z" />
<glyph unicode="&#x2dc;" horiz-adv-x="806" d="M61 1405q39 82 95.5 131t130.5 49q41 0 70.5 -14.5t70.5 -40.5q29 -23 50.5 -33t43.5 -10q31 0 55.5 21.5t53.5 68.5l114 -57q-39 -86 -95 -131.5t-122 -45.5q-45 0 -78.5 15.5t-72.5 44.5q-29 20 -49.5 29.5t-42.5 9.5q-33 0 -57.5 -22.5t-51.5 -71.5z" />
<glyph unicode="&#x2dd;" horiz-adv-x="749" d="M61 1360l156 344l160 -84l-197 -311zM352 1350l176 354l160 -84l-217 -322z" />
<glyph unicode="&#x300;" horiz-adv-x="0" d="M80 1450l80 158l411 -219l-49 -101z" />
<glyph unicode="&#x301;" horiz-adv-x="0" d="M80 1389l409 219l82 -158l-442 -162z" />
<glyph unicode="&#x302;" horiz-adv-x="0" d="M80 1389l278 225h125l277 -225l-80 -93l-260 166l-258 -166z" />
<glyph unicode="&#x303;" horiz-adv-x="0" d="M80 1405q39 82 95 131t130 49q41 0 71 -14.5t70 -40.5q29 -23 50.5 -33t44.5 -10q31 0 55.5 21.5t52.5 68.5l115 -57q-39 -86 -95.5 -131.5t-121.5 -45.5q-45 0 -79 15.5t-73 44.5q-29 20 -49 29.5t-43 9.5q-33 0 -57.5 -22.5t-50.5 -71.5z" />
<glyph unicode="&#x304;" horiz-adv-x="0" d="M80 1366v141h559v-141h-559z" />
<glyph unicode="&#x306;" horiz-adv-x="0" d="M80 1546l125 27q47 -135 182 -135q70 0 118 35.5t70 99.5l125 -27q-12 -113 -100 -182.5t-213 -69.5q-123 0 -209 70t-98 182z" />
<glyph unicode="&#x307;" horiz-adv-x="0" d="M80 1468q0 55 37 92t94 37q59 0 96 -36.5t37 -92.5q0 -55 -37 -91t-96 -36q-57 0 -94 36t-37 91z" />
<glyph unicode="&#x308;" horiz-adv-x="0" d="M80 1456q0 49 33.5 83t85.5 34q49 0 82.5 -34t33.5 -83t-33.5 -83t-82.5 -34q-51 0 -85 34t-34 83zM510 1456q0 49 34 83t83 34q51 0 84.5 -34t33.5 -83t-33.5 -83t-84.5 -34q-49 0 -83 34t-34 83z" />
<glyph unicode="&#x30a;" horiz-adv-x="0" d="M80 1495q0 92 65.5 154.5t167.5 62.5q103 0 168.5 -62.5t65.5 -154.5t-65.5 -154.5t-168.5 -62.5q-102 0 -167.5 62.5t-65.5 154.5zM205 1495q0 -53 28.5 -84t79.5 -31q49 0 79 31t30 84t-28.5 84t-80.5 31q-51 0 -79.5 -31t-28.5 -84z" />
<glyph unicode="&#x30b;" horiz-adv-x="0" d="M80 1360l156 344l159 -84l-196 -311zM371 1350l176 354l160 -84l-218 -322z" />
<glyph unicode="&#x30c;" horiz-adv-x="0" d="M80 1511l82 93l258 -166l260 166l80 -93l-277 -225h-125z" />
<glyph unicode="&#x313;" horiz-adv-x="0" d="M55 1194l60 237q-49 43 -49 97q0 49 34.5 81.5t83.5 32.5q50 0 83.5 -32.5t33.5 -81.5q0 -27 -11 -60t-42 -98l-84 -176h-109z" />
<glyph unicode="&#x314;" horiz-adv-x="0" d="M55 1308q0 27 11 60t42 98l84 176h109l-60 -237q49 -43 49 -97q0 -49 -34.5 -81.5t-83.5 -32.5q-50 0 -83.5 32.5t-33.5 81.5z" />
<glyph unicode="&#x326;" horiz-adv-x="0" d="M61 -606l60 237q-49 43 -49 97q0 49 34.5 81.5t83.5 32.5q50 0 83.5 -32.5t33.5 -81.5q0 -27 -11 -60t-42 -98l-84 -176h-109z" />
<glyph unicode="&#x327;" horiz-adv-x="0" d="M61 -444l52 106q61 -33 129 -33q47 0 74.5 19.5t27.5 62.5t-43 64.5t-139 21.5l28 236h121v-148q99 -8 145 -56t46 -118q0 -98 -72 -151.5t-182 -53.5q-57 0 -106.5 13.5t-80.5 36.5z" />
<glyph unicode="&#x384;" horiz-adv-x="403" d="M61 1241l76 422l205 -37l-139 -407z" />
<glyph unicode="&#x385;" horiz-adv-x="829" d="M61 1393q0 51 34 83.5t85 32.5q49 0 83 -32.5t34 -83.5q0 -49 -34 -82t-83 -33q-51 0 -85 32.5t-34 82.5zM344 1513l59 367l207 -37l-127 -350zM532 1393q0 51 34 83.5t83 32.5q51 0 85 -32.5t34 -83.5q0 -49 -34 -82t-85 -33q-49 0 -83 32.5t-34 82.5z" />
<glyph unicode="&#x386;" horiz-adv-x="1173" d="M-25 1026l76 422l215 -37l-149 -407zM12 0l453 1411h246l450 -1411h-205l-106 354h-535l-106 -354h-197zM362 512h441l-219 737z" />
<glyph unicode="&#x388;" horiz-adv-x="1095" d="M-127 1026l76 422l215 -37l-149 -407zM205 0v1411h764l-23 -156h-547v-460h475v-156h-475v-483h586v-156h-780z" />
<glyph unicode="&#x389;" horiz-adv-x="1392" d="M-127 1026l76 422l215 -37l-149 -407zM205 0v1411h194v-590h594v590h195v-1411h-195v662h-594v-662h-194z" />
<glyph unicode="&#x38a;" horiz-adv-x="606" d="M-127 1026l76 422l215 -37l-149 -407zM205 0v1411h196v-1411h-196z" />
<glyph unicode="&#x38c;" horiz-adv-x="1417" d="M-80 1026l76 422l215 -37l-149 -407zM113 702q0 227 74.5 393.5t209.5 253.5t312 87q178 0 312 -85t209 -249t75 -397q0 -229 -75 -393.5t-209 -250.5t-312 -86t-312.5 84t-209 248t-74.5 395zM319 702q0 -293 103.5 -430t286.5 -137q389 0 389 570q0 571 -389 571 q-185 0 -287.5 -139.5t-102.5 -434.5z" />
<glyph unicode="&#x38e;" horiz-adv-x="1126" d="M-301 1026l76 422l215 -37l-149 -407zM10 1411h215l344 -698l344 698h203l-454 -868v-543h-197v541z" />
<glyph unicode="&#x38f;" horiz-adv-x="1417" d="M-84 1026l76 422l215 -37l-149 -407zM113 723q0 219 74.5 380t209.5 247t312 86q182 0 316 -83t207 -244t73 -384q0 -221 -59.5 -349t-211.5 -212h226v-164h-441v164q145 49 212 184t67 377q0 281 -101.5 416t-287.5 135q-184 0 -287 -136t-103 -417q0 -252 69 -381 t208 -178v-164h-440v164h213q-137 74 -196.5 205t-59.5 354z" />
<glyph unicode="&#x390;" horiz-adv-x="565" d="M-76 1393q0 51 34 83.5t85 32.5q49 0 83 -32.5t34 -83.5q0 -49 -34 -82t-83 -33q-51 0 -85 32.5t-34 82.5zM184 266v813h189v-790q0 -78 20.5 -113t73.5 -59l-59 -142q-125 27 -174.5 93.5t-49.5 197.5zM207 1513l59 367l207 -37l-127 -350zM395 1393q0 51 34 83.5 t83 32.5q51 0 85 -32.5t34 -83.5q0 -49 -34 -82t-85 -33q-49 0 -83 32.5t-34 82.5z" />
<glyph unicode="&#x391;" horiz-adv-x="1173" d="M12 0l453 1411h246l450 -1411h-205l-106 354h-535l-106 -354h-197zM362 512h441l-219 737z" />
<glyph unicode="&#x392;" horiz-adv-x="1245" d="M205 0v1411h334q268 0 410.5 -88t142.5 -268q0 -123 -77 -205t-188 -105q146 -24 236 -102t90 -242q0 -401 -559 -401h-389zM399 156h195q172 0 263 51t91 194q0 139 -88 201t-229 62h-232v-508zM399 813h213q123 0 202 59.5t79 167.5q0 123 -83 170t-251 47h-160v-444z " />
<glyph unicode="&#x393;" horiz-adv-x="1040" d="M205 0v1411h815l-29 -168h-592v-1243h-194z" />
<glyph unicode="&#x394;" horiz-adv-x="1193" d="M12 0l463 1411h246l461 -1411h-1170zM256 160h674l-336 1087z" />
<glyph unicode="&#x395;" horiz-adv-x="1095" d="M205 0v1411h764l-23 -156h-547v-460h475v-156h-475v-483h586v-156h-780z" />
<glyph unicode="&#x396;" horiz-adv-x="1069" d="M61 0v156l705 1091h-631v164h842v-158l-698 -1087h698l-23 -166h-893z" />
<glyph unicode="&#x397;" horiz-adv-x="1392" d="M205 0v1411h194v-590h594v590h195v-1411h-195v662h-594v-662h-194z" />
<glyph unicode="&#x398;" horiz-adv-x="1417" d="M113 702q0 227 74.5 393.5t209.5 253.5t312 87q178 0 312 -85t209 -249t75 -397q0 -229 -75 -393.5t-209 -250.5t-312 -86t-312.5 84t-209 248t-74.5 395zM319 702q0 -293 103.5 -430t286.5 -137q389 0 389 570q0 571 -389 571q-185 0 -287.5 -139.5t-102.5 -434.5z M463 645v152h489v-152h-489z" />
<glyph unicode="&#x399;" horiz-adv-x="606" d="M205 0v1411h196v-1411h-196z" />
<glyph unicode="&#x39a;" horiz-adv-x="1206" d="M205 0v1411h194v-1411h-194zM410 754l536 657h221l-534 -645l573 -766h-239z" />
<glyph unicode="&#x39b;" horiz-adv-x="1173" d="M12 0l453 1411h246l450 -1411h-205l-372 1249l-375 -1249h-197z" />
<glyph unicode="&#x39c;" horiz-adv-x="1630" d="M127 0l117 1411h262l297 -1026l282 1026h265l116 -1411h-188l-49 637q-31 375 -35 575l-305 -1052h-182l-322 1054q0 -256 -27 -591l-47 -623h-184z" />
<glyph unicode="&#x39d;" horiz-adv-x="1398" d="M205 0v1411h254l579 -1200q-6 53 -16 186t-10 244v770h182v-1411h-260l-574 1198q12 -141 19.5 -261t7.5 -290v-647h-182z" />
<glyph unicode="&#x39e;" horiz-adv-x="1046" d="M92 0v180h862v-180h-862zM92 1235v176h846l-27 -176h-819zM217 629v174h596v-174h-596z" />
<glyph unicode="&#x39f;" horiz-adv-x="1417" d="M113 702q0 227 74.5 393.5t209.5 253.5t312 87q178 0 312 -85t209 -249t75 -397q0 -229 -75 -393.5t-209 -250.5t-312 -86t-312.5 84t-209 248t-74.5 395zM319 702q0 -293 103.5 -430t286.5 -137q389 0 389 570q0 571 -389 571q-185 0 -287.5 -139.5t-102.5 -434.5z" />
<glyph unicode="&#x3a0;" horiz-adv-x="1382" d="M205 0v1411h973v-1411h-195v1245h-584v-1245h-194z" />
<glyph unicode="&#x3a1;" horiz-adv-x="1189" d="M205 0v1411h370q263 0 406 -109.5t143 -326.5q0 -231 -149.5 -344t-396.5 -113h-179v-518h-194zM399 672h170q170 0 259.5 65.5t89.5 235.5q0 152 -89.5 219.5t-255.5 67.5h-174v-588z" />
<glyph unicode="&#x3a3;" horiz-adv-x="1030" d="M82 0v160l455 534l-455 557v160h866v-160h-647l410 -489v-127l-410 -475h647v-160h-866z" />
<glyph unicode="&#x3a4;" horiz-adv-x="1058" d="M31 1245v166h1007l-20 -166h-391v-1245h-195v1245h-401z" />
<glyph unicode="&#x3a5;" horiz-adv-x="1126" d="M10 1411h215l344 -698l344 698h203l-454 -868v-543h-197v541z" />
<glyph unicode="&#x3a6;" horiz-adv-x="1658" d="M72 707q0 262 177 407.5t486 153.5v143h189v-143q322 -14 492.5 -163t170.5 -394q0 -269 -177 -416.5t-486 -155.5v-139h-189v139q-322 14 -492.5 164t-170.5 404zM272 707q0 -201 118 -307.5t349 -114.5v839q-236 -14 -351.5 -116.5t-115.5 -300.5zM920 283 q237 14 351.5 117.5t114.5 310.5q0 193 -117.5 298t-348.5 113v-839z" />
<glyph unicode="&#x3a7;" horiz-adv-x="1105" d="M10 0l424 752l-387 659h221l285 -530l287 530h209l-383 -649l430 -762h-222l-325 625l-330 -625h-209z" />
<glyph unicode="&#x3a8;" horiz-adv-x="1421" d="M72 872v539h192v-524q0 -164 84 -244t268 -92v860h187v-860q182 14 268 94t86 242v524h193v-532q0 -223 -140.5 -343t-402.5 -143v-393h-195v395q-541 43 -540 477z" />
<glyph unicode="&#x3a9;" horiz-adv-x="1417" d="M113 723q0 219 74.5 380t209.5 247t312 86q182 0 316 -83t207 -244t73 -384q0 -221 -59.5 -349t-211.5 -212h226v-164h-441v164q145 49 212 184t67 377q0 281 -101.5 416t-287.5 135q-184 0 -287 -136t-103 -417q0 -252 69 -381t208 -178v-164h-440v164h213 q-137 74 -196.5 205t-59.5 354z" />
<glyph unicode="&#x3aa;" horiz-adv-x="606" d="M-31 1714q0 49 34 83t85 34q49 0 83 -34t34 -83t-34 -83t-83 -34q-51 0 -85 34t-34 83zM205 0v1411h196v-1411h-196zM400 1714q0 49 33.5 83t82.5 34q51 0 85 -34t34 -83t-34 -83t-85 -34q-49 0 -82.5 34t-33.5 83z" />
<glyph unicode="&#x3ab;" horiz-adv-x="1126" d="M10 1411h215l344 -698l344 698h203l-454 -868v-543h-197v541zM235 1714q0 49 34 83t85 34q49 0 83 -34t34 -83t-34 -83t-83 -34q-51 0 -85 34t-34 83zM666 1714q0 49 33.5 83t82.5 34q51 0 85 -34t34 -83t-34 -83t-85 -34q-49 0 -82.5 34t-33.5 83z" />
<glyph unicode="&#x3ac;" horiz-adv-x="1216" d="M119 530q0 258 105.5 416t299.5 158q144 0 225.5 -77t112.5 -257l56 309h172l-113 -567l53 -274q8 -43 28.5 -68t65.5 -41l-65 -156q-72 12 -126 61.5t-67 133.5l-18 115q-100 -307 -336 -308q-188 0 -290.5 140.5t-102.5 414.5zM319 530q0 -207 53.5 -306t159.5 -99 q88 0 162 90t119 332q-39 231 -103.5 319t-168.5 88q-107 0 -164.5 -108.5t-57.5 -315.5zM497 1241l76 422l205 -37l-139 -407z" />
<glyph unicode="&#x3ad;" horiz-adv-x="958" d="M117 295q0 250 270 280q-106 18 -166.5 84t-60.5 156q0 135 102.5 212t276.5 77q207 0 350 -100l-92 -115q-55 35 -110.5 51t-129.5 16q-98 0 -150.5 -42t-52.5 -119q0 -72 57.5 -115t155.5 -43h125l-22 -148h-115q-125 0 -178 -41.5t-53 -138.5q0 -82 60 -132t167 -50 q80 0 145.5 23.5t141.5 72.5l90 -121q-76 -61 -176.5 -94t-210.5 -33q-193 0 -308.5 85t-115.5 235zM458 1241l76 422l205 -37l-139 -407z" />
<glyph unicode="&#x3ae;" horiz-adv-x="1212" d="M154 1079l172 25q37 -78 55 -191q57 88 143 139.5t191 51.5q147 0 230 -88t83 -242v-1210l-188 22v1162q0 115 -43 161.5t-127 46.5q-86 0 -151.5 -49t-123.5 -141v-766h-188v731q0 109 -14.5 188.5t-38.5 159.5zM532 1241l76 422l205 -37l-139 -407z" />
<glyph unicode="&#x3af;" horiz-adv-x="565" d="M184 266v813h189v-790q0 -78 20.5 -113t73.5 -59l-59 -142q-125 27 -174.5 93.5t-49.5 197.5zM208 1241l76 422l205 -37l-139 -407z" />
<glyph unicode="&#x3b0;" horiz-adv-x="1169" d="M184 334v745h189v-729q0 -111 50 -167t136 -56q66 0 129.5 39t105.5 131t42 242q0 264 -54 540h191q53 -289 53 -557q0 -184 -68.5 -307t-176 -181.5t-230.5 -58.5q-162 0 -264.5 93.5t-102.5 265.5zM237 1393q0 51 34 83.5t85 32.5q49 0 83 -32.5t34 -83.5 q0 -49 -34 -82t-83 -33q-51 0 -85 32.5t-34 82.5zM520 1513l59 367l207 -37l-127 -350zM708 1393q0 51 34 83.5t83 32.5q51 0 85 -32.5t34 -83.5q0 -49 -34 -82t-85 -33q-49 0 -83 32.5t-34 82.5z" />
<glyph unicode="&#x3b1;" horiz-adv-x="1216" d="M119 530q0 258 105.5 416t299.5 158q144 0 225.5 -77t112.5 -257l56 309h172l-113 -567l53 -274q8 -43 28.5 -68t65.5 -41l-65 -156q-72 12 -126 61.5t-67 133.5l-18 115q-100 -307 -336 -308q-188 0 -290.5 140.5t-102.5 414.5zM319 530q0 -207 53.5 -306t159.5 -99 q88 0 162 90t119 332q-39 231 -103.5 319t-168.5 88q-107 0 -164.5 -108.5t-57.5 -315.5z" />
<glyph unicode="&#x3b2;" horiz-adv-x="1234" d="M195 -438v1546q0 201 111.5 314.5t305.5 113.5q115 0 210.5 -45t151.5 -128t56 -194q0 -150 -84 -235.5t-221 -106.5q416 -44 416 -411q0 -131 -62.5 -231.5t-167 -155t-225.5 -54.5q-168 0 -303 105v-492zM383 225q53 -51 120.5 -74.5t158.5 -23.5q124 0 205 76t81 215 q0 160 -91 242.5t-263 82.5h-107l21 144h100q109 0 176.5 65.5t67.5 198.5q0 119 -64.5 178.5t-173.5 59.5q-231 0 -231 -281v-883z" />
<glyph unicode="&#x3b3;" horiz-adv-x="987" d="M-10 1034l178 68q86 -113 175 -336t149 -528l284 864l191 -39l-389 -1018q-51 -135 -52 -260q0 -76 21 -199l-150 -28q-63 131 -63 231q0 102 55 231q-121 434 -210 668t-189 346z" />
<glyph unicode="&#x3b4;" horiz-adv-x="1185" d="M117 492q0 317 309 473q-109 55 -153 123.5t-44 164.5q0 74 42 139.5t124 104.5t195 39t198.5 -27.5t165.5 -83.5l-96 -116q-63 43 -119.5 61.5t-126.5 18.5q-96 0 -142 -40t-46 -104q0 -47 20.5 -79.5t71.5 -63.5t156 -76q207 -88 302 -206t95 -322q0 -141 -57.5 -261 t-165 -191t-254.5 -71q-141 0 -248.5 61.5t-167 178.5t-59.5 277zM319 492q0 -178 68 -271.5t205 -93.5q133 0 203.5 95t70.5 276q0 111 -29.5 184.5t-99 127.5t-194.5 103q-111 -70 -167.5 -170t-56.5 -251z" />
<glyph unicode="&#x3b5;" horiz-adv-x="958" d="M117 295q0 250 270 280q-106 18 -166.5 84t-60.5 156q0 135 102.5 212t276.5 77q207 0 350 -100l-92 -115q-55 35 -110.5 51t-129.5 16q-98 0 -150.5 -42t-52.5 -119q0 -72 57.5 -115t155.5 -43h125l-22 -148h-115q-125 0 -178 -41.5t-53 -138.5q0 -82 60 -132t167 -50 q80 0 145.5 23.5t141.5 72.5l90 -121q-76 -61 -176.5 -94t-210.5 -33q-193 0 -308.5 85t-115.5 235z" />
<glyph unicode="&#x3b6;" horiz-adv-x="794" d="M78 1362l22 151h740l24 -124q-311 -261 -446 -468.5t-135 -400.5q0 -96 26.5 -155.5t79.5 -96.5t152 -73q98 -37 159.5 -72t97.5 -86t36 -129q0 -113 -77 -194t-247 -154l-80 131q98 41 149.5 85t51.5 111q0 41 -18.5 67t-61.5 48.5t-133 58.5q-172 68 -254 170.5 t-82 288.5q0 121 72.5 285t209 321.5t318.5 262.5q-66 -27 -307 -27h-297z" />
<glyph unicode="&#x3b7;" horiz-adv-x="1212" d="M154 1079l172 25q37 -78 55 -191q57 88 143 139.5t191 51.5q147 0 230 -88t83 -242v-1210l-188 22v1162q0 115 -43 161.5t-127 46.5q-86 0 -151.5 -49t-123.5 -141v-766h-188v731q0 109 -14.5 188.5t-38.5 159.5z" />
<glyph unicode="&#x3b8;" horiz-adv-x="1175" d="M117 760q0 365 122.5 570.5t350.5 205.5q227 0 348 -203t121 -571q0 -365 -123 -576t-348 -211q-227 0 -349 207t-122 578zM311 834h553q-8 291 -73.5 419.5t-200.5 128.5q-137 0 -204 -129t-75 -419zM313 690q8 -303 74 -433t201 -130q94 0 151.5 56.5t87 179 t35.5 327.5h-549z" />
<glyph unicode="&#x3b9;" horiz-adv-x="565" d="M184 266v813h189v-790q0 -78 20.5 -113t73.5 -59l-59 -142q-125 27 -174.5 93.5t-49.5 197.5z" />
<glyph unicode="&#x3ba;" horiz-adv-x="1081" d="M154 1079l172 25q32 -68 50.5 -161t18.5 -249v-694h-188v731q0 109 -14.5 188.5t-38.5 159.5zM403 578l455 526l158 -82l-391 -438l268 -314q12 -14 45 -54t63.5 -62.5t73.5 -38.5l-59 -140q-84 20 -138.5 60.5t-109.5 107.5z" />
<glyph unicode="&#x3bb;" horiz-adv-x="1003" d="M41 20l344 1059h84q-25 98 -60.5 159.5t-99 99.5t-170.5 57l29 145q156 -29 248 -86t146 -157.5t95 -272.5q74 -315 131.5 -495.5t111.5 -285t134 -198.5l-192 -70q-74 109 -125 217.5t-103.5 285.5t-105.5 458l-285 -961z" />
<glyph unicode="&#x3bc;" horiz-adv-x="1204" d="M195 -436v1515h188v-760q0 -182 162 -182q164 0 264 197v745h188v-710q1 -205 54 -369l-177 -25q-23 53 -31.5 93.5t-17.5 105.5v2q-49 -86 -121.5 -143.5t-160.5 -57.5q-63 0 -116.5 24t-80.5 79q18 -57 26.5 -118.5t8.5 -156.5v-217z" />
<glyph unicode="&#x3bd;" horiz-adv-x="987" d="M-10 1034l178 68q78 -103 160 -337.5t159 -604.5l293 942l187 -39l-367 -1063h-231q-117 459 -199 691.5t-180 342.5z" />
<glyph unicode="&#x3be;" horiz-adv-x="894" d="M102 537q0 166 94.5 259t231.5 111q-117 33 -182.5 105.5t-65.5 187.5q0 96 47 173t133 120t201 43q111 0 196 -27.5t158 -85.5l-94 -114q-59 41 -113.5 60.5t-121.5 19.5q-109 0 -160 -53.5t-51 -145.5q0 -98 57 -154.5t156 -56.5h143l-24 -156h-136 q-121 0 -193.5 -79.5t-72.5 -202.5q0 -90 24.5 -144.5t84 -94.5t178.5 -89q123 -51 188.5 -89t100 -89t34.5 -127q0 -113 -76.5 -194t-246.5 -154l-80 131q98 41 149.5 85t51.5 111q0 41 -19.5 69t-66.5 52.5t-148 67.5q-131 55 -208.5 106t-123 136t-45.5 219z" />
<glyph unicode="&#x3bf;" horiz-adv-x="1196" d="M117 539q0 168 57 296t166 198.5t260 70.5q227 0 353 -151.5t126 -411.5q0 -168 -57 -296t-165.5 -199t-258.5 -71q-227 0 -354 152t-127 412zM319 539q0 -412 279 -412t279 414q0 412 -277 411q-281 1 -281 -413z" />
<glyph unicode="&#x3c0;" horiz-adv-x="1218" d="M31 1049q53 18 97 24t122 6h907v-153h-162v-637q0 -78 22.5 -113t78.5 -49l-66 -152q-125 27 -174 93.5t-49 197.5v660h-373v-926h-188v926q-66 -2 -97.5 -6.5t-85.5 -18.5z" />
<glyph unicode="&#x3c1;" horiz-adv-x="1206" d="M184 -436v991q0 268 112 408.5t329 140.5q231 0 342.5 -141.5t111.5 -421.5q0 -156 -49 -285t-144 -205t-231 -76q-186 0 -282 136v-525zM373 272q39 -72 100.5 -107.5t136.5 -35.5q129 0 198 105.5t69 306.5q0 416 -256 415q-133 0 -190.5 -107.5t-57.5 -324.5v-252z " />
<glyph unicode="&#x3c2;" horiz-adv-x="958" d="M117 557q0 258 125 402.5t346 144.5q96 0 176 -27.5t154 -89.5l-93 -123q-55 43 -108 63.5t-121 20.5q-131 0 -205 -100t-74 -291q0 -111 24 -173t80 -102t171 -85q98 -39 157.5 -74t95.5 -87t36 -128q0 -113 -77 -194t-247 -154l-80 131q98 41 149.5 85t51.5 111 q0 41 -18.5 67t-60.5 48.5t-130 54.5q-174 66 -263 180.5t-89 319.5z" />
<glyph unicode="&#x3c3;" horiz-adv-x="1202" d="M117 539q0 254 134 403.5t398 149.5q215 0 498 -13v-151l-258 18q84 -47 137 -153.5t53 -251.5q0 -168 -57 -296t-165.5 -199t-258.5 -71q-227 0 -354 152t-127 412zM319 539q0 -412 279 -412t279 414q0 147 -42 251.5t-106 157.5q-158 0 -247 -42t-126 -130t-37 -239z " />
<glyph unicode="&#x3c4;" horiz-adv-x="952" d="M2 1049q53 18 97 24t122 6h723v-153h-377v-637q0 -78 22.5 -113t78.5 -49l-66 -152q-125 27 -174 93.5t-49 197.5v660h-141q-80 -2 -116 -6.5t-87 -18.5z" />
<glyph unicode="&#x3c5;" horiz-adv-x="1169" d="M184 334v745h189v-729q0 -111 50 -167t136 -56q66 0 129.5 39t105.5 131t42 242q0 264 -54 540h191q53 -289 53 -557q0 -184 -68.5 -307t-176 -181.5t-230.5 -58.5q-162 0 -264.5 93.5t-102.5 265.5z" />
<glyph unicode="&#x3c6;" horiz-adv-x="1503" d="M133 498q0 154 33 292t90 289h188q-55 -141 -88.5 -278t-33.5 -289q0 -197 78.5 -287t248.5 -106v573q0 199 93.5 305.5t254.5 106.5q379 0 379 -555q0 -279 -134 -417t-413 -155v-391l-180 -22v413q-268 14 -392 145.5t-124 375.5zM829 119q136 12 212.5 57t109.5 133 t33 236q0 158 -18.5 247t-58.5 126.5t-106 37.5q-82 0 -127 -56t-45 -216v-565z" />
<glyph unicode="&#x3c7;" horiz-adv-x="954" d="M-10 1034l184 68q88 -100 155.5 -218t151.5 -335l230 553l196 -23l-327 -698l360 -789l-190 -24l-275 657l-291 -655l-186 22l379 791q-123 270 -204 405.5t-183 245.5z" />
<glyph unicode="&#x3c8;" horiz-adv-x="1544" d="M164 414v665h188v-651q0 -143 76 -216t256 -87v954h180v-954q180 16 263 115.5t83 296.5q0 266 -53 542h191q53 -289 53 -557q0 -510 -537 -545v-391l-180 -22v413q-520 23 -520 437z" />
<glyph unicode="&#x3c9;" horiz-adv-x="1593" d="M133 489q0 170 34 312.5t89 277.5h188q-63 -172 -91.5 -304t-28.5 -261q0 -205 51 -296t153 -91q86 0 132.5 51t46.5 193v356l180 25v-381q0 -244 172 -244q211 0 211 365q0 141 -30 276t-95 311h188q58 -141 92.5 -281.5t34.5 -308.5q0 -258 -106.5 -386t-274.5 -128 q-115 0 -188.5 61.5t-91.5 186.5q-27 -129 -99.5 -188.5t-199.5 -59.5q-162 0 -264.5 126t-102.5 388z" />
<glyph unicode="&#x3ca;" horiz-adv-x="565" d="M-56 1456q0 49 34 83t85 34q49 0 83 -34t34 -83t-34 -83t-83 -34q-51 0 -85 34t-34 83zM184 266v813h189v-790q0 -78 20.5 -113t73.5 -59l-59 -142q-125 27 -174.5 93.5t-49.5 197.5zM375 1456q0 49 33.5 83t82.5 34q51 0 85 -34t34 -83t-34 -83t-85 -34q-49 0 -82.5 34 t-33.5 83z" />
<glyph unicode="&#x3cb;" horiz-adv-x="1169" d="M184 334v745h189v-729q0 -111 50 -167t136 -56q66 0 129.5 39t105.5 131t42 242q0 264 -54 540h191q53 -289 53 -557q0 -184 -68.5 -307t-176 -181.5t-230.5 -58.5q-162 0 -264.5 93.5t-102.5 265.5zM258 1456q0 49 34 83t85 34q49 0 83 -34t34 -83t-34 -83t-83 -34 q-51 0 -85 34t-34 83zM689 1456q0 49 33.5 83t82.5 34q51 0 85 -34t34 -83t-34 -83t-85 -34q-49 0 -82.5 34t-33.5 83z" />
<glyph unicode="&#x3cc;" horiz-adv-x="1196" d="M117 539q0 168 57 296t166 198.5t260 70.5q227 0 353 -151.5t126 -411.5q0 -168 -57 -296t-165.5 -199t-258.5 -71q-227 0 -354 152t-127 412zM319 539q0 -412 279 -412t279 414q0 412 -277 411q-281 1 -281 -413zM528 1241l76 422l205 -37l-139 -407z" />
<glyph unicode="&#x3cd;" horiz-adv-x="1169" d="M184 334v745h189v-729q0 -111 50 -167t136 -56q66 0 129.5 39t105.5 131t42 242q0 264 -54 540h191q53 -289 53 -557q0 -184 -68.5 -307t-176 -181.5t-230.5 -58.5q-162 0 -264.5 93.5t-102.5 265.5zM522 1241l76 422l205 -37l-139 -407z" />
<glyph unicode="&#x3ce;" horiz-adv-x="1593" d="M133 489q0 170 34 312.5t89 277.5h188q-63 -172 -91.5 -304t-28.5 -261q0 -205 51 -296t153 -91q86 0 132.5 51t46.5 193v356l180 25v-381q0 -244 172 -244q211 0 211 365q0 141 -30 276t-95 311h188q58 -141 92.5 -281.5t34.5 -308.5q0 -258 -106.5 -386t-274.5 -128 q-115 0 -188.5 61.5t-91.5 186.5q-27 -129 -99.5 -188.5t-199.5 -59.5q-162 0 -264.5 126t-102.5 388zM727 1241l76 422l205 -37l-139 -407z" />
<glyph unicode="&#x400;" horiz-adv-x="1095" d="M205 0v1411h764l-23 -156h-547v-460h475v-156h-475v-483h586v-156h-780zM286 1708l80 158l412 -219l-49 -101z" />
<glyph unicode="&#x401;" horiz-adv-x="1095" d="M205 0v1411h764l-23 -156h-547v-460h475v-156h-475v-483h586v-156h-780zM260 1714q0 49 34 83t85 34q49 0 83 -34t34 -83t-34 -83t-83 -34q-51 0 -85 34t-34 83zM691 1714q0 49 33.5 83t82.5 34q51 0 85 -34t34 -83t-34 -83t-85 -34q-49 0 -82.5 34t-33.5 83z" />
<glyph unicode="&#x402;" horiz-adv-x="1468" d="M31 1245v166h1007l-20 -166h-391v-461q131 141 352 142q199 0 308.5 -118t109.5 -327v-284q0 -209 -91.5 -313.5t-277.5 -164.5l-51 142q94 37 141 80t65.5 104t18.5 160v274q0 139 -65.5 210t-202.5 71q-100 0 -174 -38t-133 -114v-608h-195v1245h-401z" />
<glyph unicode="&#x403;" horiz-adv-x="1040" d="M205 0v1411h815l-29 -168h-592v-1243h-194zM405 1647l410 219l82 -158l-442 -162z" />
<glyph unicode="&#x404;" horiz-adv-x="1157" d="M113 707q0 231 77.5 396t211 249t296.5 84q127 0 214 -33t178 -107l-107 -125q-129 104 -272 105q-162 0 -268.5 -112.5t-120.5 -356.5h532v-160h-535q8 -256 115 -382t275 -126q90 0 155.5 31t143.5 88l98 -125q-64 -67 -167 -112.5t-237 -45.5q-172 0 -306 85 t-208.5 250t-74.5 397z" />
<glyph unicode="&#x405;" horiz-adv-x="1116" d="M51 158l113 125q154 -147 364 -148q131 0 217 64.5t86 187.5q0 70 -26.5 116t-91 83t-187.5 73q-217 66 -317 158t-100 250q0 106 56 190t157.5 131.5t230.5 47.5q141 0 241.5 -40t194.5 -124l-110 -123q-76 68 -153 97.5t-165 29.5q-111 0 -182.5 -51t-71.5 -150 q0 -61 24.5 -103t91 -77t193.5 -74q133 -41 221.5 -88t142.5 -130t54 -210q0 -123 -60.5 -217t-174 -147.5t-269.5 -53.5q-293 0 -479 183z" />
<glyph unicode="&#x406;" horiz-adv-x="606" d="M205 0v1411h196v-1411h-196z" />
<glyph unicode="&#x407;" horiz-adv-x="606" d="M-31 1714q0 49 34 83t85 34q49 0 83 -34t34 -83t-34 -83t-83 -34q-51 0 -85 34t-34 83zM205 0v1411h196v-1411h-196zM400 1714q0 49 33.5 83t82.5 34q51 0 85 -34t34 -83t-34 -83t-85 -34q-49 0 -82.5 34t-33.5 83z" />
<glyph unicode="&#x408;" horiz-adv-x="624" d="M10 -139q94 37 141.5 80t66 104t18.5 160v1206h194v-1214q0 -209 -91 -313.5t-278 -164.5z" />
<glyph unicode="&#x409;" horiz-adv-x="1841" d="M29 127q78 29 115.5 74t58 135t43.5 289l92 786h747v-518h160q258 0 401.5 -109.5t143.5 -326.5q0 -238 -146.5 -347.5t-400.5 -109.5h-352v1247h-383l-68 -608q-29 -254 -67.5 -380t-104 -184.5t-192.5 -99.5zM1085 156h175q155 0 239 64.5t84 232.5q0 156 -84 222 t-252 66h-162v-585z" />
<glyph unicode="&#x40a;" horiz-adv-x="1933" d="M205 0v1411h194v-559h584v559h195v-559h190q242 0 378 -106.5t136 -309.5q0 -223 -143.5 -329.5t-382.5 -106.5h-373v700h-584v-700h-194zM1178 156h194q141 0 222 61.5t81 214.5q0 268 -305 268h-192v-544z" />
<glyph unicode="&#x40b;" horiz-adv-x="1468" d="M31 1245v166h1007l-20 -166h-391v-461q131 141 352 142q199 0 308.5 -118t109.5 -327v-481h-195v479q0 139 -65.5 210t-202.5 71q-100 0 -174 -38t-133 -114v-608h-195v1245h-401z" />
<glyph unicode="&#x40c;" horiz-adv-x="1206" d="M205 0v1411h194v-590h195l348 590h205l-391 -661l430 -750h-225l-369 662h-193v-662h-194zM356 1647l410 219l82 -158l-442 -162z" />
<glyph unicode="&#x40d;" horiz-adv-x="1398" d="M205 0v1411h194v-688q0 -287 -26 -512l577 1200h244v-1411h-195v688q0 240 27 506l-571 -1194h-250zM434 1708l80 158l412 -219l-49 -101z" />
<glyph unicode="&#x40e;" horiz-adv-x="1105" d="M0 1411h203l379 -905l338 905h196l-409 -1030q-56 -139 -117.5 -219t-147.5 -123t-217 -64l-28 142q143 29 212.5 85t114.5 185h-71zM241 1815l125 26q20 -66 64.5 -94.5t118.5 -28.5t121 30t67 93l125 -26q-12 -111 -99 -175.5t-214 -64.5q-125 0 -210 64.5t-98 175.5z " />
<glyph unicode="&#x40f;" horiz-adv-x="1361" d="M205 0v1411h194v-1251h564v1251h194v-1411h-395v-307h-154l-30 307h-373z" />
<glyph unicode="&#x410;" horiz-adv-x="1173" d="M12 0l453 1411h246l450 -1411h-205l-106 354h-535l-106 -354h-197zM362 512h441l-219 737z" />
<glyph unicode="&#x411;" horiz-adv-x="1185" d="M205 0v1411h768l-25 -160h-549v-370h187q254 0 396 -108.5t142 -321.5q0 -233 -146.5 -342t-399.5 -109h-373zM399 156h195q156 0 240 63.5t84 226.5q0 152 -84 217.5t-246 65.5h-189v-573z" />
<glyph unicode="&#x412;" horiz-adv-x="1245" d="M205 0v1411h334q268 0 410.5 -88t142.5 -268q0 -123 -77 -205t-188 -105q146 -24 236 -102t90 -242q0 -401 -559 -401h-389zM399 156h195q172 0 263 51t91 194q0 139 -88 201t-229 62h-232v-508zM399 813h213q123 0 202 59.5t79 167.5q0 123 -83 170t-251 47h-160v-444z " />
<glyph unicode="&#x413;" horiz-adv-x="1040" d="M205 0v1411h815l-29 -168h-592v-1243h-194z" />
<glyph unicode="&#x414;" horiz-adv-x="1251" d="M-20 160h96q55 53 84.5 135t51 218t67.5 488l51 410h717v-1251h114v-467h-153l-31 307h-813l-31 -307h-153v467zM240 160h612v1091h-352l-29 -258q-37 -315 -60.5 -460.5t-61.5 -231.5t-109 -141z" />
<glyph unicode="&#x415;" horiz-adv-x="1095" d="M205 0v1411h764l-23 -156h-547v-460h475v-156h-475v-483h586v-156h-780z" />
<glyph unicode="&#x416;" horiz-adv-x="1681" d="M10 0l412 750l-373 661h209l322 -590h168v590h186v-590h168l325 590h205l-372 -661l411 -750h-219l-350 662h-168v-662h-186v662h-170l-353 -662h-215z" />
<glyph unicode="&#x417;" horiz-adv-x="1067" d="M20 166l115 110q131 -137 326 -137q145 0 225 72t80 197t-79 191.5t-232 66.5h-136l27 159h111q123 0 195.5 62.5t72.5 171.5q0 96 -59.5 156.5t-180.5 60.5q-170 0 -323 -131l-107 117q197 174 447 174q205 0 315.5 -101.5t110.5 -259.5q0 -129 -74 -210t-203 -109 q139 -14 231.5 -104.5t92.5 -245.5q0 -127 -64.5 -224.5t-179.5 -152t-260 -54.5q-133 0 -250 48.5t-201 142.5z" />
<glyph unicode="&#x418;" horiz-adv-x="1398" d="M205 0v1411h194v-688q0 -287 -26 -512l577 1200h244v-1411h-195v688q0 240 27 506l-571 -1194h-250z" />
<glyph unicode="&#x419;" horiz-adv-x="1398" d="M205 0v1411h194v-688q0 -287 -26 -512l577 1200h244v-1411h-195v688q0 240 27 506l-571 -1194h-250zM389 1815l125 26q20 -66 64.5 -94.5t118.5 -28.5t121 30t67 93l125 -26q-12 -111 -99 -175.5t-214 -64.5q-125 0 -210 64.5t-98 175.5z" />
<glyph unicode="&#x41a;" horiz-adv-x="1206" d="M205 0v1411h194v-590h195l348 590h205l-391 -661l430 -750h-225l-369 662h-193v-662h-194z" />
<glyph unicode="&#x41b;" horiz-adv-x="1349" d="M29 127q78 29 115.5 74t58 135t43.5 289l92 786h807v-1411h-195v1247h-442l-68 -608q-29 -254 -67.5 -380t-104 -184.5t-192.5 -99.5z" />
<glyph unicode="&#x41c;" horiz-adv-x="1630" d="M127 0l117 1411h262l297 -1026l282 1026h265l116 -1411h-188l-49 637q-31 375 -35 575l-305 -1052h-182l-322 1054q0 -256 -27 -591l-47 -623h-184z" />
<glyph unicode="&#x41d;" horiz-adv-x="1392" d="M205 0v1411h194v-590h594v590h195v-1411h-195v662h-594v-662h-194z" />
<glyph unicode="&#x41e;" horiz-adv-x="1417" d="M113 702q0 227 74.5 393.5t209.5 253.5t312 87q178 0 312 -85t209 -249t75 -397q0 -229 -75 -393.5t-209 -250.5t-312 -86t-312.5 84t-209 248t-74.5 395zM319 702q0 -293 103.5 -430t286.5 -137q389 0 389 570q0 571 -389 571q-185 0 -287.5 -139.5t-102.5 -434.5z" />
<glyph unicode="&#x41f;" horiz-adv-x="1382" d="M205 0v1411h973v-1411h-195v1245h-584v-1245h-194z" />
<glyph unicode="&#x420;" horiz-adv-x="1189" d="M205 0v1411h370q263 0 406 -109.5t143 -326.5q0 -231 -149.5 -344t-396.5 -113h-179v-518h-194zM399 672h170q170 0 259.5 65.5t89.5 235.5q0 152 -89.5 219.5t-255.5 67.5h-174v-588z" />
<glyph unicode="&#x421;" d="M113 707q0 231 77.5 396t211 249t296.5 84q127 0 214 -33t178 -107l-107 -125q-129 104 -272 105q-176 0 -284 -135t-108 -434q0 -291 106.5 -429.5t283.5 -138.5q90 0 155.5 31t143.5 88l98 -125q-63 -68 -166.5 -113t-237.5 -45q-172 0 -306 85t-208.5 250t-74.5 397z " />
<glyph unicode="&#x422;" horiz-adv-x="1058" d="M31 1245v166h1007l-20 -166h-391v-1245h-195v1245h-401z" />
<glyph unicode="&#x423;" horiz-adv-x="1105" d="M0 1411h203l379 -905l338 905h196l-409 -1030q-56 -139 -117.5 -219t-147.5 -123t-217 -64l-28 142q143 29 212.5 85t114.5 185h-71z" />
<glyph unicode="&#x424;" horiz-adv-x="1679" d="M82 713q0 303 175 459.5t488 164.5v144h189v-144q326 -14 494.5 -172.5t168.5 -447.5q0 -303 -175 -460t-488 -165v-160h-189v160q-326 14 -494.5 173t-168.5 448zM283 713q0 -236 115.5 -350.5t351.5 -124.5v956q-240 -14 -353.5 -127t-113.5 -354zM930 236 q239 14 353 126.5t114 354.5q0 236 -116 350.5t-351 124.5v-956z" />
<glyph unicode="&#x425;" horiz-adv-x="1105" d="M10 0l424 752l-387 659h221l285 -530l287 530h209l-383 -649l430 -762h-222l-325 625l-330 -625h-209z" />
<glyph unicode="&#x426;" horiz-adv-x="1411" d="M205 0v1411h194v-1251h564v1251h194v-1251h164v-467h-154l-30 307h-932z" />
<glyph unicode="&#x427;" horiz-adv-x="1253" d="M82 868v543h194v-528q0 -272 269 -273q186 0 309 119v682h195v-1411h-195v569q-90 -68 -171 -96.5t-187 -28.5q-188 0 -301 115t-113 309z" />
<glyph unicode="&#x428;" horiz-adv-x="1894" d="M205 0v1411h190v-1251h461v1251h182v-1251h461v1251h191v-1411h-1485z" />
<glyph unicode="&#x429;" horiz-adv-x="1894" d="M205 0v1411h190v-1251h461v1251h182v-1251h461v1251h191v-1251h163v-467h-153l-31 307h-1464z" />
<glyph unicode="&#x42a;" horiz-adv-x="1314" d="M0 1245v166h539v-518h186q254 0 396.5 -109.5t142.5 -326.5q0 -238 -146.5 -347.5t-400.5 -109.5h-373v1245h-344zM539 156h194q156 0 240 64.5t84 232.5q0 156 -83 222t-247 66h-188v-585z" />
<glyph unicode="&#x42b;" horiz-adv-x="1677" d="M205 0v1411h194v-518h160q258 0 401.5 -109.5t143.5 -326.5q0 -238 -146.5 -347.5t-400.5 -109.5h-352zM399 156h174q156 0 240 64.5t84 232.5q0 156 -84 222t-252 66h-162v-585zM1278 0v1411h195v-1411h-195z" />
<glyph unicode="&#x42c;" horiz-adv-x="1175" d="M205 0v1411h194v-518h187q254 0 396 -109.5t142 -326.5q0 -238 -146.5 -347.5t-399.5 -109.5h-373zM399 156h195q156 0 240 64.5t84 232.5q0 156 -83 222t-247 66h-189v-585z" />
<glyph unicode="&#x42d;" horiz-adv-x="1114" d="M51 1290q88 72 186.5 109t223.5 37q250 0 395 -178.5t145 -550.5q0 -352 -144 -542t-404 -190q-131 0 -226.5 41t-171.5 111l99 125q70 -55 134 -84t158 -29q336 0 349 508h-547v160h545q-10 246 -99.5 357.5t-238.5 111.5q-92 0 -158 -24.5t-145 -82.5z" />
<glyph unicode="&#x42e;" horiz-adv-x="1841" d="M205 0v1411h194v-600h183q31 299 181 462t390 163q174 0 304 -84t201 -249t71 -398q0 -229 -71 -394.5t-201 -250.5t-304 -85q-254 0 -406.5 177.5t-166.5 498.5h-181v-651h-194zM784 692q0 -287 98.5 -422t270.5 -135q369 1 369 570q0 571 -369 571 q-176 0 -272.5 -141.5t-96.5 -442.5z" />
<glyph unicode="&#x42f;" horiz-adv-x="1220" d="M41 0l307 590q-133 51 -201.5 151.5t-68.5 235.5q0 207 137 320.5t401 113.5h400v-1411h-195v555h-286l-273 -555h-221zM285 977q0 -133 76.5 -200.5t205.5 -67.5h254v551h-192q-182 0 -263 -70t-81 -213z" />
<glyph unicode="&#x430;" horiz-adv-x="1114" d="M92 301q0 172 124 264t351 92h166v80q0 115 -55 164t-170 49q-119 0 -291 -57l-47 137q201 74 373 74q190 0 284.5 -93t94.5 -266v-493q0 -66 22.5 -97.5t67.5 -48.5l-43 -131q-84 10 -135.5 47t-75.5 115q-109 -162 -322 -162q-160 0 -252 90.5t-92 235.5zM293 311 q0 -96 47 -145t139 -49q162 0 254 168v247h-141q-299 0 -299 -221z" />
<glyph unicode="&#x431;" horiz-adv-x="1185" d="M117 594q0 236 35.5 386t125 247.5t250.5 152.5q121 41 194 74t148 84l80 -141q-72 -45 -148.5 -83t-183.5 -73q-102 -35 -161.5 -79t-95 -127t-48.5 -226q57 94 147.5 147.5t205.5 53.5q184 0 293.5 -133.5t109.5 -362.5q0 -256 -129 -397.5t-346 -141.5t-347 154 t-130 465zM319 524q0 -190 73 -293.5t202 -103.5q125 0 198.5 85t73.5 296q0 186 -60.5 268t-174.5 82q-94 0 -176 -50t-136 -153v-131z" />
<glyph unicode="&#x432;" horiz-adv-x="1155" d="M195 0v1065q190 39 354 39q199 0 316.5 -74t117.5 -209q0 -88 -50 -147.5t-169 -87.5q139 -15 206.5 -80.5t67.5 -186.5q0 -162 -123.5 -240.5t-330.5 -78.5h-389zM383 147h170q129 0 208 34t79 141q0 104 -65.5 142t-186.5 38h-205v-355zM383 641h192q102 0 159 37 t57 125q0 82 -59.5 118.5t-180.5 36.5q-86 0 -168 -12v-305z" />
<glyph unicode="&#x433;" horiz-adv-x="878" d="M195 0v1079h673l-24 -155h-461v-924h-188z" />
<glyph unicode="&#x434;" horiz-adv-x="1142" d="M0 152h76q49 33 77.5 74.5t52 146t38.5 305.5l28 401h676v-927h113v-459h-154l-30 307h-693l-30 -307h-154v459zM244 152h516v778h-318l-16 -228q-14 -190 -32.5 -292.5t-52.5 -157.5t-97 -100z" />
<glyph unicode="&#x435;" horiz-adv-x="1126" d="M117 528q0 168 54 298t155.5 204t238.5 74q215 0 330 -141.5t115 -391.5q0 -47 -4 -96h-689q12 -178 90 -262t201 -84q78 0 143.5 22.5t137.5 71.5l82 -112q-172 -135 -377 -136q-225 0 -351 147.5t-126 405.5zM317 614h506v13q0 160 -63.5 243.5t-190.5 83.5 q-231 0 -252 -340z" />
<glyph unicode="&#x436;" horiz-adv-x="1472" d="M41 0l309 573l-270 506h196l226 -442h143v442h180v-442h146l227 442h195l-271 -506l310 -573h-207l-256 489h-144v-489h-180v489h-141l-258 -489h-205z" />
<glyph unicode="&#x437;" horiz-adv-x="1024" d="M31 111l98 116q72 -51 144.5 -75.5t166.5 -24.5q264 0 265 192q0 94 -75 132t-208 38h-143l12 148h110q113 0 182.5 41t69.5 127q0 80 -59 115.5t-158 35.5q-82 0 -145.5 -22.5t-126.5 -65.5l-92 113q82 61 176 92t213 31q102 0 191 -34t143.5 -98.5t54.5 -154.5 q0 -94 -52.5 -151.5t-164.5 -87.5q135 -23 204.5 -84.5t69.5 -176.5q0 -168 -130 -255t-331 -87q-244 0 -415 136z" />
<glyph unicode="&#x438;" horiz-adv-x="1228" d="M195 0v1079h186v-487q0 -109 -8 -224.5t-13 -148.5l443 860h231v-1079h-186v487q0 123 8 233.5t14 145.5l-448 -866h-227z" />
<glyph unicode="&#x439;" horiz-adv-x="1228" d="M195 0v1079h186v-487q0 -109 -8 -224.5t-13 -148.5l443 860h231v-1079h-186v487q0 123 8 233.5t14 145.5l-448 -866h-227zM303 1556l125 27q20 -66 64.5 -94.5t118.5 -28.5t121 30t67 93l125 -27q-12 -111 -99 -175t-214 -64q-125 0 -210 64.5t-98 174.5z" />
<glyph unicode="&#x43a;" horiz-adv-x="1062" d="M195 0v1079h188v-434h141l273 434h207l-328 -499l366 -580h-223l-299 498h-137v-498h-188z" />
<glyph unicode="&#x43b;" horiz-adv-x="1179" d="M76 125q70 25 98.5 63.5t42.5 118.5t31 279l43 493h694v-1079h-188v926h-334l-31 -361q-18 -219 -46 -327.5t-86 -167t-177 -95.5z" />
<glyph unicode="&#x43c;" horiz-adv-x="1374" d="M123 0l96 1079h244l211 -772l231 772h248l98 -1079h-184l-49 510q-8 80 -10 176t-2 205l-246 -772h-178l-230 768q0 -262 -8 -375l-39 -512h-182z" />
<glyph unicode="&#x43d;" horiz-adv-x="1214" d="M195 0v1079h188v-452h448v452h189v-1079h-189v475h-448v-475h-188z" />
<glyph unicode="&#x43e;" horiz-adv-x="1196" d="M117 539q0 168 57 296t166 198.5t260 70.5q227 0 353 -151.5t126 -411.5q0 -168 -57 -296t-165.5 -199t-258.5 -71q-227 0 -354 152t-127 412zM319 539q0 -412 279 -412t279 414q0 412 -277 411q-281 1 -281 -413z" />
<glyph unicode="&#x43f;" horiz-adv-x="1208" d="M195 0v1079h819v-1079h-189v926h-442v-926h-188z" />
<glyph unicode="&#x440;" horiz-adv-x="1216" d="M195 -436v1515h161l15 -145q59 82 143 126t176 44q207 0 303.5 -147.5t96.5 -415.5q0 -254 -111 -410t-313 -156q-180 0 -283 123v-512zM383 260q41 -63 102.5 -97t135.5 -34q266 0 266 412q0 414 -244 413q-80 0 -145.5 -47t-114.5 -121v-526z" />
<glyph unicode="&#x441;" horiz-adv-x="978" d="M117 530q0 172 57 301.5t162.5 201t251.5 71.5q96 0 176 -27.5t154 -89.5l-93 -123q-55 43 -108 63.5t-121 20.5q-131 0 -204 -104.5t-73 -308.5q0 -205 72 -302.5t205 -97.5q66 0 118 20.5t113 67.5l91 -129q-147 -119 -330 -119q-219 0 -345 147.5t-126 407.5z" />
<glyph unicode="&#x442;" horiz-adv-x="923" d="M10 926v153h914l-23 -153h-346v-926h-188v926h-357z" />
<glyph unicode="&#x443;" horiz-adv-x="1007" d="M20 1079h201l289 -942l283 942h194l-360 -1085q-64 -189 -177.5 -298.5t-324.5 -131.5l-21 147q106 18 170 53t102 89.5t70 146.5h-63z" />
<glyph unicode="&#x444;" horiz-adv-x="1671" d="M127 541q0 270 83 416.5t273 146.5q166 0 262 -119v551l181 -23v-532q94 123 252 123q196 0 281 -145.5t85 -417.5q0 -258 -98 -412t-272 -154q-154 0 -248 138v-527l-181 -22v549q-45 -66 -114.5 -102t-149.5 -36q-164 0 -259 154t-95 412zM330 541q0 -207 51 -311.5 t143 -104.5q66 0 122 36t99 99v571q-92 123 -223 123q-94 0 -143 -103t-49 -310zM926 258q43 -66 94 -99.5t119 -33.5q96 0 149 104.5t53 311.5q0 414 -202 413q-129 0 -213 -127v-569z" />
<glyph unicode="&#x445;" horiz-adv-x="993" d="M10 0l377 569l-334 510h221l226 -395l227 395h213l-332 -501l375 -578h-227l-264 457l-269 -457h-213z" />
<glyph unicode="&#x446;" horiz-adv-x="1249" d="M195 0v1079h188v-925h432v925h189v-927h163v-459h-153l-31 307h-788z" />
<glyph unicode="&#x447;" horiz-adv-x="1130" d="M113 651v428h188v-405q0 -102 42 -148.5t130 -46.5q72 0 150.5 33t124.5 84v483h188v-1079h-188v451q-59 -55 -146.5 -87t-179.5 -32q-154 0 -231.5 83t-77.5 236z" />
<glyph unicode="&#x448;" horiz-adv-x="1630" d="M195 0v1079h184v-927h346v927h180v-927h346v927h185v-1079h-1241z" />
<glyph unicode="&#x449;" horiz-adv-x="1630" d="M195 0v1079h184v-927h346v927h180v-927h346v927h185v-927h163v-459h-153l-31 307h-1220z" />
<glyph unicode="&#x44a;" horiz-adv-x="1165" d="M0 936v143h492v-348h143q242 0 350.5 -94t108.5 -268q0 -182 -122 -275.5t-302 -93.5h-367v936h-303zM492 147h161q115 0 177.5 51.5t62.5 170.5q0 113 -58.5 166t-201.5 53h-141v-441z" />
<glyph unicode="&#x44b;" horiz-adv-x="1503" d="M195 0v1079h188v-348h123q242 0 350.5 -94t108.5 -268q0 -182 -122 -275.5t-302 -93.5h-346zM383 147h141q115 0 177.5 51.5t62.5 170.5q0 113 -58.5 166t-201.5 53h-121v-441zM1120 0v1079h189v-1079h-189z" />
<glyph unicode="&#x44c;" horiz-adv-x="1056" d="M195 0v1079h188v-348h143q242 0 350.5 -94t108.5 -268q0 -182 -122 -275.5t-302 -93.5h-366zM383 147h162q114 0 176.5 51.5t62.5 170.5q0 113 -58 166t-202 53h-141v-441z" />
<glyph unicode="&#x44d;" horiz-adv-x="991" d="M61 94l91 121q59 -45 115.5 -65.5t133.5 -20.5q119 0 192 85t83 267h-440v144h440q-12 170 -75.5 249.5t-186.5 79.5q-72 0 -133.5 -19.5t-122.5 -62.5l-86 115q72 59 156.5 88t193.5 29q213 0 332.5 -147.5t119.5 -415.5q0 -266 -120.5 -416t-350.5 -150 q-201 0 -342 119z" />
<glyph unicode="&#x44e;" horiz-adv-x="1607" d="M195 0v1079h188v-452h195q23 211 142.5 344t307.5 133q141 0 245.5 -69.5t161 -196.5t56.5 -297q0 -160 -54.5 -288t-160 -203t-250.5 -75q-197 0 -315.5 138.5t-135.5 361.5h-192v-475h-188zM768 539q0 -197 65.5 -304.5t192.5 -107.5q139 0 200.5 104.5t61.5 309.5 q0 197 -67.5 303t-192.5 106q-260 0 -260 -411z" />
<glyph unicode="&#x44f;" horiz-adv-x="1128" d="M72 0l258 457q-190 90 -191 293q0 160 115 244.5t321 84.5h359v-1079h-189v414h-235l-227 -414h-211zM338 750q0 -102 54 -147.5t175 -45.5h178v377h-174q-117 0 -175 -44t-58 -140z" />
<glyph unicode="&#x450;" horiz-adv-x="1126" d="M117 528q0 168 54 298t155.5 204t238.5 74q215 0 330 -141.5t115 -391.5q0 -47 -4 -96h-689q12 -178 90 -262t201 -84q78 0 143.5 22.5t137.5 71.5l82 -112q-172 -135 -377 -136q-225 0 -351 147.5t-126 405.5zM317 614h506v13q0 160 -63.5 243.5t-190.5 83.5 q-231 0 -252 -340zM333 1483l84 157l408 -233l-57 -100z" />
<glyph unicode="&#x451;" horiz-adv-x="1126" d="M117 528q0 168 54 298t155.5 204t238.5 74q215 0 330 -141.5t115 -391.5q0 -47 -4 -96h-689q12 -178 90 -262t201 -84q78 0 143.5 22.5t137.5 71.5l82 -112q-172 -135 -377 -136q-225 0 -351 147.5t-126 405.5zM237 1456q0 49 34 83t85 34q49 0 83 -34t34 -83t-34 -83 t-83 -34q-51 0 -85 34t-34 83zM317 614h506v13q0 160 -63.5 243.5t-190.5 83.5q-231 0 -252 -340zM668 1456q0 49 33.5 83t82.5 34q51 0 85 -34t34 -83t-34 -83t-85 -34q-49 0 -82.5 34t-33.5 83z" />
<glyph unicode="&#x452;" horiz-adv-x="1222" d="M51 1241v143h156v127l188 21v-148h320v-143h-320v-311q127 174 320 174q147 0 230 -88t83 -242v-708q0 -150 -37 -240t-107.5 -146.5t-197.5 -113.5l-55 137q80 37 123 73t64.5 100.5t21.5 176.5v695q0 115 -44 161.5t-128 46.5t-149.5 -49t-123.5 -139v-768h-188v1241 h-156z" />
<glyph unicode="&#x453;" horiz-adv-x="878" d="M195 0v1079h673l-24 -155h-461v-924h-188zM266 1407l408 233l84 -157l-434 -176z" />
<glyph unicode="&#x454;" horiz-adv-x="987" d="M117 535q0 172 58 301t166 198.5t251 69.5q195 0 334 -117l-90 -117q-63 47 -117.5 65.5t-116.5 18.5q-125 0 -201.5 -85t-85.5 -244h447v-144h-447q18 -352 287 -352q60 0 116 20.5t120 67.5l88 -123q-145 -119 -328 -119q-225 0 -353 147.5t-128 412.5z" />
<glyph unicode="&#x455;" horiz-adv-x="956" d="M51 117l105 119q127 -109 299 -109q104 0 167.5 43t63.5 115q0 57 -22.5 93t-77 61.5t-162.5 54.5q-172 45 -249 121.5t-77 193.5q0 84 50.5 151.5t139.5 105.5t199 38q111 0 199 -31t168 -92l-82 -125q-72 51 -138.5 74.5t-139.5 23.5q-92 0 -145.5 -37.5t-53.5 -103.5 t50 -102.5t181 -71.5q180 -45 269.5 -123t89.5 -213q0 -160 -124 -244t-302 -84q-246 0 -408 142z" />
<glyph unicode="&#x456;" horiz-adv-x="577" d="M156 1468q0 55 36.5 92t94.5 37q59 0 96 -36.5t37 -92.5q0 -55 -37 -91t-96 -36q-57 0 -94 36t-37 91zM195 0v1079h188v-1079h-188z" />
<glyph unicode="&#x457;" horiz-adv-x="577" d="M-45 1456q0 49 34 83t85 34q49 0 83 -34t34 -83t-34 -83t-83 -34q-51 0 -85 34t-34 83zM195 0v1079h188v-1079h-188zM386 1456q0 49 33.5 83t82.5 34q51 0 85 -34t34 -83t-34 -83t-85 -34q-49 0 -82.5 34t-33.5 83z" />
<glyph unicode="&#x458;" horiz-adv-x="573" d="M-18 -297q80 37 122.5 73t64 100.5t21.5 176.5v1026h189v-1013q0 -150 -37 -240t-107.5 -146.5t-197.5 -113.5zM154 1468q0 55 36.5 92t94.5 37q59 0 96 -36.5t37 -92.5q0 -55 -37 -91t-96 -36q-57 0 -94 36t-37 91z" />
<glyph unicode="&#x459;" horiz-adv-x="1630" d="M76 125q70 25 98.5 63.5t42.5 118.5t31 279l43 493h686v-348h123q241 0 350 -94t109 -268q0 -182 -122 -275.5t-302 -93.5h-347v926h-325l-31 -361q-18 -219 -46 -327.5t-86 -167t-177 -95.5zM977 147h141q115 0 177.5 51.5t62.5 170.5q0 113 -58.5 166t-201.5 53h-121 v-441z" />
<glyph unicode="&#x45a;" horiz-adv-x="1667" d="M195 0v1079h188v-397h442v397h189v-397h123q458 0 458 -338q0 -168 -122.5 -256t-301.5 -88h-346v539h-442v-539h-188zM1014 147h145q240 0 240 197q0 98 -58.5 146.5t-201.5 48.5h-125v-392z" />
<glyph unicode="&#x45b;" horiz-adv-x="1212" d="M51 1241v143h156v127l188 21v-148h320l-21 -143h-299v-311q127 174 320 174q147 0 230 -88t83 -242v-774h-188v748q0 115 -44 161.5t-128 46.5t-149.5 -49t-123.5 -139v-768h-188v1241h-156z" />
<glyph unicode="&#x45c;" horiz-adv-x="1062" d="M195 0v1079h188v-434h141l273 434h207l-328 -499l366 -580h-223l-299 498h-137v-498h-188zM307 1407l408 233l84 -157l-434 -176z" />
<glyph unicode="&#x45d;" horiz-adv-x="1228" d="M195 0v1079h186v-487q0 -109 -8 -224.5t-13 -148.5l443 860h231v-1079h-186v487q0 123 8 233.5t14 145.5l-448 -866h-227zM389 1483l84 157l408 -233l-57 -100z" />
<glyph unicode="&#x45e;" horiz-adv-x="1007" d="M20 1079h201l289 -942l283 942h194l-360 -1085q-64 -189 -177.5 -298.5t-324.5 -131.5l-21 147q106 18 170 53t102 89.5t70 146.5h-63zM192 1556l125 27q20 -66 64.5 -94.5t118.5 -28.5t121 30t67 93l125 -27q-12 -111 -99 -175t-214 -64q-125 0 -210 64.5t-98 174.5z " />
<glyph unicode="&#x45f;" horiz-adv-x="1198" d="M195 0v1079h188v-925h432v925h189v-1079h-312v-307h-153l-31 307h-313z" />
<glyph unicode="&#x462;" horiz-adv-x="1413" d="M31 1245v166h1009l-20 -166h-393v-364h186q254 0 396.5 -108.5t142.5 -321.5q0 -233 -146.5 -342t-400.5 -109h-373v1245h-401zM627 156h194q156 0 240 63.5t84 226.5q0 152 -84 217.5t-246 65.5h-188v-573z" />
<glyph unicode="&#x463;" horiz-adv-x="1081" d="M51 956v144h172v223l189 23v-246h272l-22 -144h-250v-225h112q246 0 366 -89t120 -271q0 -186 -128 -278.5t-364 -92.5h-295v956h-172zM412 147h127q129 0 199.5 48.5t70.5 175.5q0 113 -66.5 165t-199.5 52h-131v-441z" />
<glyph unicode="&#x472;" horiz-adv-x="1417" d="M113 702q0 227 74.5 393.5t209.5 253.5t312 87q178 0 312 -85t209 -249t75 -397q0 -229 -75 -393.5t-209 -250.5t-312 -86t-312.5 84t-209 248t-74.5 395zM315 647q10 -264 115 -388t279 -124q178 0 281.5 124t111.5 388h-787zM315 791h787q-14 250 -116.5 367.5 t-276.5 117.5q-170 0 -273.5 -119t-120.5 -366z" />
<glyph unicode="&#x473;" horiz-adv-x="1196" d="M117 539q0 168 57 296t166 198.5t260 70.5q227 0 353 -151.5t126 -411.5q0 -168 -57 -296t-165.5 -199t-258.5 -71q-227 0 -354 152t-127 412zM319 477q20 -350 279 -350t279 350h-558zM322 621h555q-27 332 -277 331q-253 1 -278 -331z" />
<glyph unicode="&#x474;" horiz-adv-x="1140" d="M12 1411h209l354 -1204l285 971q29 92 51.5 146t57.5 112l192 -35q-39 -55 -66.5 -116.5t-60.5 -164.5l-358 -1120h-209z" />
<glyph unicode="&#x475;" horiz-adv-x="1007" d="M20 1079h201l287 -919l215 694q31 102 52.5 154.5t49.5 85.5l185 -25q-35 -53 -61.5 -113.5t-59.5 -156.5l-277 -799h-219z" />
<glyph unicode="&#x490;" horiz-adv-x="1040" d="M205 0v1411h626v260h189v-260l-29 -168h-592v-1243h-194z" />
<glyph unicode="&#x491;" horiz-adv-x="874" d="M195 0v1079h485v277h188v-277l-24 -155h-461v-924h-188z" />
<glyph unicode="&#x492;" horiz-adv-x="1056" d="M20 702v144h201v565h815l-28 -168h-592v-397h319v-144h-319v-702h-195v702h-201z" />
<glyph unicode="&#x493;" horiz-adv-x="903" d="M51 477v144h168v458h674l-25 -155h-460v-303h233v-144h-233v-477h-189v477h-168z" />
<glyph unicode="&#x496;" horiz-adv-x="1681" d="M10 0l412 750l-373 661h209l322 -590h168v590h186v-590h168l325 590h205l-372 -661l323 -590h143v-467h-153l-31 307h-90l-350 662h-168v-662h-186v662h-170l-353 -662h-215z" />
<glyph unicode="&#x497;" horiz-adv-x="1472" d="M41 0l309 573l-270 506h196l226 -442h143v442h180v-442h146l227 442h195l-271 -506l228 -421h135v-459h-154l-31 307h-75l-256 489h-144v-489h-180v489h-141l-258 -489h-205z" />
<glyph unicode="&#x498;" horiz-adv-x="1067" d="M20 166l115 110q131 -137 326 -137q145 0 225 72t80 197t-79 191.5t-232 66.5h-136l27 159h111q123 0 195.5 62.5t72.5 171.5q0 96 -59.5 156.5t-180.5 60.5q-170 0 -323 -131l-107 117q197 174 447 174q205 0 315.5 -101.5t110.5 -259.5q0 -129 -74 -210t-203 -109 q139 -14 231.5 -104.5t92.5 -245.5q0 -175 -118 -289.5t-308 -136.5q154 -100 153 -244q0 -104 -70.5 -167t-191.5 -63q-115 0 -200 52l47 110q35 -18 65.5 -27.5t75.5 -9.5q57 0 87 31t30 84q0 63 -38 123.5t-116 110.5q-111 12 -205 59t-166 127z" />
<glyph unicode="&#x499;" horiz-adv-x="1024" d="M31 111l98 116q72 -51 144.5 -75.5t166.5 -24.5q264 0 265 192q0 94 -75 132t-208 38h-143l12 148h110q113 0 182.5 41t69.5 127q0 80 -59 115.5t-158 35.5q-82 0 -145.5 -22.5t-126.5 -65.5l-92 113q82 61 176 92t213 31q102 0 191 -34t143.5 -98.5t54.5 -154.5 q0 -94 -52.5 -151.5t-164.5 -87.5q135 -23 204.5 -84.5t69.5 -176.5q0 -143 -97 -228t-257 -107q158 -98 158 -246q0 -104 -71 -167t-191 -63q-115 0 -201 52l47 110q35 -18 65.5 -27.5t75.5 -9.5q57 0 87 31t30 84q0 61 -37 120.5t-110 108.5q-217 10 -375 136z" />
<glyph unicode="&#x49a;" horiz-adv-x="1206" d="M205 0v1411h194v-590h195l348 590h205l-391 -661l338 -590h131v-467h-154l-31 307h-79l-369 662h-193v-662h-194z" />
<glyph unicode="&#x49b;" horiz-adv-x="1062" d="M195 0v1079h188v-434h141l273 434h207l-328 -499l270 -428h131v-459h-153l-31 307h-74l-299 498h-137v-498h-188z" />
<glyph unicode="&#x49c;" horiz-adv-x="1206" d="M205 0v1411h190v-592h84v348h111v-348h43l309 592h205l-365 -661l404 -750h-221l-334 664h-41v-357h-111v357h-84v-664h-190z" />
<glyph unicode="&#x49d;" horiz-adv-x="1089" d="M195 0v1079h188v-434h74v236h96v-236h45l213 434h199l-254 -497l293 -582h-209l-244 498h-43v-252h-96v252h-74v-498h-188z" />
<glyph unicode="&#x4a0;" horiz-adv-x="1345" d="M0 1245v166h539v-590h194l348 590h205l-391 -661l430 -750h-225l-369 662h-192v-662h-195v1245h-344z" />
<glyph unicode="&#x4a1;" horiz-adv-x="1171" d="M0 936v143h492v-434h141l272 434h207l-328 -499l367 -580h-223l-299 498h-137v-498h-189v936h-303z" />
<glyph unicode="&#x4a2;" horiz-adv-x="1392" d="M205 0v1411h194v-590h594v590h195v-1251h164v-467h-154l-31 307h-174v662h-594v-662h-194z" />
<glyph unicode="&#x4a3;" horiz-adv-x="1214" d="M195 0v1079h188v-452h448v452h189v-927h164v-459h-154l-31 307h-168v475h-448v-475h-188z" />
<glyph unicode="&#x4aa;" d="M113 707q0 231 77.5 396t211 249t296.5 84q127 0 214 -33t178 -107l-107 -125q-129 104 -272 105q-176 0 -284 -135t-108 -434q0 -291 106.5 -429.5t283.5 -138.5q90 0 155.5 31t143.5 88l98 -125q-53 -57 -137 -99t-191 -54q156 -100 156 -244q0 -104 -70.5 -167 t-191.5 -63q-115 0 -201 52l47 110q35 -18 65.5 -27.5t75.5 -9.5q57 0 87 31t30 84q0 63 -38 123.5t-115 110.5q-152 20 -266.5 109t-179 247t-64.5 371z" />
<glyph unicode="&#x4ab;" horiz-adv-x="978" d="M117 530q0 172 57 301.5t162.5 201t251.5 71.5q96 0 176 -27.5t154 -89.5l-93 -123q-55 43 -108 63.5t-121 20.5q-131 0 -204 -104.5t-73 -308.5q0 -205 72 -302.5t205 -97.5q66 0 118 20.5t113 67.5l91 -129q-124 -96 -265 -114q154 -98 154 -244q0 -104 -70.5 -167 t-191.5 -63q-115 0 -201 52l47 110q35 -18 65.5 -27.5t75.5 -9.5q57 0 87 31t30 84q0 66 -40 126t-120 112q-176 33 -274 175t-98 371z" />
<glyph unicode="&#x4ac;" horiz-adv-x="1058" d="M31 1245v166h1007l-20 -166h-391v-1085h164v-467h-154l-31 307h-174v1245h-401z" />
<glyph unicode="&#x4ad;" horiz-adv-x="923" d="M10 926v153h914l-23 -153h-346v-774h164v-459h-154l-30 307h-168v926h-357z" />
<glyph unicode="&#x4ae;" horiz-adv-x="1126" d="M10 1411h215l344 -698l344 698h203l-454 -868v-543h-197v541z" />
<glyph unicode="&#x4af;" horiz-adv-x="1007" d="M20 1079h201l287 -872l285 872h194l-391 -1048v-445l-184 -22v467z" />
<glyph unicode="&#x4b0;" horiz-adv-x="1126" d="M10 1411h215l344 -698l344 698h203l-411 -784h202v-144h-245v-483h-197v483h-246v144h201z" />
<glyph unicode="&#x4b1;" horiz-adv-x="1007" d="M20 1079h201l287 -872l285 872h194l-348 -932h170v-143h-213v-418l-184 -22v440h-213v143h170z" />
<glyph unicode="&#x4b2;" horiz-adv-x="1105" d="M10 0l424 752l-387 659h221l285 -530l287 530h209l-383 -649l340 -602h133v-467h-154l-31 307h-80l-325 625l-330 -625h-209z" />
<glyph unicode="&#x4b3;" horiz-adv-x="993" d="M10 0l377 569l-334 510h221l226 -395l227 395h213l-332 -501l277 -426h151v-459h-153l-31 307h-96l-264 457l-269 -457h-213z" />
<glyph unicode="&#x4b6;" horiz-adv-x="1253" d="M82 868v543h194v-528q0 -272 269 -273q186 0 309 119v682h195v-1251h163v-467h-153l-31 307h-174v569q-90 -68 -171 -96.5t-187 -28.5q-188 0 -301 115t-113 309z" />
<glyph unicode="&#x4b7;" horiz-adv-x="1130" d="M113 651v428h188v-405q0 -102 42 -148.5t130 -46.5q72 0 150.5 33t124.5 84v483h188v-927h164v-459h-154l-31 307h-167v451q-59 -55 -146.5 -87t-179.5 -32q-154 0 -231.5 83t-77.5 236z" />
<glyph unicode="&#x4b8;" horiz-adv-x="1263" d="M82 868v543h194v-528q0 -256 238 -273v496h121v-488q127 23 219 111v682h195v-1411h-195v569q-59 -43 -111.5 -70.5t-107.5 -39.5v-213h-121v198h-18q-188 0 -301 115t-113 309z" />
<glyph unicode="&#x4b9;" horiz-adv-x="1130" d="M113 651v428h188v-405q0 -100 39 -145.5t121 -49.5v320h112v-305q51 14 97.5 40.5t77.5 61.5v483h188v-1079h-188v451q-68 -63 -175 -97v-170h-112v150q-12 -2 -39 -2q-154 0 -231.5 83t-77.5 236z" />
<glyph unicode="&#x4ba;" horiz-adv-x="1241" d="M205 0v1411h194v-627q131 141 353 142q198 0 307.5 -118t109.5 -327v-481h-194v479q0 139 -65.5 210t-202.5 71q-100 0 -174 -38t-134 -114v-608h-194z" />
<glyph unicode="&#x4bb;" horiz-adv-x="1189" d="M195 0v1511l188 21v-719q59 78 140 123t179 45q148 0 231 -88t83 -242v-651h-189v625q0 115 -43 162t-127 47q-86 0 -151.5 -49.5t-122.5 -141.5v-643h-188z" />
<glyph unicode="&#x4c0;" horiz-adv-x="606" d="M205 0v1411h196v-1411h-196z" />
<glyph unicode="&#x4c1;" horiz-adv-x="1681" d="M10 0l412 750l-373 661h209l322 -590h168v590h186v-590h168l325 590h205l-372 -661l411 -750h-219l-350 662h-168v-662h-186v662h-170l-353 -662h-215zM530 1815l125 26q20 -66 64.5 -94.5t118.5 -28.5t121 30t67 93l125 -26q-12 -111 -99 -175.5t-214 -64.5 q-125 0 -210 64.5t-98 175.5z" />
<glyph unicode="&#x4c2;" horiz-adv-x="1472" d="M41 0l309 573l-270 506h196l226 -442h143v442h180v-442h146l227 442h195l-271 -506l310 -573h-207l-256 489h-144v-489h-180v489h-141l-258 -489h-205zM423 1556l125 27q20 -66 64.5 -94.5t118.5 -28.5t121 30t67 93l125 -27q-12 -111 -99 -175t-214 -64 q-125 0 -210 64.5t-98 174.5z" />
<glyph unicode="&#x4cb;" horiz-adv-x="1253" d="M82 868v543h194v-528q0 -272 269 -273q186 0 309 119v682h195v-1411h-175l-30 -307h-154v467h164v409q-90 -68 -171 -96.5t-187 -28.5q-188 0 -301 115t-113 309z" />
<glyph unicode="&#x4cc;" horiz-adv-x="1130" d="M113 672v407h188v-385q0 -102 42 -148t130 -46q72 0 150.5 32.5t124.5 83.5v463h188v-1079h-174l-31 -307h-153v459h170v319q-59 -55 -146.5 -87t-179.5 -32q-154 0 -231.5 83t-77.5 237z" />
<glyph unicode="&#x4cf;" horiz-adv-x="600" d="M184 213v1300l189 23v-1319q0 -45 15 -65.5t52 -20.5q39 0 70 12l49 -131q-76 -37 -160 -37q-104 0 -159.5 60.5t-55.5 177.5z" />
<glyph unicode="&#x4d0;" horiz-adv-x="1173" d="M12 0l453 1411h246l450 -1411h-205l-106 354h-535l-106 -354h-197zM276 1815l125 26q20 -66 64.5 -94.5t118.5 -28.5t121 30t67 93l125 -26q-12 -111 -99 -175.5t-214 -64.5q-125 0 -210 64.5t-98 175.5zM362 512h441l-219 737z" />
<glyph unicode="&#x4d1;" horiz-adv-x="1114" d="M92 301q0 172 124 264t351 92h166v80q0 115 -55 164t-170 49q-119 0 -291 -57l-47 137q201 74 373 74q190 0 284.5 -93t94.5 -266v-493q0 -66 22.5 -97.5t67.5 -48.5l-43 -131q-84 10 -135.5 47t-75.5 115q-109 -162 -322 -162q-160 0 -252 90.5t-92 235.5zM223 1556 l125 27q20 -66 64.5 -94.5t118.5 -28.5t121 30t67 93l125 -27q-12 -111 -99 -175t-214 -64q-125 0 -210 64.5t-98 174.5zM293 311q0 -96 47 -145t139 -49q162 0 254 168v247h-141q-299 0 -299 -221z" />
<glyph unicode="&#x4d2;" horiz-adv-x="1173" d="M12 0l453 1411h246l450 -1411h-205l-106 354h-535l-106 -354h-197zM254 1714q0 49 34 83t85 34q49 0 83 -34t34 -83t-34 -83t-83 -34q-51 0 -85 34t-34 83zM362 512h441l-219 737zM685 1714q0 49 33.5 83t82.5 34q51 0 85 -34t34 -83t-34 -83t-85 -34q-49 0 -82.5 34 t-33.5 83z" />
<glyph unicode="&#x4d3;" horiz-adv-x="1114" d="M92 301q0 172 124 264t351 92h166v80q0 115 -55 164t-170 49q-119 0 -291 -57l-47 137q201 74 373 74q190 0 284.5 -93t94.5 -266v-493q0 -66 22.5 -97.5t67.5 -48.5l-43 -131q-84 10 -135.5 47t-75.5 115q-109 -162 -322 -162q-160 0 -252 90.5t-92 235.5zM200 1456 q0 49 34 83t85 34q49 0 83 -34t34 -83t-34 -83t-83 -34q-51 0 -85 34t-34 83zM293 311q0 -96 47 -145t139 -49q162 0 254 168v247h-141q-299 0 -299 -221zM631 1456q0 49 33.5 83t82.5 34q51 0 85 -34t34 -83t-34 -83t-85 -34q-49 0 -82.5 34t-33.5 83z" />
<glyph unicode="&#x4d4;" horiz-adv-x="1671" d="M-25 0l562 1411h940l-23 -156h-633l115 -462h522v-156h-483l121 -481h465v-156h-623l-82 354h-549l-133 -354h-199zM367 512h452l-172 743z" />
<glyph unicode="&#x4d5;" horiz-adv-x="1748" d="M92 301q0 172 127 264t354 92h166v80q0 115 -55 164t-170 49q-119 0 -291 -57l-47 137q199 74 373 74q233 0 321 -172q117 172 326 172t322.5 -141.5t113.5 -391.5q0 -47 -4 -96h-688q12 -178 90 -262t201 -84q78 0 143.5 22.5t136.5 71.5l82 -112q-172 -135 -376 -136 q-129 0 -228.5 51.5t-161.5 147.5q-74 -106 -166 -152.5t-219 -46.5q-162 0 -256 90.5t-94 235.5zM299 311q0 -96 47 -145t139 -49q86 0 155 45t130 143q-31 98 -31 221v6h-141q-299 0 -299 -221zM940 614h506v13q0 160 -63.5 243.5t-190.5 83.5q-231 0 -252 -340z" />
<glyph unicode="&#x4d6;" horiz-adv-x="1095" d="M205 0v1411h764l-23 -156h-547v-460h475v-156h-475v-483h586v-156h-780zM241 1815l125 26q20 -66 64.5 -94.5t118.5 -28.5t121 30t67 93l125 -26q-12 -111 -99 -175.5t-214 -64.5q-125 0 -210 64.5t-98 175.5z" />
<glyph unicode="&#x4d7;" horiz-adv-x="1126" d="M117 528q0 168 54 298t155.5 204t238.5 74q215 0 330 -141.5t115 -391.5q0 -47 -4 -96h-689q12 -178 90 -262t201 -84q78 0 143.5 22.5t137.5 71.5l82 -112q-172 -135 -377 -136q-225 0 -351 147.5t-126 405.5zM247 1556l125 27q20 -66 64.5 -94.5t118.5 -28.5t121 30 t67 93l125 -27q-12 -111 -99 -175t-214 -64q-125 0 -210 64.5t-98 174.5zM317 614h506v13q0 160 -63.5 243.5t-190.5 83.5q-231 0 -252 -340z" />
<glyph unicode="&#x4d8;" horiz-adv-x="1329" d="M92 686q0 49 6 105h916q-8 254 -104.5 369.5t-272.5 115.5q-190 0 -367 -133l-100 119q199 174 475 174q270 0 421 -178.5t151 -528.5q0 -252 -73 -421t-200 -251t-293 -82q-272 0 -415.5 183.5t-143.5 527.5zM285 635q8 -504 358 -504q344 0 371 504h-729z" />
<glyph unicode="&#x4d9;" horiz-adv-x="1144" d="M117 508q0 68 4 96h706q-10 180 -77.5 263t-192.5 83q-78 0 -144.5 -22.5t-131.5 -77.5l-86 125q160 129 366 129q234 0 350.5 -148.5t116.5 -414.5q0 -172 -56.5 -300t-160.5 -197t-246 -69q-207 0 -327.5 142.5t-120.5 390.5zM301 449q0 -154 70.5 -239t193.5 -85 t189.5 80t74.5 260h-528v-16z" />
<glyph unicode="&#x4da;" horiz-adv-x="1329" d="M92 686q0 49 6 105h916q-8 254 -104.5 369.5t-272.5 115.5q-190 0 -367 -133l-100 119q199 174 475 174q270 0 421 -178.5t151 -528.5q0 -252 -73 -421t-200 -251t-293 -82q-272 0 -415.5 183.5t-143.5 527.5zM285 635q8 -504 358 -504q344 0 371 504h-729zM311 1714 q0 49 34 83t85 34q49 0 83 -34t34 -83t-34 -83t-83 -34q-51 0 -85 34t-34 83zM742 1714q0 49 33.5 83t82.5 34q51 0 85 -34t34 -83t-34 -83t-85 -34q-49 0 -82.5 34t-33.5 83z" />
<glyph unicode="&#x4db;" horiz-adv-x="1144" d="M117 508q0 68 4 96h706q-10 180 -77.5 263t-192.5 83q-78 0 -144.5 -22.5t-131.5 -77.5l-86 125q160 129 366 129q234 0 350.5 -148.5t116.5 -414.5q0 -172 -56.5 -300t-160.5 -197t-246 -69q-207 0 -327.5 142.5t-120.5 390.5zM245 1456q0 49 34 83t85 34q49 0 83 -34 t34 -83t-34 -83t-83 -34q-51 0 -85 34t-34 83zM301 449q0 -154 70.5 -239t193.5 -85t189.5 80t74.5 260h-528v-16zM676 1456q0 49 33.5 83t82.5 34q51 0 85 -34t34 -83t-34 -83t-85 -34q-49 0 -82.5 34t-33.5 83z" />
<glyph unicode="&#x4dc;" horiz-adv-x="1681" d="M10 0l412 750l-373 661h209l322 -590h168v590h186v-590h168l325 590h205l-372 -661l411 -750h-219l-350 662h-168v-662h-186v662h-170l-353 -662h-215zM507 1714q0 49 34 83t85 34q49 0 83 -34t34 -83t-34 -83t-83 -34q-51 0 -85 34t-34 83zM938 1714q0 49 33.5 83 t82.5 34q51 0 85 -34t34 -83t-34 -83t-85 -34q-49 0 -82.5 34t-33.5 83z" />
<glyph unicode="&#x4dd;" horiz-adv-x="1472" d="M41 0l309 573l-270 506h196l226 -442h143v442h180v-442h146l227 442h195l-271 -506l310 -573h-207l-256 489h-144v-489h-180v489h-141l-258 -489h-205zM401 1456q0 49 34 83t85 34q49 0 83 -34t34 -83t-34 -83t-83 -34q-51 0 -85 34t-34 83zM832 1456q0 49 33.5 83 t82.5 34q51 0 85 -34t34 -83t-34 -83t-85 -34q-49 0 -82.5 34t-33.5 83z" />
<glyph unicode="&#x4de;" horiz-adv-x="1067" d="M20 166l115 110q131 -137 326 -137q145 0 225 72t80 197t-79 191.5t-232 66.5h-136l27 159h111q123 0 195.5 62.5t72.5 171.5q0 96 -59.5 156.5t-180.5 60.5q-170 0 -323 -131l-107 117q197 174 447 174q205 0 315.5 -101.5t110.5 -259.5q0 -129 -74 -210t-203 -109 q139 -14 231.5 -104.5t92.5 -245.5q0 -127 -64.5 -224.5t-179.5 -152t-260 -54.5q-133 0 -250 48.5t-201 142.5zM204 1714q0 49 34 83t85 34q49 0 83 -34t34 -83t-34 -83t-83 -34q-51 0 -85 34t-34 83zM635 1714q0 49 33.5 83t82.5 34q51 0 85 -34t34 -83t-34 -83t-85 -34 q-49 0 -82.5 34t-33.5 83z" />
<glyph unicode="&#x4df;" horiz-adv-x="1024" d="M31 111l98 116q72 -51 144.5 -75.5t166.5 -24.5q264 0 265 192q0 94 -75 132t-208 38h-143l12 148h110q113 0 182.5 41t69.5 127q0 80 -59 115.5t-158 35.5q-82 0 -145.5 -22.5t-126.5 -65.5l-92 113q82 61 176 92t213 31q102 0 191 -34t143.5 -98.5t54.5 -154.5 q0 -94 -52.5 -151.5t-164.5 -87.5q135 -23 204.5 -84.5t69.5 -176.5q0 -168 -130 -255t-331 -87q-244 0 -415 136zM127 1456q0 49 34 83t85 34q49 0 83 -34t34 -83t-34 -83t-83 -34q-51 0 -85 34t-34 83zM558 1456q0 49 33.5 83t82.5 34q51 0 85 -34t34 -83t-34 -83t-85 -34 q-49 0 -82.5 34t-33.5 83z" />
<glyph unicode="&#x4e2;" horiz-adv-x="1398" d="M205 0v1411h194v-688q0 -287 -26 -512l577 1200h244v-1411h-195v688q0 240 27 506l-571 -1194h-250zM419 1612v141h560v-141h-560z" />
<glyph unicode="&#x4e3;" horiz-adv-x="1228" d="M195 0v1079h186v-487q0 -109 -8 -224.5t-13 -148.5l443 860h231v-1079h-186v487q0 123 8 233.5t14 145.5l-448 -866h-227zM333 1366v141h560v-141h-560z" />
<glyph unicode="&#x4e4;" horiz-adv-x="1398" d="M205 0v1411h194v-688q0 -287 -26 -512l577 1200h244v-1411h-195v688q0 240 27 506l-571 -1194h-250zM366 1714q0 49 34 83t85 34q49 0 83 -34t34 -83t-34 -83t-83 -34q-51 0 -85 34t-34 83zM797 1714q0 49 33.5 83t82.5 34q51 0 85 -34t34 -83t-34 -83t-85 -34 q-49 0 -82.5 34t-33.5 83z" />
<glyph unicode="&#x4e5;" horiz-adv-x="1228" d="M195 0v1079h186v-487q0 -109 -8 -224.5t-13 -148.5l443 860h231v-1079h-186v487q0 123 8 233.5t14 145.5l-448 -866h-227zM280 1456q0 49 34 83t85 34q49 0 83 -34t34 -83t-34 -83t-83 -34q-51 0 -85 34t-34 83zM711 1456q0 49 33.5 83t82.5 34q51 0 85 -34t34 -83 t-34 -83t-85 -34q-49 0 -82.5 34t-33.5 83z" />
<glyph unicode="&#x4e6;" horiz-adv-x="1417" d="M113 702q0 227 74.5 393.5t209.5 253.5t312 87q178 0 312 -85t209 -249t75 -397q0 -229 -75 -393.5t-209 -250.5t-312 -86t-312.5 84t-209 248t-74.5 395zM319 702q0 -293 103.5 -430t286.5 -137q389 0 389 570q0 571 -389 571q-185 0 -287.5 -139.5t-102.5 -434.5z M383 1714q0 49 34 83t85 34q49 0 83 -34t34 -83t-34 -83t-83 -34q-51 0 -85 34t-34 83zM814 1714q0 49 33.5 83t82.5 34q51 0 85 -34t34 -83t-34 -83t-85 -34q-49 0 -82.5 34t-33.5 83z" />
<glyph unicode="&#x4e7;" horiz-adv-x="1196" d="M117 539q0 168 57 296t166 198.5t260 70.5q227 0 353 -151.5t126 -411.5q0 -168 -57 -296t-165.5 -199t-258.5 -71q-227 0 -354 152t-127 412zM264 1456q0 49 34 83t85 34q49 0 83 -34t34 -83t-34 -83t-83 -34q-51 0 -85 34t-34 83zM319 539q0 -412 279 -412t279 414 q0 412 -277 411q-281 1 -281 -413zM695 1456q0 49 33.5 83t82.5 34q51 0 85 -34t34 -83t-34 -83t-85 -34q-49 0 -82.5 34t-33.5 83z" />
<glyph unicode="&#x4e8;" horiz-adv-x="1417" d="M113 702q0 227 74.5 393.5t209.5 253.5t312 87q178 0 312 -85t209 -249t75 -397q0 -229 -75 -393.5t-209 -250.5t-312 -86t-312.5 84t-209 248t-74.5 395zM315 647q10 -264 115 -388t279 -124q178 0 281.5 124t111.5 388h-787zM315 791h787q-14 250 -116.5 367.5 t-276.5 117.5q-170 0 -273.5 -119t-120.5 -366z" />
<glyph unicode="&#x4e9;" horiz-adv-x="1196" d="M117 539q0 168 57 296t166 198.5t260 70.5q227 0 353 -151.5t126 -411.5q0 -168 -57 -296t-165.5 -199t-258.5 -71q-227 0 -354 152t-127 412zM319 477q20 -350 279 -350t279 350h-558zM322 621h555q-27 332 -277 331q-253 1 -278 -331z" />
<glyph unicode="&#x4ea;" horiz-adv-x="1417" d="M113 702q0 227 74.5 393.5t209.5 253.5t312 87q178 0 312 -85t209 -249t75 -397q0 -229 -75 -393.5t-209 -250.5t-312 -86t-312.5 84t-209 248t-74.5 395zM315 647q10 -264 115 -388t279 -124q178 0 281.5 124t111.5 388h-787zM315 791h787q-14 250 -116.5 367.5 t-276.5 117.5q-170 0 -273.5 -119t-120.5 -366zM374 1714q0 49 34 83t85 34q49 0 83 -34t34 -83t-34 -83t-83 -34q-51 0 -85 34t-34 83zM805 1714q0 49 33.5 83t82.5 34q51 0 85 -34t34 -83t-34 -83t-85 -34q-49 0 -82.5 34t-33.5 83z" />
<glyph unicode="&#x4eb;" horiz-adv-x="1196" d="M117 539q0 168 57 296t166 198.5t260 70.5q227 0 353 -151.5t126 -411.5q0 -168 -57 -296t-165.5 -199t-258.5 -71q-227 0 -354 152t-127 412zM262 1456q0 49 34 83t85 34q49 0 83 -34t34 -83t-34 -83t-83 -34q-51 0 -85 34t-34 83zM319 477q20 -350 279 -350t279 350 h-558zM322 621h555q-27 332 -277 331q-253 1 -278 -331zM693 1456q0 49 33.5 83t82.5 34q51 0 85 -34t34 -83t-34 -83t-85 -34q-49 0 -82.5 34t-33.5 83z" />
<glyph unicode="&#x4ec;" horiz-adv-x="1114" d="M51 1290q88 72 186.5 109t223.5 37q250 0 395 -178.5t145 -550.5q0 -352 -144 -542t-404 -190q-131 0 -226.5 41t-171.5 111l99 125q70 -55 134 -84t158 -29q336 0 349 508h-547v160h545q-10 246 -99.5 357.5t-238.5 111.5q-92 0 -158 -24.5t-145 -82.5zM153 1714 q0 49 34 83t85 34q49 0 83 -34t34 -83t-34 -83t-83 -34q-51 0 -85 34t-34 83zM584 1714q0 49 33.5 83t82.5 34q51 0 85 -34t34 -83t-34 -83t-85 -34q-49 0 -82.5 34t-33.5 83z" />
<glyph unicode="&#x4ed;" horiz-adv-x="991" d="M61 94l91 121q59 -45 115.5 -65.5t133.5 -20.5q119 0 192 85t83 267h-440v144h440q-12 170 -75.5 249.5t-186.5 79.5q-72 0 -133.5 -19.5t-122.5 -62.5l-86 115q72 59 156.5 88t193.5 29q213 0 332.5 -147.5t119.5 -415.5q0 -266 -120.5 -416t-350.5 -150 q-201 0 -342 119zM112 1456q0 49 34 83t85 34q49 0 83 -34t34 -83t-34 -83t-83 -34q-51 0 -85 34t-34 83zM543 1456q0 49 33.5 83t82.5 34q51 0 85 -34t34 -83t-34 -83t-85 -34q-49 0 -82.5 34t-33.5 83z" />
<glyph unicode="&#x4ee;" horiz-adv-x="1105" d="M0 1411h203l379 -905l338 905h196l-409 -1030q-56 -139 -117.5 -219t-147.5 -123t-217 -64l-28 142q143 29 212.5 85t114.5 185h-71zM272 1612v141h560v-141h-560z" />
<glyph unicode="&#x4ef;" horiz-adv-x="1007" d="M20 1079h201l289 -942l283 942h194l-360 -1085q-64 -189 -177.5 -298.5t-324.5 -131.5l-21 147q106 18 170 53t102 89.5t70 146.5h-63zM223 1366v141h560v-141h-560z" />
<glyph unicode="&#x4f0;" horiz-adv-x="1105" d="M0 1411h203l379 -905l338 905h196l-409 -1030q-56 -139 -117.5 -219t-147.5 -123t-217 -64l-28 142q143 29 212.5 85t114.5 185h-71zM219 1714q0 49 34 83t85 34q49 0 83 -34t34 -83t-34 -83t-83 -34q-51 0 -85 34t-34 83zM650 1714q0 49 33.5 83t82.5 34q51 0 85 -34 t34 -83t-34 -83t-85 -34q-49 0 -82.5 34t-33.5 83z" />
<glyph unicode="&#x4f1;" horiz-adv-x="1007" d="M20 1079h201l289 -942l283 942h194l-360 -1085q-64 -189 -177.5 -298.5t-324.5 -131.5l-21 147q106 18 170 53t102 89.5t70 146.5h-63zM170 1456q0 49 34 83t85 34q49 0 83 -34t34 -83t-34 -83t-83 -34q-51 0 -85 34t-34 83zM601 1456q0 49 33.5 83t82.5 34q51 0 85 -34 t34 -83t-34 -83t-85 -34q-49 0 -82.5 34t-33.5 83z" />
<glyph unicode="&#x4f2;" horiz-adv-x="1105" d="M0 1411h203l379 -905l338 905h196l-409 -1030q-56 -139 -117.5 -219t-147.5 -123t-217 -64l-28 142q143 29 212.5 85t114.5 185h-71zM321 1618l156 344l160 -84l-197 -311zM612 1608l176 354l160 -84l-217 -322z" />
<glyph unicode="&#x4f3;" horiz-adv-x="1007" d="M20 1079h201l289 -942l283 942h194l-360 -1085q-64 -189 -177.5 -298.5t-324.5 -131.5l-21 147q106 18 170 53t102 89.5t70 146.5h-63zM288 1360l156 344l160 -84l-197 -311zM579 1350l176 354l160 -84l-217 -322z" />
<glyph unicode="&#x4f4;" horiz-adv-x="1253" d="M82 868v543h194v-528q0 -272 269 -273q186 0 309 119v682h195v-1411h-195v569q-90 -68 -171 -96.5t-187 -28.5q-188 0 -301 115t-113 309zM231 1714q0 49 34 83t85 34q49 0 83 -34t34 -83t-34 -83t-83 -34q-51 0 -85 34t-34 83zM662 1714q0 49 33.5 83t82.5 34 q51 0 85 -34t34 -83t-34 -83t-85 -34q-49 0 -82.5 34t-33.5 83z" />
<glyph unicode="&#x4f5;" horiz-adv-x="1130" d="M113 651v428h188v-405q0 -102 42 -148.5t130 -46.5q72 0 150.5 33t124.5 84v483h188v-1079h-188v451q-59 -55 -146.5 -87t-179.5 -32q-154 0 -231.5 83t-77.5 236zM190 1456q0 49 34 83t85 34q49 0 83 -34t34 -83t-34 -83t-83 -34q-51 0 -85 34t-34 83zM621 1456 q0 49 33.5 83t82.5 34q51 0 85 -34t34 -83t-34 -83t-85 -34q-49 0 -82.5 34t-33.5 83z" />
<glyph unicode="&#x4f6;" horiz-adv-x="1040" d="M205 0v1411h815l-29 -168h-592v-1083h164v-467h-153l-31 307h-174z" />
<glyph unicode="&#x4f7;" horiz-adv-x="878" d="M195 0v1079h673l-24 -155h-461v-772h164v-459h-154l-31 307h-167z" />
<glyph unicode="&#x4f8;" horiz-adv-x="1677" d="M205 0v1411h194v-518h160q258 0 401.5 -109.5t143.5 -326.5q0 -238 -146.5 -347.5t-400.5 -109.5h-352zM399 156h174q156 0 240 64.5t84 232.5q0 156 -84 222t-252 66h-162v-585zM499 1714q0 49 34 83t85 34q49 0 83 -34t34 -83t-34 -83t-83 -34q-51 0 -85 34t-34 83z M930 1714q0 49 33.5 83t82.5 34q51 0 85 -34t34 -83t-34 -83t-85 -34q-49 0 -82.5 34t-33.5 83zM1278 0v1411h195v-1411h-195z" />
<glyph unicode="&#x4f9;" horiz-adv-x="1503" d="M195 0v1079h188v-348h123q242 0 350.5 -94t108.5 -268q0 -182 -122 -275.5t-302 -93.5h-346zM383 147h141q115 0 177.5 51.5t62.5 170.5q0 113 -58.5 166t-201.5 53h-121v-441zM417 1456q0 49 34 83t85 34q49 0 83 -34t34 -83t-34 -83t-83 -34q-51 0 -85 34t-34 83z M848 1456q0 49 33.5 83t82.5 34q51 0 85 -34t34 -83t-34 -83t-85 -34q-49 0 -82.5 34t-33.5 83zM1120 0v1079h189v-1079h-189z" />
<glyph unicode="&#x51c;" horiz-adv-x="1691" d="M51 1411h191l227 -1241l272 1241h207l279 -1241l235 1241h178l-286 -1411h-250l-260 1182l-262 -1182h-244z" />
<glyph unicode="&#x51d;" horiz-adv-x="1468" d="M41 1079h188l195 -948l213 948h211l203 -948l196 948h180l-245 -1079h-256l-189 909l-194 -909h-250z" />
<glyph unicode="&#x524;" horiz-adv-x="1382" d="M205 0v1411h973v-1251h163v-467h-153l-31 307h-174v1245h-584v-1245h-194z" />
<glyph unicode="&#x525;" horiz-adv-x="1208" d="M195 0v1079h819v-927h164v-459h-154l-31 307h-168v926h-442v-926h-188z" />
<glyph unicode="&#x526;" horiz-adv-x="1241" d="M205 0v1411h194v-627q131 141 353 142q199 0 308 -118t109 -327v-321h164v-467h-153l-31 307h-174v479q0 139 -65.5 210t-202.5 71q-100 0 -174 -38t-134 -114v-608h-194z" />
<glyph unicode="&#x527;" horiz-adv-x="1189" d="M195 0v1511l188 21v-719q59 78 140 123t179 45q147 0 230.5 -88t83.5 -242v-499h155v-459h-153l-31 307h-160v625q0 115 -43 162t-127 47q-86 0 -151.5 -49.5t-122.5 -141.5v-643h-188z" />
<glyph unicode="&#x1e80;" horiz-adv-x="1691" d="M51 1411h191l227 -1241l272 1241h207l279 -1241l235 1241h178l-286 -1411h-250l-260 1182l-262 -1182h-244zM579 1708l80 158l412 -219l-49 -101z" />
<glyph unicode="&#x1e81;" horiz-adv-x="1468" d="M41 1079h188l195 -948l213 948h211l203 -948l196 948h180l-245 -1079h-256l-189 909l-194 -909h-250zM510 1483l84 157l408 -233l-57 -100z" />
<glyph unicode="&#x1e82;" horiz-adv-x="1691" d="M51 1411h191l227 -1241l272 1241h207l279 -1241l235 1241h178l-286 -1411h-250l-260 1182l-262 -1182h-244zM604 1647l410 219l82 -158l-442 -162z" />
<glyph unicode="&#x1e83;" horiz-adv-x="1468" d="M41 1079h188l195 -948l213 948h211l203 -948l196 948h180l-245 -1079h-256l-189 909l-194 -909h-250zM469 1407l408 233l84 -157l-434 -176z" />
<glyph unicode="&#x1e84;" horiz-adv-x="1691" d="M51 1411h191l227 -1241l272 1241h207l279 -1241l235 1241h178l-286 -1411h-250l-260 1182l-262 -1182h-244zM512 1714q0 49 34 83t85 34q49 0 83 -34t34 -83t-34 -83t-83 -34q-51 0 -85 34t-34 83zM943 1714q0 49 33.5 83t82.5 34q51 0 85 -34t34 -83t-34 -83t-85 -34 q-49 0 -82.5 34t-33.5 83z" />
<glyph unicode="&#x1e85;" horiz-adv-x="1468" d="M41 1079h188l195 -948l213 948h211l203 -948l196 948h180l-245 -1079h-256l-189 909l-194 -909h-250zM401 1456q0 49 34 83t85 34q49 0 83 -34t34 -83t-34 -83t-83 -34q-51 0 -85 34t-34 83zM832 1456q0 49 33.5 83t82.5 34q51 0 85 -34t34 -83t-34 -83t-85 -34 q-49 0 -82.5 34t-33.5 83z" />
<glyph unicode="&#x1ef2;" horiz-adv-x="1126" d="M10 1411h215l344 -698l344 698h203l-454 -868v-543h-197v541zM303 1708l80 158l412 -219l-49 -101z" />
<glyph unicode="&#x1ef3;" horiz-adv-x="1007" d="M20 1079h201l289 -942l283 942h194l-360 -1085q-64 -189 -177.5 -298.5t-324.5 -131.5l-21 147q106 18 170 53t102 89.5t70 146.5h-63zM278 1483l84 157l408 -233l-57 -100z" />
<glyph unicode="&#x1f70;" horiz-adv-x="1216" d="M119 530q0 258 105.5 416t299.5 158q144 0 225.5 -77t112.5 -257l56 309h172l-113 -567l53 -274q8 -43 28.5 -68t65.5 -41l-65 -156q-72 12 -126 61.5t-67 133.5l-18 115q-100 -307 -336 -308q-188 0 -290.5 140.5t-102.5 414.5zM319 530q0 -207 53.5 -306t159.5 -99 q88 0 162 90t119 332q-39 231 -103.5 319t-168.5 88q-107 0 -164.5 -108.5t-57.5 -315.5zM342 1483l84 157l408 -233l-57 -100z" />
<glyph unicode="&#x1f71;" horiz-adv-x="1216" d="M119 530q0 258 105.5 416t299.5 158q144 0 225.5 -77t112.5 -257l56 309h172l-113 -567l53 -274q8 -43 28.5 -68t65.5 -41l-65 -156q-72 12 -126 61.5t-67 133.5l-18 115q-100 -307 -336 -308q-188 0 -290.5 140.5t-102.5 414.5zM301 1407l408 233l84 -157l-434 -176z M319 530q0 -207 53.5 -306t159.5 -99q88 0 162 90t119 332q-39 231 -103.5 319t-168.5 88q-107 0 -164.5 -108.5t-57.5 -315.5z" />
<glyph unicode="&#x1f72;" horiz-adv-x="958" d="M117 295q0 250 270 280q-106 18 -166.5 84t-60.5 156q0 135 102.5 212t276.5 77q207 0 350 -100l-92 -115q-55 35 -110.5 51t-129.5 16q-98 0 -150.5 -42t-52.5 -119q0 -72 57.5 -115t155.5 -43h125l-22 -148h-115q-125 0 -178 -41.5t-53 -138.5q0 -82 60 -132t167 -50 q80 0 145.5 23.5t141.5 72.5l90 -121q-76 -61 -176.5 -94t-210.5 -33q-193 0 -308.5 85t-115.5 235zM303 1483l84 157l408 -233l-57 -100z" />
<glyph unicode="&#x1f73;" horiz-adv-x="958" d="M117 295q0 250 270 280q-106 18 -166.5 84t-60.5 156q0 135 102.5 212t276.5 77q207 0 350 -100l-92 -115q-55 35 -110.5 51t-129.5 16q-98 0 -150.5 -42t-52.5 -119q0 -72 57.5 -115t155.5 -43h125l-22 -148h-115q-125 0 -178 -41.5t-53 -138.5q0 -82 60 -132t167 -50 q80 0 145.5 23.5t141.5 72.5l90 -121q-76 -61 -176.5 -94t-210.5 -33q-193 0 -308.5 85t-115.5 235zM262 1407l408 233l84 -157l-434 -176z" />
<glyph unicode="&#x1f74;" horiz-adv-x="1212" d="M154 1079l172 25q37 -78 55 -191q57 88 143 139.5t191 51.5q147 0 230 -88t83 -242v-1210l-188 22v1162q0 115 -43 161.5t-127 46.5q-86 0 -151.5 -49t-123.5 -141v-766h-188v731q0 109 -14.5 188.5t-38.5 159.5zM376 1483l84 157l408 -233l-57 -100z" />
<glyph unicode="&#x1f75;" horiz-adv-x="1212" d="M154 1079l172 25q37 -78 55 -191q57 88 143 139.5t191 51.5q147 0 230 -88t83 -242v-1210l-188 22v1162q0 115 -43 161.5t-127 46.5q-86 0 -151.5 -49t-123.5 -141v-766h-188v731q0 109 -14.5 188.5t-38.5 159.5zM335 1407l408 233l84 -157l-434 -176z" />
<glyph unicode="&#x1f76;" horiz-adv-x="565" d="M53 1483l84 157l408 -233l-57 -100zM184 266v813h189v-790q0 -78 20.5 -113t73.5 -59l-59 -142q-125 27 -174.5 93.5t-49.5 197.5z" />
<glyph unicode="&#x1f77;" horiz-adv-x="565" d="M12 1407l408 233l84 -157l-434 -176zM184 266v813h189v-790q0 -78 20.5 -113t73.5 -59l-59 -142q-125 27 -174.5 93.5t-49.5 197.5z" />
<glyph unicode="&#x1f78;" horiz-adv-x="1196" d="M117 539q0 168 57 296t166 198.5t260 70.5q227 0 353 -151.5t126 -411.5q0 -168 -57 -296t-165.5 -199t-258.5 -71q-227 0 -354 152t-127 412zM319 539q0 -412 279 -412t279 414q0 412 -277 411q-281 1 -281 -413zM372 1483l84 157l408 -233l-57 -100z" />
<glyph unicode="&#x1f79;" horiz-adv-x="1196" d="M117 539q0 168 57 296t166 198.5t260 70.5q227 0 353 -151.5t126 -411.5q0 -168 -57 -296t-165.5 -199t-258.5 -71q-227 0 -354 152t-127 412zM319 539q0 -412 279 -412t279 414q0 412 -277 411q-281 1 -281 -413zM331 1407l408 233l84 -157l-434 -176z" />
<glyph unicode="&#x1f7a;" horiz-adv-x="1169" d="M184 334v745h189v-729q0 -111 50 -167t136 -56q66 0 129.5 39t105.5 131t42 242q0 264 -54 540h191q53 -289 53 -557q0 -184 -68.5 -307t-176 -181.5t-230.5 -58.5q-162 0 -264.5 93.5t-102.5 265.5zM366 1483l84 157l408 -233l-57 -100z" />
<glyph unicode="&#x1f7b;" horiz-adv-x="1169" d="M184 334v745h189v-729q0 -111 50 -167t136 -56q66 0 129.5 39t105.5 131t42 242q0 264 -54 540h191q53 -289 53 -557q0 -184 -68.5 -307t-176 -181.5t-230.5 -58.5q-162 0 -264.5 93.5t-102.5 265.5zM325 1407l408 233l84 -157l-434 -176z" />
<glyph unicode="&#x1f7c;" horiz-adv-x="1593" d="M133 489q0 170 34 312.5t89 277.5h188q-63 -172 -91.5 -304t-28.5 -261q0 -205 51 -296t153 -91q86 0 132.5 51t46.5 193v356l180 25v-381q0 -244 172 -244q211 0 211 365q0 141 -30 276t-95 311h188q58 -141 92.5 -281.5t34.5 -308.5q0 -258 -106.5 -386t-274.5 -128 q-115 0 -188.5 61.5t-91.5 186.5q-27 -129 -99.5 -188.5t-199.5 -59.5q-162 0 -264.5 126t-102.5 388zM571 1483l84 157l408 -233l-57 -100z" />
<glyph unicode="&#x1f7d;" horiz-adv-x="1593" d="M133 489q0 170 34 312.5t89 277.5h188q-63 -172 -91.5 -304t-28.5 -261q0 -205 51 -296t153 -91q86 0 132.5 51t46.5 193v356l180 25v-381q0 -244 172 -244q211 0 211 365q0 141 -30 276t-95 311h188q58 -141 92.5 -281.5t34.5 -308.5q0 -258 -106.5 -386t-274.5 -128 q-115 0 -188.5 61.5t-91.5 186.5q-27 -129 -99.5 -188.5t-199.5 -59.5q-162 0 -264.5 126t-102.5 388zM530 1407l408 233l84 -157l-434 -176z" />
<glyph unicode="&#x1fb0;" horiz-adv-x="1216" d="M119 530q0 258 105.5 416t299.5 158q144 0 225.5 -77t112.5 -257l56 309h172l-113 -567l53 -274q8 -43 28.5 -68t65.5 -41l-65 -156q-72 12 -126 61.5t-67 133.5l-18 115q-100 -307 -336 -308q-188 0 -290.5 140.5t-102.5 414.5zM256 1589l125 27q43 -156 183 -156 q145 0 188 156l125 -27q-12 -127 -99 -199.5t-214 -72.5q-125 0 -210 72.5t-98 199.5zM319 530q0 -207 53.5 -306t159.5 -99q88 0 162 90t119 332q-39 231 -103.5 319t-168.5 88q-107 0 -164.5 -108.5t-57.5 -315.5z" />
<glyph unicode="&#x1fb1;" horiz-adv-x="1216" d="M119 530q0 258 105.5 416t299.5 158q144 0 225.5 -77t112.5 -257l56 309h172l-113 -567l53 -274q8 -43 28.5 -68t65.5 -41l-65 -156q-72 12 -126 61.5t-67 133.5l-18 115q-100 -307 -336 -308q-188 0 -290.5 140.5t-102.5 414.5zM286 1366v141h560v-141h-560zM319 530 q0 -207 53.5 -306t159.5 -99q88 0 162 90t119 332q-39 231 -103.5 319t-168.5 88q-107 0 -164.5 -108.5t-57.5 -315.5z" />
<glyph unicode="&#x1fb6;" horiz-adv-x="1216" d="M119 530q0 258 105.5 416t299.5 158q144 0 225.5 -77t112.5 -257l56 309h172l-113 -567l53 -274q8 -43 28.5 -68t65.5 -41l-65 -156q-72 12 -126 61.5t-67 133.5l-18 115q-100 -307 -336 -308q-188 0 -290.5 140.5t-102.5 414.5zM225 1405q39 82 95.5 131t130.5 49 q41 0 70.5 -14.5t70.5 -40.5q29 -23 50.5 -33t43.5 -10q31 0 55.5 21.5t53.5 68.5l114 -57q-39 -86 -95 -131.5t-122 -45.5q-45 0 -78.5 15.5t-72.5 44.5q-29 20 -49.5 29.5t-42.5 9.5q-33 0 -57.5 -22.5t-51.5 -71.5zM319 530q0 -207 53.5 -306t159.5 -99q88 0 162 90 t119 332q-39 231 -103.5 319t-168.5 88q-107 0 -164.5 -108.5t-57.5 -315.5z" />
<glyph unicode="&#x1fb8;" horiz-adv-x="1173" d="M12 0l453 1411h246l450 -1411h-205l-106 354h-535l-106 -354h-197zM268 1804l125 27q47 -135 183 -135q70 0 118 35.5t70 99.5l125 -27q-12 -113 -100 -182.5t-213 -69.5q-123 0 -209 70t-99 182zM362 512h441l-219 737z" />
<glyph unicode="&#x1fb9;" horiz-adv-x="1173" d="M12 0l453 1411h246l450 -1411h-205l-106 354h-535l-106 -354h-197zM299 1612v141h560v-141h-560zM362 512h441l-219 737z" />
<glyph unicode="&#x1fba;" horiz-adv-x="1173" d="M12 0l453 1411h246l450 -1411h-205l-106 354h-535l-106 -354h-197zM313 1708l80 158l412 -219l-49 -101zM362 512h441l-219 737z" />
<glyph unicode="&#x1fbb;" horiz-adv-x="1173" d="M12 0l453 1411h246l450 -1411h-205l-106 354h-535l-106 -354h-197zM337 1647l410 219l82 -158l-442 -162zM362 512h441l-219 737z" />
<glyph unicode="&#x1fc0;" horiz-adv-x="806" d="M61 1405q39 82 95.5 131t130.5 49q41 0 70.5 -14.5t70.5 -40.5q29 -23 50.5 -33t43.5 -10q31 0 55.5 21.5t53.5 68.5l114 -57q-39 -86 -95 -131.5t-122 -45.5q-45 0 -78.5 15.5t-72.5 44.5q-29 20 -49.5 29.5t-42.5 9.5q-33 0 -57.5 -22.5t-51.5 -71.5z" />
<glyph unicode="&#x1fc6;" horiz-adv-x="1212" d="M154 1079l172 25q37 -78 55 -191q57 88 143 139.5t191 51.5q147 0 230 -88t83 -242v-1210l-188 22v1162q0 115 -43 161.5t-127 46.5q-86 0 -151.5 -49t-123.5 -141v-766h-188v731q0 109 -14.5 188.5t-38.5 159.5zM260 1405q39 82 95.5 131t130.5 49q41 0 70.5 -14.5 t70.5 -40.5q29 -23 50.5 -33t43.5 -10q31 0 55.5 21.5t53.5 68.5l114 -57q-39 -86 -95 -131.5t-122 -45.5q-45 0 -78.5 15.5t-72.5 44.5q-29 20 -49.5 29.5t-42.5 9.5q-33 0 -57.5 -22.5t-51.5 -71.5z" />
<glyph unicode="&#x1fc8;" horiz-adv-x="1095" d="M205 0v1411h764l-23 -156h-547v-460h475v-156h-475v-483h586v-156h-780zM327 1708l80 158l412 -219l-49 -101z" />
<glyph unicode="&#x1fc9;" horiz-adv-x="1095" d="M205 0v1411h764l-23 -156h-547v-460h475v-156h-475v-483h586v-156h-780zM352 1647l410 219l82 -158l-442 -162z" />
<glyph unicode="&#x1fca;" horiz-adv-x="1392" d="M205 0v1411h194v-590h594v590h195v-1411h-195v662h-594v-662h-194zM430 1708l80 158l412 -219l-49 -101z" />
<glyph unicode="&#x1fcb;" horiz-adv-x="1392" d="M205 0v1411h194v-590h594v590h195v-1411h-195v662h-594v-662h-194zM454 1647l410 219l82 -158l-442 -162z" />
<glyph unicode="&#x1fd0;" horiz-adv-x="565" d="M-33 1589l125 27q43 -156 183 -156q145 0 188 156l125 -27q-12 -127 -99 -199.5t-214 -72.5q-125 0 -210 72.5t-98 199.5zM184 266v813h189v-790q0 -78 20.5 -113t73.5 -59l-59 -142q-125 27 -174.5 93.5t-49.5 197.5z" />
<glyph unicode="&#x1fd1;" horiz-adv-x="565" d="M-2 1366v141h560v-141h-560zM184 266v813h189v-790q0 -78 20.5 -113t73.5 -59l-59 -142q-125 27 -174.5 93.5t-49.5 197.5z" />
<glyph unicode="&#x1fd2;" horiz-adv-x="565" d="M-55 1436q0 49 33.5 82.5t84.5 33.5q50 0 83.5 -33.5t33.5 -82.5t-33.5 -83t-83.5 -34q-51 0 -84.5 33.5t-33.5 83.5zM33 1790l84 158l407 -234l-57 -100zM184 266v813h189v-790q0 -78 20.5 -113t73.5 -59l-59 -142q-125 27 -174.5 93.5t-49.5 197.5zM375 1436 q0 49 33.5 82.5t83.5 33.5q51 0 84.5 -33.5t33.5 -82.5t-33.5 -83t-84.5 -34q-49 0 -83 33.5t-34 83.5z" />
<glyph unicode="&#x1fd3;" horiz-adv-x="565" d="M-55 1436q0 49 33.5 82.5t84.5 33.5q50 0 83.5 -33.5t33.5 -82.5t-33.5 -83t-83.5 -34q-51 0 -84.5 33.5t-33.5 83.5zM31 1714l407 234l84 -158l-434 -176zM184 266v813h189v-790q0 -78 20.5 -113t73.5 -59l-59 -142q-125 27 -174.5 93.5t-49.5 197.5zM375 1436 q0 49 33.5 82.5t83.5 33.5q51 0 84.5 -33.5t33.5 -82.5t-33.5 -83t-84.5 -34q-49 0 -83 33.5t-34 83.5z" />
<glyph unicode="&#x1fd6;" horiz-adv-x="565" d="M-64 1405q39 82 95.5 131t130.5 49q41 0 70.5 -14.5t70.5 -40.5q29 -23 50.5 -33t43.5 -10q31 0 55.5 21.5t53.5 68.5l114 -57q-39 -86 -95 -131.5t-122 -45.5q-45 0 -78.5 15.5t-72.5 44.5q-29 20 -49.5 29.5t-42.5 9.5q-33 0 -57.5 -22.5t-51.5 -71.5zM184 266v813h189 v-790q0 -78 20.5 -113t73.5 -59l-59 -142q-125 27 -174.5 93.5t-49.5 197.5z" />
<glyph unicode="&#x1fd7;" horiz-adv-x="565" d="M-64 1712q39 82 95.5 131t130.5 49q41 0 70.5 -14.5t70.5 -40.5q29 -23 50.5 -33t43.5 -10q31 0 55.5 21.5t53.5 68.5l114 -57q-39 -86 -95 -131.5t-122 -45.5q-45 0 -78.5 15.5t-72.5 44.5q-29 20 -49.5 29.5t-42.5 9.5q-33 0 -57.5 -22.5t-51.5 -71.5zM-56 1456 q0 49 34 83t85 34q49 0 83 -34t34 -83t-34 -83t-83 -34q-51 0 -85 34t-34 83zM184 266v813h189v-790q0 -78 20.5 -113t73.5 -59l-59 -142q-125 27 -174.5 93.5t-49.5 197.5zM375 1456q0 49 33.5 83t82.5 34q51 0 85 -34t34 -83t-34 -83t-85 -34q-49 0 -82.5 34t-33.5 83z " />
<glyph unicode="&#x1fd8;" horiz-adv-x="606" d="M-9 1804l125 27q47 -135 183 -135q70 0 118 35.5t70 99.5l125 -27q-12 -113 -100 -182.5t-213 -69.5q-123 0 -209 70t-99 182zM205 0v1411h196v-1411h-196z" />
<glyph unicode="&#x1fd9;" horiz-adv-x="606" d="M22 1612v141h560v-141h-560zM205 0v1411h196v-1411h-196z" />
<glyph unicode="&#x1fda;" horiz-adv-x="606" d="M36 1708l80 158l412 -219l-49 -101zM205 0v1411h196v-1411h-196z" />
<glyph unicode="&#x1fdb;" horiz-adv-x="606" d="M61 1647l410 219l82 -158l-442 -162zM205 0v1411h196v-1411h-196z" />
<glyph unicode="&#x1fe0;" horiz-adv-x="1169" d="M184 334v745h189v-729q0 -111 50 -167t136 -56q66 0 129.5 39t105.5 131t42 242q0 264 -54 540h191q53 -289 53 -557q0 -184 -68.5 -307t-176 -181.5t-230.5 -58.5q-162 0 -264.5 93.5t-102.5 265.5zM280 1589l125 27q43 -156 183 -156q145 0 188 156l125 -27 q-12 -127 -99 -199.5t-214 -72.5q-125 0 -210 72.5t-98 199.5z" />
<glyph unicode="&#x1fe1;" horiz-adv-x="1169" d="M184 334v745h189v-729q0 -111 50 -167t136 -56q66 0 129.5 39t105.5 131t42 242q0 264 -54 540h191q53 -289 53 -557q0 -184 -68.5 -307t-176 -181.5t-230.5 -58.5q-162 0 -264.5 93.5t-102.5 265.5zM311 1366v141h560v-141h-560z" />
<glyph unicode="&#x1fe2;" horiz-adv-x="1169" d="M184 334v745h189v-729q0 -111 50 -167t136 -56q66 0 129.5 39t105.5 131t42 242q0 264 -54 540h191q53 -289 53 -557q0 -184 -68.5 -307t-176 -181.5t-230.5 -58.5q-162 0 -264.5 93.5t-102.5 265.5zM258 1436q0 49 34 82.5t85 33.5q49 0 83 -33.5t34 -82.5t-34 -83 t-83 -34q-51 0 -85 33.5t-34 83.5zM346 1790l84 158l408 -234l-58 -100zM688 1436q0 49 34 82.5t83 33.5q51 0 85 -33.5t34 -82.5t-34 -83t-85 -34q-49 0 -83 33.5t-34 83.5z" />
<glyph unicode="&#x1fe3;" horiz-adv-x="1169" d="M184 334v745h189v-729q0 -111 50 -167t136 -56q66 0 129.5 39t105.5 131t42 242q0 264 -54 540h191q53 -289 53 -557q0 -184 -68.5 -307t-176 -181.5t-230.5 -58.5q-162 0 -264.5 93.5t-102.5 265.5zM258 1436q0 49 34 82.5t85 33.5q49 0 83 -33.5t34 -82.5t-34 -83 t-83 -34q-51 0 -85 33.5t-34 83.5zM344 1714l408 234l84 -158l-435 -176zM688 1436q0 49 34 82.5t83 33.5q51 0 85 -33.5t34 -82.5t-34 -83t-85 -34q-49 0 -83 33.5t-34 83.5z" />
<glyph unicode="&#x1fe6;" horiz-adv-x="1169" d="M184 334v745h189v-729q0 -111 50 -167t136 -56q66 0 129.5 39t105.5 131t42 242q0 264 -54 540h191q53 -289 53 -557q0 -184 -68.5 -307t-176 -181.5t-230.5 -58.5q-162 0 -264.5 93.5t-102.5 265.5zM249 1405q39 82 95.5 131t130.5 49q41 0 70.5 -14.5t70.5 -40.5 q29 -23 50.5 -33t43.5 -10q31 0 55.5 21.5t53.5 68.5l114 -57q-39 -86 -95 -131.5t-122 -45.5q-45 0 -78.5 15.5t-72.5 44.5q-29 20 -49.5 29.5t-42.5 9.5q-33 0 -57.5 -22.5t-51.5 -71.5z" />
<glyph unicode="&#x1fe7;" horiz-adv-x="1169" d="M184 334v745h189v-729q0 -111 50 -167t136 -56q66 0 129.5 39t105.5 131t42 242q0 264 -54 540h191q53 -289 53 -557q0 -184 -68.5 -307t-176 -181.5t-230.5 -58.5q-162 0 -264.5 93.5t-102.5 265.5zM249 1712q39 82 95.5 131t130.5 49q41 0 70.5 -14.5t70.5 -40.5 q29 -23 50.5 -33t43.5 -10q31 0 55.5 21.5t53.5 68.5l114 -57q-39 -86 -95 -131.5t-122 -45.5q-45 0 -78.5 15.5t-72.5 44.5q-29 20 -49.5 29.5t-42.5 9.5q-33 0 -57.5 -22.5t-51.5 -71.5zM258 1456q0 49 34 83t85 34q49 0 83 -34t34 -83t-34 -83t-83 -34q-51 0 -85 34 t-34 83zM689 1456q0 49 33.5 83t82.5 34q51 0 85 -34t34 -83t-34 -83t-85 -34q-49 0 -82.5 34t-33.5 83z" />
<glyph unicode="&#x1fe8;" horiz-adv-x="1126" d="M10 1411h215l344 -698l344 698h203l-454 -868v-543h-197v541zM258 1804l125 27q47 -135 183 -135q70 0 118 35.5t70 99.5l125 -27q-12 -113 -100 -182.5t-213 -69.5q-123 0 -209 70t-99 182z" />
<glyph unicode="&#x1fe9;" horiz-adv-x="1126" d="M10 1411h215l344 -698l344 698h203l-454 -868v-543h-197v541zM288 1612v141h560v-141h-560z" />
<glyph unicode="&#x1fea;" horiz-adv-x="1126" d="M10 1411h215l344 -698l344 698h203l-454 -868v-543h-197v541zM303 1708l80 158l412 -219l-49 -101z" />
<glyph unicode="&#x1feb;" horiz-adv-x="1126" d="M10 1411h215l344 -698l344 698h203l-454 -868v-543h-197v541zM327 1647l410 219l82 -158l-442 -162z" />
<glyph unicode="&#x1ff6;" horiz-adv-x="1593" d="M133 489q0 170 34 312.5t89 277.5h188q-63 -172 -91.5 -304t-28.5 -261q0 -205 51 -296t153 -91q86 0 132.5 51t46.5 193v356l180 25v-381q0 -244 172 -244q211 0 211 365q0 141 -30 276t-95 311h188q58 -141 92.5 -281.5t34.5 -308.5q0 -258 -106.5 -386t-274.5 -128 q-115 0 -188.5 61.5t-91.5 186.5q-27 -129 -99.5 -188.5t-199.5 -59.5q-162 0 -264.5 126t-102.5 388zM454 1405q39 82 95.5 131t130.5 49q41 0 70.5 -14.5t70.5 -40.5q29 -23 50.5 -33t43.5 -10q31 0 55.5 21.5t53.5 68.5l114 -57q-39 -86 -95 -131.5t-122 -45.5 q-45 0 -78.5 15.5t-72.5 44.5q-29 20 -49.5 29.5t-42.5 9.5q-33 0 -57.5 -22.5t-51.5 -71.5z" />
<glyph unicode="&#x1ff8;" horiz-adv-x="1417" d="M113 702q0 227 74.5 393.5t209.5 253.5t312 87q178 0 312 -85t209 -249t75 -397q0 -229 -75 -393.5t-209 -250.5t-312 -86t-312.5 84t-209 248t-74.5 395zM319 702q0 -293 103.5 -430t286.5 -137q389 0 389 570q0 571 -389 571q-185 0 -287.5 -139.5t-102.5 -434.5z M450 1708l80 158l412 -219l-49 -101z" />
<glyph unicode="&#x1ff9;" horiz-adv-x="1417" d="M113 702q0 227 74.5 393.5t209.5 253.5t312 87q178 0 312 -85t209 -249t75 -397q0 -229 -75 -393.5t-209 -250.5t-312 -86t-312.5 84t-209 248t-74.5 395zM319 702q0 -293 103.5 -430t286.5 -137q389 0 389 570q0 571 -389 571q-185 0 -287.5 -139.5t-102.5 -434.5z M475 1647l410 219l82 -158l-442 -162z" />
<glyph unicode="&#x1ffa;" horiz-adv-x="1417" d="M113 723q0 219 74.5 380t209.5 247t312 86q182 0 316 -83t207 -244t73 -384q0 -221 -59.5 -349t-211.5 -212h226v-164h-441v164q145 49 212 184t67 377q0 281 -101.5 416t-287.5 135q-184 0 -287 -136t-103 -417q0 -252 69 -381t208 -178v-164h-440v164h213 q-137 74 -196.5 205t-59.5 354zM438 1708l80 158l412 -219l-49 -101z" />
<glyph unicode="&#x1ffb;" horiz-adv-x="1417" d="M113 723q0 219 74.5 380t209.5 247t312 86q182 0 316 -83t207 -244t73 -384q0 -221 -59.5 -349t-211.5 -212h226v-164h-441v164q145 49 212 184t67 377q0 281 -101.5 416t-287.5 135q-184 0 -287 -136t-103 -417q0 -252 69 -381t208 -178v-164h-440v164h213 q-137 74 -196.5 205t-59.5 354zM462 1647l410 219l82 -158l-442 -162z" />
<glyph unicode="&#x2000;" horiz-adv-x="1075" />
<glyph unicode="&#x2001;" horiz-adv-x="2150" />
<glyph unicode="&#x2002;" horiz-adv-x="1075" />
<glyph unicode="&#x2003;" horiz-adv-x="2150" />
<glyph unicode="&#x2004;" horiz-adv-x="716" />
<glyph unicode="&#x2005;" horiz-adv-x="537" />
<glyph unicode="&#x2006;" horiz-adv-x="358" />
<glyph unicode="&#x2007;" />
<glyph unicode="&#x2008;" horiz-adv-x="542" />
<glyph unicode="&#x2009;" horiz-adv-x="430" />
<glyph unicode="&#x200a;" horiz-adv-x="119" />
<glyph unicode="&#x200b;" horiz-adv-x="0" />
<glyph unicode="&#x200c;" horiz-adv-x="0" d="M-16 -307v1843h32v-1843h-32z" />
<glyph unicode="&#x200d;" horiz-adv-x="0" d="M-139 1419l116 117l-110 111l22 22l111 -110l111 110l22 -22l-110 -111l116 -117l-22 -22l-101 100v-1804h-32v1804l-101 -100z" />
<glyph unicode="&#x200e;" horiz-adv-x="0" d="M-16 -307v1859h227l-88 113l27 18l112 -147l-112 -147l-27 18l88 113h-195v-1827h-32z" />
<glyph unicode="&#x200f;" horiz-adv-x="0" d="M-262 1536l112 147l27 -18l-88 -113h227v-1859h-32v1827h-195l88 -113l-27 -18z" />
<glyph unicode="&#x2010;" horiz-adv-x="825" d="M123 561v160h579v-160h-579z" />
<glyph unicode="&#x2011;" horiz-adv-x="825" d="M123 561v160h579v-160h-579z" />
<glyph unicode="&#x2012;" d="M51 602v160h1045v-160h-1045z" />
<glyph unicode="&#x2013;" horiz-adv-x="1064" d="M66 561v160h933v-160h-933z" />
<glyph unicode="&#x2014;" horiz-adv-x="1617" d="M66 561v160h1486v-160h-1486z" />
<glyph unicode="&#x2015;" horiz-adv-x="1064" d="M66 561v160h933v-160h-933z" />
<glyph unicode="&#x2018;" horiz-adv-x="466" d="M82 1133q0 25 7.5 50.5t27.5 68.5l137 290h123l-82 -307q53 -41 53 -102q0 -53 -39.5 -91t-93.5 -38q-55 0 -94 38t-39 91z" />
<glyph unicode="&#x2019;" horiz-adv-x="466" d="M82 1004l82 307q-53 41 -53 102q0 53 39.5 91t93.5 38q55 0 94 -38t39 -91q0 -25 -7.5 -50.5t-27.5 -68.5l-137 -290h-123z" />
<glyph unicode="&#x201a;" horiz-adv-x="466" d="M82 -319l82 307q-53 41 -53 102q0 53 39.5 91t93.5 38q55 0 94 -38t39 -91q0 -25 -7.5 -50.5t-27.5 -68.5l-137 -290h-123z" />
<glyph unicode="&#x201c;" horiz-adv-x="831" d="M82 1133q0 25 7 50t28 68l137 291h123l-82 -307q53 -41 53 -102q0 -53 -40 -91t-93 -38q-55 0 -94 37.5t-39 91.5zM446 1133q0 25 7.5 50t27.5 68l137 291h123l-82 -307q53 -41 54 -102q0 -53 -40 -91t-93 -38q-56 0 -95 37.5t-39 91.5z" />
<glyph unicode="&#x201d;" horiz-adv-x="831" d="M82 1004l82 307q-53 41 -53 102q0 53 39.5 91t93.5 38q55 0 94 -38t39 -91q0 -25 -7.5 -50.5t-27.5 -68.5l-137 -290h-123zM446 1004l82 307q-53 41 -53 102q0 53 40 91t93 38q56 0 94.5 -38t38.5 -91q0 -25 -7 -50.5t-27 -68.5l-138 -290h-123z" />
<glyph unicode="&#x201e;" horiz-adv-x="831" d="M82 -319l82 307q-53 41 -53 102q0 53 39.5 91t93.5 38q55 0 94 -38t39 -91q0 -25 -7.5 -50.5t-27.5 -68.5l-137 -290h-123zM447 -319l82 307q-53 41 -53 102q0 53 39.5 91t93.5 38q55 0 94 -38t39 -91q0 -25 -7.5 -50.5t-27.5 -68.5l-137 -290h-123z" />
<glyph unicode="&#x2020;" horiz-adv-x="1044" d="M86 911v158h346v301h180v-301h346v-158h-346v-911h-180v911h-346z" />
<glyph unicode="&#x2021;" horiz-adv-x="1044" d="M86 326v157h346v428h-346v158h346v301h180v-301h346v-158h-346v-428h346v-157h-346v-326h-180v326h-346z" />
<glyph unicode="&#x2022;" horiz-adv-x="663" d="M102 700q0 98 65.5 164t164.5 66q98 0 163.5 -66.5t65.5 -165.5q0 -98 -65.5 -163.5t-163.5 -65.5t-164 66.5t-66 164.5z" />
<glyph unicode="&#x2026;" horiz-adv-x="1511" d="M102 119q0 59 41 100t101 41q61 0 102 -41t41 -100t-41 -101.5t-102 -42.5q-59 0 -100.5 42t-41.5 102zM612 119q0 59 41 100t101 41q61 0 102 -41t41 -100t-41 -101.5t-102 -42.5q-59 0 -100.5 42t-41.5 102zM1122 119q0 59 41 100t101 41q61 0 102 -41t41 -100 t-41 -101.5t-102 -42.5q-59 0 -100.5 42t-41.5 102z" />
<glyph unicode="&#x202f;" horiz-adv-x="430" />
<glyph unicode="&#x2030;" horiz-adv-x="2433" d="M92 1044q0 158 93.5 252.5t238.5 94.5q147 0 240.5 -94.5t93.5 -252.5t-93.5 -252t-240.5 -94q-145 0 -238.5 94.5t-93.5 251.5zM258 1044q0 -94 38 -156.5t128 -62.5q166 0 166 219q0 94 -37 157t-129 63q-90 0 -128 -61.5t-38 -158.5zM307 23l948 1433l131 -86 l-948 -1433zM934 322q0 158 93 252t241 94q147 0 239 -94.5t92 -251.5q0 -158 -92 -252.5t-239 -94.5t-240.5 94.5t-93.5 252.5zM1102 322q0 -94 38 -157t128 -63q166 0 166 220q0 94 -37 155.5t-129 61.5q-90 0 -128 -60.5t-38 -156.5zM1675 322q0 158 93.5 252t240.5 94 q148 0 240 -94.5t92 -251.5q0 -158 -92 -252.5t-240 -94.5q-147 0 -240.5 94.5t-93.5 252.5zM1843 322q0 -94 38 -157t128 -63q166 0 166 220q0 94 -37 155.5t-129 61.5q-90 0 -128 -60.5t-38 -156.5z" />
<glyph unicode="&#x2039;" horiz-adv-x="696" d="M113 522v129l358 445l113 -78l-277 -430l277 -430l-113 -78z" />
<glyph unicode="&#x203a;" horiz-adv-x="696" d="M113 158l276 430l-276 430l112 78l359 -445v-129l-359 -442z" />
<glyph unicode="&#x2044;" horiz-adv-x="270" d="M-342 -100l834 1636l120 -59l-831 -1637z" />
<glyph unicode="&#x205f;" horiz-adv-x="537" />
<glyph unicode="&#x2070;" horiz-adv-x="819" d="M94 1085q0 215 80 328.5t236 113.5q155 0 235 -113.5t80 -328.5t-80 -329.5t-235 -114.5q-156 0 -236 114.5t-80 329.5zM260 1085q0 -176 36 -250t114 -74t114.5 74t36.5 250t-37 249t-114 73q-78 0 -114 -74t-36 -248z" />
<glyph unicode="&#x2074;" horiz-adv-x="819" d="M86 856v110l262 561l135 -51l-231 -498h217l14 216h140v-216h108v-122h-108v-197h-156v197h-381z" />
<glyph unicode="&#x2075;" horiz-adv-x="819" d="M106 759l95 88q76 -82 180 -82q78 0 123 44.5t45 128.5q0 160 -148 159q-57 0 -118 -30h-117v446h512l-21 -119h-338v-213q68 31 138 31q115 0 185.5 -73.5t70.5 -200.5q0 -133 -90.5 -215t-237.5 -82q-164 0 -279 118z" />
<glyph unicode="&#x2076;" horiz-adv-x="819" d="M100 1054q0 215 96.5 344t264.5 129q109 0 192 -53l-59 -100q-68 37 -131 37q-88 0 -140.5 -74t-60.5 -205q84 96 207 96q109 0 179.5 -73.5t70.5 -204.5q0 -135 -85 -222t-216 -87q-164 0 -241 109.5t-77 303.5zM264 1019q4 -137 39 -198.5t115 -61.5q69 0 105 50.5 t36 136.5q0 166 -129 166q-96 0 -166 -93z" />
<glyph unicode="&#x2077;" horiz-adv-x="819" d="M137 1388v125h545v-113l-332 -757l-145 49l313 696h-381z" />
<glyph unicode="&#x2078;" horiz-adv-x="819" d="M86 886q0 76 44 129.5t128 87.5q-135 70 -135 201q0 100 84 161.5t205 61.5t203.5 -57t82.5 -160q0 -121 -147 -192q182 -80 182 -230q0 -106 -90 -176.5t-235 -70.5t-233.5 69.5t-88.5 175.5zM250 890q0 -61 43 -96t117 -35q75 0 118 36t43 93q0 59 -36.5 93t-133.5 65 l-41 14q-111 -53 -110 -170zM279 1302q0 -53 33.5 -83t107.5 -52l24 -10q53 33 76 66.5t23 80.5q0 51 -34 82t-97 31q-62 0 -97.5 -30t-35.5 -85z" />
<glyph unicode="&#x2079;" horiz-adv-x="819" d="M102 1241q0 131 88.5 208.5t217.5 77.5q149 0 229 -89t80 -240q0 -174 -54.5 -285t-164 -177.5t-293.5 -109.5l-33 115q176 43 268 115.5t107 197.5q-31 -41 -81 -66.5t-114 -25.5q-106 0 -178 76t-72 203zM262 1243q0 -84 36 -124t97 -40q95 0 158 92q2 129 -32 184.5 t-111 55.5q-70 0 -109 -44t-39 -124z" />
<glyph unicode="&#x207a;" horiz-adv-x="821" d="M152 995v133h186v183h145v-183h187v-133h-187v-178h-145v178h-186z" />
<glyph unicode="&#x207b;" horiz-adv-x="819" d="M152 995v133h516v-133h-516z" />
<glyph unicode="&#x207c;" horiz-adv-x="819" d="M152 874v132h516v-132h-516zM152 1122v131h516v-131h-516z" />
<glyph unicode="&#x207d;" horiz-adv-x="808" d="M236 964q0 143 30.5 256t78.5 199t128 203l100 -68q-94 -143 -138 -272t-44 -318q0 -188 44 -317t138 -273l-100 -67q-80 117 -128 203t-78.5 198.5t-30.5 255.5z" />
<glyph unicode="&#x207e;" horiz-adv-x="808" d="M236 374q94 143 138 272.5t44 317.5t-44 317.5t-138 272.5l100 68q80 -117 128 -203t78.5 -198.5t30.5 -256.5q0 -143 -30.5 -255.5t-78.5 -198.5t-128 -203z" />
<glyph unicode="&#x2080;" horiz-adv-x="819" d="M94 12q0 215 80 328.5t236 113.5q155 0 235 -113.5t80 -328.5t-80 -329.5t-235 -114.5q-156 0 -236 114.5t-80 329.5zM260 12q0 -176 36 -250t114 -74t114.5 74t36.5 250t-37 249t-114 73q-78 0 -114 -74t-36 -248z" />
<glyph unicode="&#x2081;" horiz-adv-x="819" d="M133 270l287 170h141v-854h-158v692l-200 -117z" />
<glyph unicode="&#x2082;" horiz-adv-x="819" d="M113 315q113 139 286 139q131 0 208 -69.5t77 -175.5q0 -70 -34 -134.5t-109.5 -146.5t-223.5 -215h388l-17 -127h-551v119q172 166 246 244.5t105.5 134t31.5 112.5q0 61 -37 96t-96 35q-53 0 -92 -20.5t-82 -69.5z" />
<glyph unicode="&#x2083;" horiz-adv-x="819" d="M106 -310l93 86q78 -84 184 -84q76 0 120 39t44 107q0 74 -42 105.5t-122 31.5h-70l19 115h47q66 0 106.5 33.5t40.5 95.5q0 53 -36.5 84t-98.5 31q-51 0 -94 -18.5t-86 -57.5l-82 90q119 106 274 106q132 0 206.5 -61.5t74.5 -153.5q0 -78 -47 -129t-129 -71 q90 -8 147.5 -61.5t57.5 -147.5q0 -113 -87 -187.5t-235 -74.5q-178 0 -285 122z" />
<glyph unicode="&#x2084;" horiz-adv-x="819" d="M86 -107l262 561l135 -51l-231 -498h217l14 216h140v-216h108v-122h-108v-197h-156v197h-381v110z" />
<glyph unicode="&#x2085;" horiz-adv-x="819" d="M106 -314l95 88q76 -82 180 -82q78 0 123 44.5t45 128.5q0 160 -148 159q-57 0 -118 -30h-117v446h512l-21 -119h-338v-213q68 31 138 31q115 0 185.5 -73.5t70.5 -200.5q0 -133 -90.5 -215t-237.5 -82q-164 0 -279 118z" />
<glyph unicode="&#x2086;" horiz-adv-x="819" d="M100 -19q0 215 96.5 344t264.5 129q109 0 192 -53l-59 -100q-68 37 -131 37q-88 0 -140.5 -74t-60.5 -205q84 96 207 96q109 0 179.5 -73.5t70.5 -204.5q0 -135 -85 -222t-216 -87q-164 0 -241 109.5t-77 303.5zM264 -54q4 -137 39 -198.5t115 -61.5q69 0 105 50.5 t36 136.5q0 166 -129 166q-96 0 -166 -93z" />
<glyph unicode="&#x2087;" horiz-adv-x="819" d="M137 315v125h545v-113l-332 -757l-145 49l313 696h-381z" />
<glyph unicode="&#x2088;" horiz-adv-x="819" d="M86 -187q0 76 44 129.5t128 87.5q-135 70 -135 201q0 100 84 161.5t205 61.5t203.5 -57t82.5 -160q0 -121 -147 -192q182 -80 182 -230q0 -106 -90 -176.5t-235 -70.5t-233.5 69.5t-88.5 175.5zM250 -183q0 -61 43 -96t117 -35q75 0 118 36t43 93q0 59 -36.5 93 t-133.5 65l-41 14q-111 -53 -110 -170zM279 229q0 -53 33.5 -83t107.5 -52l24 -10q53 33 76 66.5t23 80.5q0 51 -34 82t-97 31q-62 0 -97.5 -30t-35.5 -85z" />
<glyph unicode="&#x2089;" horiz-adv-x="819" d="M102 168q0 131 88.5 208.5t217.5 77.5q149 0 229 -89t80 -240q0 -174 -54.5 -285t-164 -177.5t-293.5 -109.5l-33 115q176 43 268 115.5t107 197.5q-31 -41 -81 -66.5t-114 -25.5q-106 0 -178 76t-72 203zM262 170q0 -84 36 -124t97 -40q95 0 158 92q2 129 -32 184.5 t-111 55.5q-70 0 -109 -44t-39 -124z" />
<glyph unicode="&#x208a;" horiz-adv-x="821" d="M152 59h186v183h145v-183h187v-133h-187v-178h-145v178h-186v133z" />
<glyph unicode="&#x208b;" horiz-adv-x="819" d="M152 59h516v-133h-516v133z" />
<glyph unicode="&#x208c;" horiz-adv-x="819" d="M152 53v131h516v-131h-516zM152 -66h516v-131h-516v131z" />
<glyph unicode="&#x208d;" horiz-adv-x="808" d="M236 -27q0 143 30.5 256t78.5 199t128 203l100 -68q-94 -143 -138 -272t-44 -318q0 -188 44 -317t138 -273l-100 -67q-80 117 -128 203t-78.5 198.5t-30.5 255.5z" />
<glyph unicode="&#x208e;" horiz-adv-x="808" d="M236 563l100 68q80 -117 128 -203t78.5 -198.5t30.5 -256.5q0 -143 -30.5 -255.5t-78.5 -198.5t-128 -203l-100 67q94 143 138 272.5t44 317.5t-44 317.5t-138 272.5z" />
<glyph unicode="&#x20ac;" horiz-adv-x="1179" d="M51 473l31 125h143v184h-174l31 127h151q49 229 188.5 355.5t334.5 126.5q203 0 372 -115l-73 -129q-78 47 -143.5 67.5t-147.5 20.5q-252 0 -326 -326h523l-31 -127h-504v-184h465l-29 -125h-430q27 -178 109 -259t235 -81q80 0 146.5 22.5t140.5 61.5v-164 q-78 -37 -151.5 -57.5t-163.5 -20.5q-211 0 -343.5 127t-173.5 371h-180z" />
<glyph unicode="&#x2116;" horiz-adv-x="2330" d="M205 0v1411h254l579 -1200q-6 53 -16 186t-10 244v770h182v-1411h-260l-574 1198q12 -141 19.5 -261t7.5 -290v-647h-182zM1384 983q0 133 49.5 235.5t140.5 160t212 57.5q186 0 293.5 -123t107.5 -330q0 -203 -108.5 -329t-292.5 -126t-293 124t-109 331zM1401 0v158 h770v-158h-770zM1569 983q0 -160 56 -237.5t161 -77.5q104 0 160.5 77.5t56.5 237.5q0 158 -56.5 235.5t-160.5 77.5q-105 0 -161 -77.5t-56 -235.5z" />
<glyph unicode="&#x2122;" horiz-adv-x="1806" d="M72 1280v131h690l-25 -131h-248v-670h-157v670h-260zM807 610l33 801h215l186 -559l170 559h221l31 -801h-154l-18 432q-2 47 -2 115q0 57 6 119h-2l-184 -582h-138l-202 578h-2q6 -63 6 -144q0 -57 -2 -86l-17 -432h-147z" />
<glyph unicode="&#x2126;" horiz-adv-x="1417" d="M113 723q0 219 74.5 380t209.5 247t312 86q182 0 316 -83t207 -244t73 -384q0 -221 -59.5 -349t-211.5 -212h226v-164h-441v164q145 49 212 184t67 377q0 281 -101.5 416t-287.5 135q-184 0 -287 -136t-103 -417q0 -252 69 -381t208 -178v-164h-440v164h213 q-137 74 -196.5 205t-59.5 354z" />
<glyph unicode="&#x212e;" horiz-adv-x="1935" d="M143 711q0 211 111 383t300 271t413 99q219 0 408.5 -98t303 -274.5t113.5 -397.5h-1346v-446q62 -92 214.5 -145.5t308.5 -53.5q154 0 302 52.5t230 148.5h119q-115 -135 -279.5 -208t-373.5 -73q-231 0 -420 95.5t-296.5 265.5t-107.5 381zM446 776h1043v400 q-192 208 -520 208q-176 0 -309.5 -54t-213.5 -152v-402z" />
<glyph unicode="&#x2153;" horiz-adv-x="1908" d="M133 1241l287 170h141v-854h-158v692l-200 -116zM477 -100l834 1636l120 -59l-831 -1637zM1196 104l93 86q78 -84 184 -84q76 0 120 39t44 107q0 74 -42 105.5t-122 31.5h-70l19 115h47q66 0 106.5 33.5t40.5 95.5q0 53 -36.5 84t-98.5 31q-51 0 -94 -18.5t-86 -57.5 l-82 90q119 106 274 106q132 0 206.5 -61.5t74.5 -153.5q0 -78 -47 -129t-129 -71q90 -8 147.5 -61.5t57.5 -147.5q0 -113 -87 -187.5t-235 -74.5q-178 0 -285 122z" />
<glyph unicode="&#x2154;" horiz-adv-x="1908" d="M113 1286q113 139 286 139q131 0 208 -69.5t77 -175.5q0 -70 -34 -134.5t-109.5 -146.5t-223.5 -215h388l-17 -127h-551v119q172 166 246 244.5t105.5 134t31.5 112.5q0 61 -37 96t-96 35q-53 0 -92 -20.5t-82 -69.5zM477 -100l834 1636l120 -59l-831 -1637zM1196 104 l93 86q78 -84 184 -84q76 0 120 39t44 107q0 74 -42 105.5t-122 31.5h-70l19 115h47q66 0 106.5 33.5t40.5 95.5q0 53 -36.5 84t-98.5 31q-51 0 -94 -18.5t-86 -57.5l-82 90q119 106 274 106q132 0 206.5 -61.5t74.5 -153.5q0 -78 -47 -129t-129 -71q90 -8 147.5 -61.5 t57.5 -147.5q0 -113 -87 -187.5t-235 -74.5q-178 0 -285 122z" />
<glyph unicode="&#x2155;" horiz-adv-x="1908" d="M133 1241l287 170h141v-854h-158v692l-200 -116zM477 -100l834 1636l120 -59l-831 -1637zM1196 100l95 88q76 -82 180 -82q78 0 123 44.5t45 128.5q0 160 -148 159q-57 0 -118 -30h-117v446h512l-21 -119h-338v-213q68 31 138 31q115 0 185.5 -73.5t70.5 -200.5 q0 -133 -90.5 -215t-237.5 -82q-164 0 -279 118z" />
<glyph unicode="&#x2156;" horiz-adv-x="1908" d="M113 1286q113 139 286 139q131 0 208 -69.5t77 -175.5q0 -70 -34 -134.5t-109.5 -146.5t-223.5 -215h388l-17 -127h-551v119q172 166 246 244.5t105.5 134t31.5 112.5q0 61 -37 96t-96 35q-53 0 -92 -20.5t-82 -69.5zM477 -100l834 1636l120 -59l-831 -1637zM1196 100 l95 88q76 -82 180 -82q78 0 123 44.5t45 128.5q0 160 -148 159q-57 0 -118 -30h-117v446h512l-21 -119h-338v-213q68 31 138 31q115 0 185.5 -73.5t70.5 -200.5q0 -133 -90.5 -215t-237.5 -82q-164 0 -279 118z" />
<glyph unicode="&#x2157;" horiz-adv-x="1908" d="M106 662l93 86q78 -84 184 -84q76 0 120 38.5t44 106.5q0 74 -42 105.5t-122 31.5h-70l19 115h47q66 0 106.5 33.5t40.5 95.5q0 53 -36.5 84t-98.5 31q-51 0 -94 -18.5t-86 -57.5l-82 90q119 106 274 106q132 0 206.5 -61t74.5 -154q0 -78 -47 -129t-129 -71 q90 -8 147.5 -61.5t57.5 -147.5q0 -113 -87 -187.5t-235 -74.5q-178 0 -285 123zM477 -100l834 1636l120 -59l-831 -1637zM1196 100l95 88q76 -82 180 -82q78 0 123 44.5t45 128.5q0 160 -148 159q-57 0 -118 -30h-117v446h512l-21 -119h-338v-213q68 31 138 31 q115 0 185.5 -73.5t70.5 -200.5q0 -133 -90.5 -215t-237.5 -82q-164 0 -279 118z" />
<glyph unicode="&#x2158;" horiz-adv-x="1908" d="M86 754v110l262 561l135 -51l-231 -497h217l14 215h140v-215h108v-123h-108v-197h-156v197h-381zM477 -100l834 1636l120 -59l-831 -1637zM1196 100l95 88q76 -82 180 -82q78 0 123 44.5t45 128.5q0 160 -148 159q-57 0 -118 -30h-117v446h512l-21 -119h-338v-213 q68 31 138 31q115 0 185.5 -73.5t70.5 -200.5q0 -133 -90.5 -215t-237.5 -82q-164 0 -279 118z" />
<glyph unicode="&#x2159;" horiz-adv-x="1908" d="M133 1241l287 170h141v-854h-158v692l-200 -116zM477 -100l834 1636l120 -59l-831 -1637zM1190 395q0 215 96.5 344t264.5 129q109 0 192 -53l-59 -100q-68 37 -131 37q-88 0 -140.5 -74t-60.5 -205q84 96 207 96q109 0 179.5 -73.5t70.5 -204.5q0 -135 -85 -222 t-216 -87q-164 0 -241 109.5t-77 303.5zM1354 360q4 -137 39 -198.5t115 -61.5q69 0 105 50.5t36 136.5q0 166 -129 166q-96 0 -166 -93z" />
<glyph unicode="&#x215a;" horiz-adv-x="1908" d="M106 657l95 88q76 -82 180 -81q78 0 123 44t45 128q0 160 -148 159q-57 0 -118 -30h-117v446h512l-21 -119h-338v-213q68 31 138 31q115 0 185.5 -73.5t70.5 -200.5q0 -133 -90.5 -215t-237.5 -82q-164 0 -279 118zM477 -100l834 1636l120 -59l-831 -1637zM1190 395 q0 215 96.5 344t264.5 129q109 0 192 -53l-59 -100q-68 37 -131 37q-88 0 -140.5 -74t-60.5 -205q84 96 207 96q109 0 179.5 -73.5t70.5 -204.5q0 -135 -85 -222t-216 -87q-164 0 -241 109.5t-77 303.5zM1354 360q4 -137 39 -198.5t115 -61.5q69 0 105 50.5t36 136.5 q0 166 -129 166q-96 0 -166 -93z" />
<glyph unicode="&#x215b;" horiz-adv-x="1908" d="M133 1241l287 170h141v-854h-158v692l-200 -116zM477 -100l834 1636l120 -59l-831 -1637zM1176 227q0 76 44 129.5t128 87.5q-135 70 -135 201q0 100 84 161.5t205 61.5t203.5 -57t82.5 -160q0 -121 -147 -192q182 -80 182 -230q0 -106 -90 -176.5t-235 -70.5 t-233.5 69.5t-88.5 175.5zM1340 231q0 -61 43 -96t117 -35q75 0 118 36t43 93q0 59 -36.5 93t-133.5 65l-41 14q-111 -53 -110 -170zM1369 643q0 -53 33.5 -83t107.5 -52l24 -10q53 33 76 66.5t23 80.5q0 51 -34 82t-97 31q-62 0 -97.5 -30t-35.5 -85z" />
<glyph unicode="&#x215c;" horiz-adv-x="1908" d="M106 662l93 86q78 -84 184 -84q76 0 120 38.5t44 106.5q0 74 -42 105.5t-122 31.5h-70l19 115h47q66 0 106.5 33.5t40.5 95.5q0 53 -36.5 84t-98.5 31q-51 0 -94 -18.5t-86 -57.5l-82 90q119 106 274 106q132 0 206.5 -61t74.5 -154q0 -78 -47 -129t-129 -71 q90 -8 147.5 -61.5t57.5 -147.5q0 -113 -87 -187.5t-235 -74.5q-178 0 -285 123zM477 -100l834 1636l120 -59l-831 -1637zM1176 227q0 76 44 129.5t128 87.5q-135 70 -135 201q0 100 84 161.5t205 61.5t203.5 -57t82.5 -160q0 -121 -147 -192q182 -80 182 -230 q0 -106 -90 -176.5t-235 -70.5t-233.5 69.5t-88.5 175.5zM1340 231q0 -61 43 -96t117 -35q75 0 118 36t43 93q0 59 -36.5 93t-133.5 65l-41 14q-111 -53 -110 -170zM1369 643q0 -53 33.5 -83t107.5 -52l24 -10q53 33 76 66.5t23 80.5q0 51 -34 82t-97 31q-62 0 -97.5 -30 t-35.5 -85z" />
<glyph unicode="&#x215d;" horiz-adv-x="1908" d="M106 657l95 88q76 -82 180 -81q78 0 123 44t45 128q0 160 -148 159q-57 0 -118 -30h-117v446h512l-21 -119h-338v-213q68 31 138 31q115 0 185.5 -73.5t70.5 -200.5q0 -133 -90.5 -215t-237.5 -82q-164 0 -279 118zM477 -100l834 1636l120 -59l-831 -1637zM1176 227 q0 76 44 129.5t128 87.5q-135 70 -135 201q0 100 84 161.5t205 61.5t203.5 -57t82.5 -160q0 -121 -147 -192q182 -80 182 -230q0 -106 -90 -176.5t-235 -70.5t-233.5 69.5t-88.5 175.5zM1340 231q0 -61 43 -96t117 -35q75 0 118 36t43 93q0 59 -36.5 93t-133.5 65l-41 14 q-111 -53 -110 -170zM1369 643q0 -53 33.5 -83t107.5 -52l24 -10q53 33 76 66.5t23 80.5q0 51 -34 82t-97 31q-62 0 -97.5 -30t-35.5 -85z" />
<glyph unicode="&#x215e;" horiz-adv-x="1785" d="M137 1286v125h545v-113l-332 -757l-145 49l313 696h-381zM354 -100l834 1636l120 -59l-831 -1637zM1053 227q0 76 44 129.5t128 87.5q-135 70 -135 201q0 100 84 161.5t205 61.5t203.5 -57t82.5 -160q0 -121 -147 -192q182 -80 182 -230q0 -106 -90 -176.5t-235 -70.5 t-233.5 69.5t-88.5 175.5zM1217 231q0 -61 43 -96t117 -35q75 0 118 36t43 93q0 59 -36.5 93t-133.5 65l-41 14q-111 -53 -110 -170zM1246 643q0 -53 33.5 -83t107.5 -52l24 -10q53 33 76 66.5t23 80.5q0 51 -34 82t-97 31q-62 0 -97.5 -30t-35.5 -85z" />
<glyph unicode="&#x215f;" horiz-adv-x="1089" d="M133 1241l287 170h141v-854h-158v692l-200 -116zM477 -100l834 1636l120 -59l-831 -1637z" />
<glyph unicode="&#x2190;" horiz-adv-x="1843" d="M229 674l564 631l137 -117l-277 -303q-49 -55 -74.5 -79t-68.5 -50h1083v-164h-1083q63 -41 143 -129l277 -303l-137 -117z" />
<glyph unicode="&#x2191;" horiz-adv-x="1843" d="M280 796l641 576l641 -576l-112 -125l-309 285q-43 39 -73 72.5t-54 78.5v-1107h-185v1107q-24 -45 -54 -78.5t-73 -72.5l-309 -285z" />
<glyph unicode="&#x2192;" horiz-adv-x="1843" d="M250 592h1083q-63 -41 -143 -129l-277 -303l137 -117l564 631l-564 631l-137 -117l277 -303q49 -55 74.5 -79t68.5 -50h-1083v-164z" />
<glyph unicode="&#x2193;" horiz-adv-x="1843" d="M281 504l112 125l309 -285q43 -39 73 -72.5t54 -78.5v1107h185v-1107q24 45 54 78.5t73 72.5l309 285l113 -125l-641 -576z" />
<glyph unicode="&#x2194;" horiz-adv-x="2621" d="M229 674l564 631l137 -117l-277 -303q-49 -55 -74.5 -79t-68.5 -50h1601q-43 27 -68.5 50t-74.5 79l-276 303l137 117l563 -631l-563 -631l-137 117l276 303q80 88 143 129h-1601q63 -41 143 -129l277 -303l-137 -117z" />
<glyph unicode="&#x2195;" horiz-adv-x="1843" d="M281 186l112 125l309 -284q43 -39 73 -73t54 -79v1638q-25 -45 -54.5 -78.5t-72.5 -72.5l-309 -285l-112 125l641 576l641 -576l-113 -125l-309 285q-43 39 -73 72.5t-54 78.5v-1638q25 45 54.5 79t72.5 73l309 284l113 -125l-641 -575z" />
<glyph unicode="&#x2196;" horiz-adv-x="1843" d="M381 252l178 -10l25 403q2 16 2 47q0 78 -21 168l772 -778l125 125l-774 778q82 -16 152 -16q39 0 63 2l381 20l-10 170l-848 -45z" />
<glyph unicode="&#x2197;" horiz-adv-x="1843" d="M381 281l774 778q-82 -16 -152 -16q-39 0 -63 2l-381 20l10 170l848 -45l45 -864l-178 -10l-25 403q-2 16 -2 47q0 78 21 168l-772 -778z" />
<glyph unicode="&#x2198;" horiz-adv-x="1843" d="M381 1036l774 -778q-82 16 -152 16q-39 0 -63 -2l-381 -20l10 -170l848 45l45 864l-178 10l-25 -403q-2 -16 -2 -47q0 -78 21 -168l-772 778z" />
<glyph unicode="&#x2199;" horiz-adv-x="1843" d="M381 991l178 10l25 -403q2 -16 2 -47q0 -78 -21 -168l772 778l125 -125l-774 -778q82 16 152 16q39 0 63 -2l381 -20l-10 -170l-848 45z" />
<glyph unicode="&#x21e6;" horiz-adv-x="1966" d="M82 641l610 614v-360h1090q47 0 74.5 -27.5t27.5 -74.5v-304q0 -45 -27.5 -73.5t-74.5 -28.5h-1090v-360zM213 641l387 -391v227h1194v328h-1194v227z" />
<glyph unicode="&#x21e7;" horiz-adv-x="1474" d="M123 1094l614 610l615 -610h-346v-1016q0 -45 -28 -74t-75 -29h-332q-45 0 -73.5 29t-28.5 74v1016h-346zM346 1186h219v-1120h344v1120h219l-391 387z" />
<glyph unicode="&#x21e8;" horiz-adv-x="1966" d="M82 489q0 -45 27.5 -73.5t74.5 -28.5h1090v-360l610 614l-610 614v-360h-1090q-47 0 -74.5 -27.5t-27.5 -74.5v-304zM172 477v328h1194v227l387 -391l-387 -391v227h-1194z" />
<glyph unicode="&#x21e9;" horiz-adv-x="1474" d="M123 418h346v1016q0 47 28.5 74.5t73.5 27.5h332q47 0 75 -27.5t28 -74.5v-1016h346l-615 -611zM346 326l391 -387l391 387h-219v1120h-344v-1120h-219z" />
<glyph unicode="&#x21ea;" horiz-adv-x="1474" d="M123 1094l614 610l615 -610h-346v-572h-537v572h-346zM346 1186h219v-578h344v578h219l-391 387zM469 78v239h537v-239q0 -45 -28 -74t-75 -29h-332q-45 0 -73.5 29t-28.5 74zM565 66h344v165h-344v-165z" />
</font>
</defs>
</svg>
